<?xml version="1.0" encoding="utf-8" standalone="no"?>
<!DOCTYPE svg PUBLIC "-//W3C//DTD SVG 1.1//EN"
  "http://www.w3.org/Graphics/SVG/1.1/DTD/svg11.dtd">
<svg xmlns:xlink="http://www.w3.org/1999/xlink" width="445.040625pt" height="281.634375pt" viewBox="0 0 445.040625 281.634375" xmlns="http://www.w3.org/2000/svg" version="1.1">
 <metadata>
  <rdf:RDF xmlns:dc="http://purl.org/dc/elements/1.1/" xmlns:cc="http://creativecommons.org/ns#" xmlns:rdf="http://www.w3.org/1999/02/22-rdf-syntax-ns#">
   <cc:Work>
    <dc:type rdf:resource="http://purl.org/dc/dcmitype/StillImage"/>
    <dc:date>2026-05-20T07:54:21.607367</dc:date>
    <dc:format>image/svg+xml</dc:format>
    <dc:creator>
     <cc:Agent>
      <dc:title>Matplotlib v3.10.3, https://matplotlib.org/</dc:title>
     </cc:Agent>
    </dc:creator>
   </cc:Work>
  </rdf:RDF>
 </metadata>
 <defs>
  <style type="text/css">*{stroke-linejoin: round; stroke-linecap: butt}</style>
 </defs>
 <g id="figure_1">
  <g id="patch_1">
   <path d="M 0 281.634375 
L 445.040625 281.634375 
L 445.040625 0 
L 0 0 
z
" style="fill: #ffffff"/>
  </g>
  <g id="axes_1">
   <g id="patch_2">
    <path d="M 44.059375 244.078125 
L 434.659375 244.078125 
L 434.659375 22.318125 
L 44.059375 22.318125 
z
" style="fill: #ffffff"/>
   </g>
   <g id="matplotlib.axis_1">
    <g id="xtick_1">
     <g id="line2d_1">
      <path d="M 44.059375 244.078125 
L 44.059375 22.318125 
" clip-path="url(#p580d40dffb)" style="fill: none; stroke: #b0b0b0; stroke-opacity: 0.3; stroke-width: 0.8; stroke-linecap: square"/>
     </g>
     <g id="line2d_2">
      <defs>
       <path id="mf7419bc273" d="M 0 0 
L 0 3.5 
" style="stroke: #000000; stroke-width: 0.8"/>
      </defs>
      <g>
       <use xlink:href="#mf7419bc273" x="44.059375" y="244.078125" style="stroke: #000000; stroke-width: 0.8"/>
      </g>
     </g>
     <g id="text_1">
      <!-- −10 -->
      <g transform="translate(33.507031 258.676562) scale(0.1 -0.1)">
       <defs>
        <path id="DejaVuSans-2212" d="M 678 2272 
L 4684 2272 
L 4684 1741 
L 678 1741 
L 678 2272 
z
" transform="scale(0.015625)"/>
        <path id="DejaVuSans-31" d="M 794 531 
L 1825 531 
L 1825 4091 
L 703 3866 
L 703 4441 
L 1819 4666 
L 2450 4666 
L 2450 531 
L 3481 531 
L 3481 0 
L 794 0 
L 794 531 
z
" transform="scale(0.015625)"/>
        <path id="DejaVuSans-30" d="M 2034 4250 
Q 1547 4250 1301 3770 
Q 1056 3291 1056 2328 
Q 1056 1369 1301 889 
Q 1547 409 2034 409 
Q 2525 409 2770 889 
Q 3016 1369 3016 2328 
Q 3016 3291 2770 3770 
Q 2525 4250 2034 4250 
z
M 2034 4750 
Q 2819 4750 3233 4129 
Q 3647 3509 3647 2328 
Q 3647 1150 3233 529 
Q 2819 -91 2034 -91 
Q 1250 -91 836 529 
Q 422 1150 422 2328 
Q 422 3509 836 4129 
Q 1250 4750 2034 4750 
z
" transform="scale(0.015625)"/>
       </defs>
       <use xlink:href="#DejaVuSans-2212"/>
       <use xlink:href="#DejaVuSans-31" transform="translate(83.789062 0)"/>
       <use xlink:href="#DejaVuSans-30" transform="translate(147.412109 0)"/>
      </g>
     </g>
    </g>
    <g id="xtick_2">
     <g id="line2d_3">
      <path d="M 122.179375 244.078125 
L 122.179375 22.318125 
" clip-path="url(#p580d40dffb)" style="fill: none; stroke: #b0b0b0; stroke-opacity: 0.3; stroke-width: 0.8; stroke-linecap: square"/>
     </g>
     <g id="line2d_4">
      <g>
       <use xlink:href="#mf7419bc273" x="122.179375" y="244.078125" style="stroke: #000000; stroke-width: 0.8"/>
      </g>
     </g>
     <g id="text_2">
      <!-- −8 -->
      <g transform="translate(114.808281 258.676562) scale(0.1 -0.1)">
       <defs>
        <path id="DejaVuSans-38" d="M 2034 2216 
Q 1584 2216 1326 1975 
Q 1069 1734 1069 1313 
Q 1069 891 1326 650 
Q 1584 409 2034 409 
Q 2484 409 2743 651 
Q 3003 894 3003 1313 
Q 3003 1734 2745 1975 
Q 2488 2216 2034 2216 
z
M 1403 2484 
Q 997 2584 770 2862 
Q 544 3141 544 3541 
Q 544 4100 942 4425 
Q 1341 4750 2034 4750 
Q 2731 4750 3128 4425 
Q 3525 4100 3525 3541 
Q 3525 3141 3298 2862 
Q 3072 2584 2669 2484 
Q 3125 2378 3379 2068 
Q 3634 1759 3634 1313 
Q 3634 634 3220 271 
Q 2806 -91 2034 -91 
Q 1263 -91 848 271 
Q 434 634 434 1313 
Q 434 1759 690 2068 
Q 947 2378 1403 2484 
z
M 1172 3481 
Q 1172 3119 1398 2916 
Q 1625 2713 2034 2713 
Q 2441 2713 2670 2916 
Q 2900 3119 2900 3481 
Q 2900 3844 2670 4047 
Q 2441 4250 2034 4250 
Q 1625 4250 1398 4047 
Q 1172 3844 1172 3481 
z
" transform="scale(0.015625)"/>
       </defs>
       <use xlink:href="#DejaVuSans-2212"/>
       <use xlink:href="#DejaVuSans-38" transform="translate(83.789062 0)"/>
      </g>
     </g>
    </g>
    <g id="xtick_3">
     <g id="line2d_5">
      <path d="M 200.299375 244.078125 
L 200.299375 22.318125 
" clip-path="url(#p580d40dffb)" style="fill: none; stroke: #b0b0b0; stroke-opacity: 0.3; stroke-width: 0.8; stroke-linecap: square"/>
     </g>
     <g id="line2d_6">
      <g>
       <use xlink:href="#mf7419bc273" x="200.299375" y="244.078125" style="stroke: #000000; stroke-width: 0.8"/>
      </g>
     </g>
     <g id="text_3">
      <!-- −6 -->
      <g transform="translate(192.928281 258.676562) scale(0.1 -0.1)">
       <defs>
        <path id="DejaVuSans-36" d="M 2113 2584 
Q 1688 2584 1439 2293 
Q 1191 2003 1191 1497 
Q 1191 994 1439 701 
Q 1688 409 2113 409 
Q 2538 409 2786 701 
Q 3034 994 3034 1497 
Q 3034 2003 2786 2293 
Q 2538 2584 2113 2584 
z
M 3366 4563 
L 3366 3988 
Q 3128 4100 2886 4159 
Q 2644 4219 2406 4219 
Q 1781 4219 1451 3797 
Q 1122 3375 1075 2522 
Q 1259 2794 1537 2939 
Q 1816 3084 2150 3084 
Q 2853 3084 3261 2657 
Q 3669 2231 3669 1497 
Q 3669 778 3244 343 
Q 2819 -91 2113 -91 
Q 1303 -91 875 529 
Q 447 1150 447 2328 
Q 447 3434 972 4092 
Q 1497 4750 2381 4750 
Q 2619 4750 2861 4703 
Q 3103 4656 3366 4563 
z
" transform="scale(0.015625)"/>
       </defs>
       <use xlink:href="#DejaVuSans-2212"/>
       <use xlink:href="#DejaVuSans-36" transform="translate(83.789062 0)"/>
      </g>
     </g>
    </g>
    <g id="xtick_4">
     <g id="line2d_7">
      <path d="M 278.419375 244.078125 
L 278.419375 22.318125 
" clip-path="url(#p580d40dffb)" style="fill: none; stroke: #b0b0b0; stroke-opacity: 0.3; stroke-width: 0.8; stroke-linecap: square"/>
     </g>
     <g id="line2d_8">
      <g>
       <use xlink:href="#mf7419bc273" x="278.419375" y="244.078125" style="stroke: #000000; stroke-width: 0.8"/>
      </g>
     </g>
     <g id="text_4">
      <!-- −4 -->
      <g transform="translate(271.048281 258.676562) scale(0.1 -0.1)">
       <defs>
        <path id="DejaVuSans-34" d="M 2419 4116 
L 825 1625 
L 2419 1625 
L 2419 4116 
z
M 2253 4666 
L 3047 4666 
L 3047 1625 
L 3713 1625 
L 3713 1100 
L 3047 1100 
L 3047 0 
L 2419 0 
L 2419 1100 
L 313 1100 
L 313 1709 
L 2253 4666 
z
" transform="scale(0.015625)"/>
       </defs>
       <use xlink:href="#DejaVuSans-2212"/>
       <use xlink:href="#DejaVuSans-34" transform="translate(83.789062 0)"/>
      </g>
     </g>
    </g>
    <g id="xtick_5">
     <g id="line2d_9">
      <path d="M 356.539375 244.078125 
L 356.539375 22.318125 
" clip-path="url(#p580d40dffb)" style="fill: none; stroke: #b0b0b0; stroke-opacity: 0.3; stroke-width: 0.8; stroke-linecap: square"/>
     </g>
     <g id="line2d_10">
      <g>
       <use xlink:href="#mf7419bc273" x="356.539375" y="244.078125" style="stroke: #000000; stroke-width: 0.8"/>
      </g>
     </g>
     <g id="text_5">
      <!-- −2 -->
      <g transform="translate(349.168281 258.676562) scale(0.1 -0.1)">
       <defs>
        <path id="DejaVuSans-32" d="M 1228 531 
L 3431 531 
L 3431 0 
L 469 0 
L 469 531 
Q 828 903 1448 1529 
Q 2069 2156 2228 2338 
Q 2531 2678 2651 2914 
Q 2772 3150 2772 3378 
Q 2772 3750 2511 3984 
Q 2250 4219 1831 4219 
Q 1534 4219 1204 4116 
Q 875 4013 500 3803 
L 500 4441 
Q 881 4594 1212 4672 
Q 1544 4750 1819 4750 
Q 2544 4750 2975 4387 
Q 3406 4025 3406 3419 
Q 3406 3131 3298 2873 
Q 3191 2616 2906 2266 
Q 2828 2175 2409 1742 
Q 1991 1309 1228 531 
z
" transform="scale(0.015625)"/>
       </defs>
       <use xlink:href="#DejaVuSans-2212"/>
       <use xlink:href="#DejaVuSans-32" transform="translate(83.789062 0)"/>
      </g>
     </g>
    </g>
    <g id="xtick_6">
     <g id="line2d_11">
      <path d="M 434.659375 244.078125 
L 434.659375 22.318125 
" clip-path="url(#p580d40dffb)" style="fill: none; stroke: #b0b0b0; stroke-opacity: 0.3; stroke-width: 0.8; stroke-linecap: square"/>
     </g>
     <g id="line2d_12">
      <g>
       <use xlink:href="#mf7419bc273" x="434.659375" y="244.078125" style="stroke: #000000; stroke-width: 0.8"/>
      </g>
     </g>
     <g id="text_6">
      <!-- 0 -->
      <g transform="translate(431.478125 258.676562) scale(0.1 -0.1)">
       <use xlink:href="#DejaVuSans-30"/>
      </g>
     </g>
    </g>
    <g id="text_7">
     <!-- d = Lmin - Lmax  (log-domain difference) -->
     <g transform="translate(135.946094 272.354687) scale(0.1 -0.1)">
      <defs>
       <path id="DejaVuSans-64" d="M 2906 2969 
L 2906 4863 
L 3481 4863 
L 3481 0 
L 2906 0 
L 2906 525 
Q 2725 213 2448 61 
Q 2172 -91 1784 -91 
Q 1150 -91 751 415 
Q 353 922 353 1747 
Q 353 2572 751 3078 
Q 1150 3584 1784 3584 
Q 2172 3584 2448 3432 
Q 2725 3281 2906 2969 
z
M 947 1747 
Q 947 1113 1208 752 
Q 1469 391 1925 391 
Q 2381 391 2643 752 
Q 2906 1113 2906 1747 
Q 2906 2381 2643 2742 
Q 2381 3103 1925 3103 
Q 1469 3103 1208 2742 
Q 947 2381 947 1747 
z
" transform="scale(0.015625)"/>
       <path id="DejaVuSans-20" transform="scale(0.015625)"/>
       <path id="DejaVuSans-3d" d="M 678 2906 
L 4684 2906 
L 4684 2381 
L 678 2381 
L 678 2906 
z
M 678 1631 
L 4684 1631 
L 4684 1100 
L 678 1100 
L 678 1631 
z
" transform="scale(0.015625)"/>
       <path id="DejaVuSans-4c" d="M 628 4666 
L 1259 4666 
L 1259 531 
L 3531 531 
L 3531 0 
L 628 0 
L 628 4666 
z
" transform="scale(0.015625)"/>
       <path id="DejaVuSans-6d" d="M 3328 2828 
Q 3544 3216 3844 3400 
Q 4144 3584 4550 3584 
Q 5097 3584 5394 3201 
Q 5691 2819 5691 2113 
L 5691 0 
L 5113 0 
L 5113 2094 
Q 5113 2597 4934 2840 
Q 4756 3084 4391 3084 
Q 3944 3084 3684 2787 
Q 3425 2491 3425 1978 
L 3425 0 
L 2847 0 
L 2847 2094 
Q 2847 2600 2669 2842 
Q 2491 3084 2119 3084 
Q 1678 3084 1418 2786 
Q 1159 2488 1159 1978 
L 1159 0 
L 581 0 
L 581 3500 
L 1159 3500 
L 1159 2956 
Q 1356 3278 1631 3431 
Q 1906 3584 2284 3584 
Q 2666 3584 2933 3390 
Q 3200 3197 3328 2828 
z
" transform="scale(0.015625)"/>
       <path id="DejaVuSans-69" d="M 603 3500 
L 1178 3500 
L 1178 0 
L 603 0 
L 603 3500 
z
M 603 4863 
L 1178 4863 
L 1178 4134 
L 603 4134 
L 603 4863 
z
" transform="scale(0.015625)"/>
       <path id="DejaVuSans-6e" d="M 3513 2113 
L 3513 0 
L 2938 0 
L 2938 2094 
Q 2938 2591 2744 2837 
Q 2550 3084 2163 3084 
Q 1697 3084 1428 2787 
Q 1159 2491 1159 1978 
L 1159 0 
L 581 0 
L 581 3500 
L 1159 3500 
L 1159 2956 
Q 1366 3272 1645 3428 
Q 1925 3584 2291 3584 
Q 2894 3584 3203 3211 
Q 3513 2838 3513 2113 
z
" transform="scale(0.015625)"/>
       <path id="DejaVuSans-2d" d="M 313 2009 
L 1997 2009 
L 1997 1497 
L 313 1497 
L 313 2009 
z
" transform="scale(0.015625)"/>
       <path id="DejaVuSans-61" d="M 2194 1759 
Q 1497 1759 1228 1600 
Q 959 1441 959 1056 
Q 959 750 1161 570 
Q 1363 391 1709 391 
Q 2188 391 2477 730 
Q 2766 1069 2766 1631 
L 2766 1759 
L 2194 1759 
z
M 3341 1997 
L 3341 0 
L 2766 0 
L 2766 531 
Q 2569 213 2275 61 
Q 1981 -91 1556 -91 
Q 1019 -91 701 211 
Q 384 513 384 1019 
Q 384 1609 779 1909 
Q 1175 2209 1959 2209 
L 2766 2209 
L 2766 2266 
Q 2766 2663 2505 2880 
Q 2244 3097 1772 3097 
Q 1472 3097 1187 3025 
Q 903 2953 641 2809 
L 641 3341 
Q 956 3463 1253 3523 
Q 1550 3584 1831 3584 
Q 2591 3584 2966 3190 
Q 3341 2797 3341 1997 
z
" transform="scale(0.015625)"/>
       <path id="DejaVuSans-78" d="M 3513 3500 
L 2247 1797 
L 3578 0 
L 2900 0 
L 1881 1375 
L 863 0 
L 184 0 
L 1544 1831 
L 300 3500 
L 978 3500 
L 1906 2253 
L 2834 3500 
L 3513 3500 
z
" transform="scale(0.015625)"/>
       <path id="DejaVuSans-28" d="M 1984 4856 
Q 1566 4138 1362 3434 
Q 1159 2731 1159 2009 
Q 1159 1288 1364 580 
Q 1569 -128 1984 -844 
L 1484 -844 
Q 1016 -109 783 600 
Q 550 1309 550 2009 
Q 550 2706 781 3412 
Q 1013 4119 1484 4856 
L 1984 4856 
z
" transform="scale(0.015625)"/>
       <path id="DejaVuSans-6c" d="M 603 4863 
L 1178 4863 
L 1178 0 
L 603 0 
L 603 4863 
z
" transform="scale(0.015625)"/>
       <path id="DejaVuSans-6f" d="M 1959 3097 
Q 1497 3097 1228 2736 
Q 959 2375 959 1747 
Q 959 1119 1226 758 
Q 1494 397 1959 397 
Q 2419 397 2687 759 
Q 2956 1122 2956 1747 
Q 2956 2369 2687 2733 
Q 2419 3097 1959 3097 
z
M 1959 3584 
Q 2709 3584 3137 3096 
Q 3566 2609 3566 1747 
Q 3566 888 3137 398 
Q 2709 -91 1959 -91 
Q 1206 -91 779 398 
Q 353 888 353 1747 
Q 353 2609 779 3096 
Q 1206 3584 1959 3584 
z
" transform="scale(0.015625)"/>
       <path id="DejaVuSans-67" d="M 2906 1791 
Q 2906 2416 2648 2759 
Q 2391 3103 1925 3103 
Q 1463 3103 1205 2759 
Q 947 2416 947 1791 
Q 947 1169 1205 825 
Q 1463 481 1925 481 
Q 2391 481 2648 825 
Q 2906 1169 2906 1791 
z
M 3481 434 
Q 3481 -459 3084 -895 
Q 2688 -1331 1869 -1331 
Q 1566 -1331 1297 -1286 
Q 1028 -1241 775 -1147 
L 775 -588 
Q 1028 -725 1275 -790 
Q 1522 -856 1778 -856 
Q 2344 -856 2625 -561 
Q 2906 -266 2906 331 
L 2906 616 
Q 2728 306 2450 153 
Q 2172 0 1784 0 
Q 1141 0 747 490 
Q 353 981 353 1791 
Q 353 2603 747 3093 
Q 1141 3584 1784 3584 
Q 2172 3584 2450 3431 
Q 2728 3278 2906 2969 
L 2906 3500 
L 3481 3500 
L 3481 434 
z
" transform="scale(0.015625)"/>
       <path id="DejaVuSans-66" d="M 2375 4863 
L 2375 4384 
L 1825 4384 
Q 1516 4384 1395 4259 
Q 1275 4134 1275 3809 
L 1275 3500 
L 2222 3500 
L 2222 3053 
L 1275 3053 
L 1275 0 
L 697 0 
L 697 3053 
L 147 3053 
L 147 3500 
L 697 3500 
L 697 3744 
Q 697 4328 969 4595 
Q 1241 4863 1831 4863 
L 2375 4863 
z
" transform="scale(0.015625)"/>
       <path id="DejaVuSans-65" d="M 3597 1894 
L 3597 1613 
L 953 1613 
Q 991 1019 1311 708 
Q 1631 397 2203 397 
Q 2534 397 2845 478 
Q 3156 559 3463 722 
L 3463 178 
Q 3153 47 2828 -22 
Q 2503 -91 2169 -91 
Q 1331 -91 842 396 
Q 353 884 353 1716 
Q 353 2575 817 3079 
Q 1281 3584 2069 3584 
Q 2775 3584 3186 3129 
Q 3597 2675 3597 1894 
z
M 3022 2063 
Q 3016 2534 2758 2815 
Q 2500 3097 2075 3097 
Q 1594 3097 1305 2825 
Q 1016 2553 972 2059 
L 3022 2063 
z
" transform="scale(0.015625)"/>
       <path id="DejaVuSans-72" d="M 2631 2963 
Q 2534 3019 2420 3045 
Q 2306 3072 2169 3072 
Q 1681 3072 1420 2755 
Q 1159 2438 1159 1844 
L 1159 0 
L 581 0 
L 581 3500 
L 1159 3500 
L 1159 2956 
Q 1341 3275 1631 3429 
Q 1922 3584 2338 3584 
Q 2397 3584 2469 3576 
Q 2541 3569 2628 3553 
L 2631 2963 
z
" transform="scale(0.015625)"/>
       <path id="DejaVuSans-63" d="M 3122 3366 
L 3122 2828 
Q 2878 2963 2633 3030 
Q 2388 3097 2138 3097 
Q 1578 3097 1268 2742 
Q 959 2388 959 1747 
Q 959 1106 1268 751 
Q 1578 397 2138 397 
Q 2388 397 2633 464 
Q 2878 531 3122 666 
L 3122 134 
Q 2881 22 2623 -34 
Q 2366 -91 2075 -91 
Q 1284 -91 818 406 
Q 353 903 353 1747 
Q 353 2603 823 3093 
Q 1294 3584 2113 3584 
Q 2378 3584 2631 3529 
Q 2884 3475 3122 3366 
z
" transform="scale(0.015625)"/>
       <path id="DejaVuSans-29" d="M 513 4856 
L 1013 4856 
Q 1481 4119 1714 3412 
Q 1947 2706 1947 2009 
Q 1947 1309 1714 600 
Q 1481 -109 1013 -844 
L 513 -844 
Q 928 -128 1133 580 
Q 1338 1288 1338 2009 
Q 1338 2731 1133 3434 
Q 928 4138 513 4856 
z
" transform="scale(0.015625)"/>
      </defs>
      <use xlink:href="#DejaVuSans-64"/>
      <use xlink:href="#DejaVuSans-20" transform="translate(63.476562 0)"/>
      <use xlink:href="#DejaVuSans-3d" transform="translate(95.263672 0)"/>
      <use xlink:href="#DejaVuSans-20" transform="translate(179.052734 0)"/>
      <use xlink:href="#DejaVuSans-4c" transform="translate(210.839844 0)"/>
      <use xlink:href="#DejaVuSans-6d" transform="translate(266.552734 0)"/>
      <use xlink:href="#DejaVuSans-69" transform="translate(363.964844 0)"/>
      <use xlink:href="#DejaVuSans-6e" transform="translate(391.748047 0)"/>
      <use xlink:href="#DejaVuSans-20" transform="translate(455.126953 0)"/>
      <use xlink:href="#DejaVuSans-2d" transform="translate(486.914062 0)"/>
      <use xlink:href="#DejaVuSans-20" transform="translate(522.998047 0)"/>
      <use xlink:href="#DejaVuSans-4c" transform="translate(554.785156 0)"/>
      <use xlink:href="#DejaVuSans-6d" transform="translate(610.498047 0)"/>
      <use xlink:href="#DejaVuSans-61" transform="translate(707.910156 0)"/>
      <use xlink:href="#DejaVuSans-78" transform="translate(769.189453 0)"/>
      <use xlink:href="#DejaVuSans-20" transform="translate(828.369141 0)"/>
      <use xlink:href="#DejaVuSans-20" transform="translate(860.15625 0)"/>
      <use xlink:href="#DejaVuSans-28" transform="translate(891.943359 0)"/>
      <use xlink:href="#DejaVuSans-6c" transform="translate(930.957031 0)"/>
      <use xlink:href="#DejaVuSans-6f" transform="translate(958.740234 0)"/>
      <use xlink:href="#DejaVuSans-67" transform="translate(1019.921875 0)"/>
      <use xlink:href="#DejaVuSans-2d" transform="translate(1083.398438 0)"/>
      <use xlink:href="#DejaVuSans-64" transform="translate(1119.482422 0)"/>
      <use xlink:href="#DejaVuSans-6f" transform="translate(1182.958984 0)"/>
      <use xlink:href="#DejaVuSans-6d" transform="translate(1244.140625 0)"/>
      <use xlink:href="#DejaVuSans-61" transform="translate(1341.552734 0)"/>
      <use xlink:href="#DejaVuSans-69" transform="translate(1402.832031 0)"/>
      <use xlink:href="#DejaVuSans-6e" transform="translate(1430.615234 0)"/>
      <use xlink:href="#DejaVuSans-20" transform="translate(1493.994141 0)"/>
      <use xlink:href="#DejaVuSans-64" transform="translate(1525.78125 0)"/>
      <use xlink:href="#DejaVuSans-69" transform="translate(1589.257812 0)"/>
      <use xlink:href="#DejaVuSans-66" transform="translate(1617.041016 0)"/>
      <use xlink:href="#DejaVuSans-66" transform="translate(1652.246094 0)"/>
      <use xlink:href="#DejaVuSans-65" transform="translate(1687.451172 0)"/>
      <use xlink:href="#DejaVuSans-72" transform="translate(1748.974609 0)"/>
      <use xlink:href="#DejaVuSans-65" transform="translate(1787.837891 0)"/>
      <use xlink:href="#DejaVuSans-6e" transform="translate(1849.361328 0)"/>
      <use xlink:href="#DejaVuSans-63" transform="translate(1912.740234 0)"/>
      <use xlink:href="#DejaVuSans-65" transform="translate(1967.720703 0)"/>
      <use xlink:href="#DejaVuSans-29" transform="translate(2029.244141 0)"/>
     </g>
    </g>
   </g>
   <g id="matplotlib.axis_2">
    <g id="ytick_1">
     <g id="line2d_13">
      <path d="M 44.059375 234.436386 
L 434.659375 234.436386 
" clip-path="url(#p580d40dffb)" style="fill: none; stroke: #b0b0b0; stroke-opacity: 0.3; stroke-width: 0.8; stroke-linecap: square"/>
     </g>
     <g id="line2d_14">
      <defs>
       <path id="m3b44c1425e" d="M 0 0 
L -3.5 0 
" style="stroke: #000000; stroke-width: 0.8"/>
      </defs>
      <g>
       <use xlink:href="#m3b44c1425e" x="44.059375" y="234.436386" style="stroke: #000000; stroke-width: 0.8"/>
      </g>
     </g>
     <g id="text_8">
      <!-- 0.0 -->
      <g transform="translate(21.15625 238.235605) scale(0.1 -0.1)">
       <defs>
        <path id="DejaVuSans-2e" d="M 684 794 
L 1344 794 
L 1344 0 
L 684 0 
L 684 794 
z
" transform="scale(0.015625)"/>
       </defs>
       <use xlink:href="#DejaVuSans-30"/>
       <use xlink:href="#DejaVuSans-2e" transform="translate(63.623047 0)"/>
       <use xlink:href="#DejaVuSans-30" transform="translate(95.410156 0)"/>
      </g>
     </g>
    </g>
    <g id="ytick_2">
     <g id="line2d_15">
      <path d="M 44.059375 195.869429 
L 434.659375 195.869429 
" clip-path="url(#p580d40dffb)" style="fill: none; stroke: #b0b0b0; stroke-opacity: 0.3; stroke-width: 0.8; stroke-linecap: square"/>
     </g>
     <g id="line2d_16">
      <g>
       <use xlink:href="#m3b44c1425e" x="44.059375" y="195.869429" style="stroke: #000000; stroke-width: 0.8"/>
      </g>
     </g>
     <g id="text_9">
      <!-- 0.2 -->
      <g transform="translate(21.15625 199.668648) scale(0.1 -0.1)">
       <use xlink:href="#DejaVuSans-30"/>
       <use xlink:href="#DejaVuSans-2e" transform="translate(63.623047 0)"/>
       <use xlink:href="#DejaVuSans-32" transform="translate(95.410156 0)"/>
      </g>
     </g>
    </g>
    <g id="ytick_3">
     <g id="line2d_17">
      <path d="M 44.059375 157.302473 
L 434.659375 157.302473 
" clip-path="url(#p580d40dffb)" style="fill: none; stroke: #b0b0b0; stroke-opacity: 0.3; stroke-width: 0.8; stroke-linecap: square"/>
     </g>
     <g id="line2d_18">
      <g>
       <use xlink:href="#m3b44c1425e" x="44.059375" y="157.302473" style="stroke: #000000; stroke-width: 0.8"/>
      </g>
     </g>
     <g id="text_10">
      <!-- 0.4 -->
      <g transform="translate(21.15625 161.101692) scale(0.1 -0.1)">
       <use xlink:href="#DejaVuSans-30"/>
       <use xlink:href="#DejaVuSans-2e" transform="translate(63.623047 0)"/>
       <use xlink:href="#DejaVuSans-34" transform="translate(95.410156 0)"/>
      </g>
     </g>
    </g>
    <g id="ytick_4">
     <g id="line2d_19">
      <path d="M 44.059375 118.735516 
L 434.659375 118.735516 
" clip-path="url(#p580d40dffb)" style="fill: none; stroke: #b0b0b0; stroke-opacity: 0.3; stroke-width: 0.8; stroke-linecap: square"/>
     </g>
     <g id="line2d_20">
      <g>
       <use xlink:href="#m3b44c1425e" x="44.059375" y="118.735516" style="stroke: #000000; stroke-width: 0.8"/>
      </g>
     </g>
     <g id="text_11">
      <!-- 0.6 -->
      <g transform="translate(21.15625 122.534735) scale(0.1 -0.1)">
       <use xlink:href="#DejaVuSans-30"/>
       <use xlink:href="#DejaVuSans-2e" transform="translate(63.623047 0)"/>
       <use xlink:href="#DejaVuSans-36" transform="translate(95.410156 0)"/>
      </g>
     </g>
    </g>
    <g id="ytick_5">
     <g id="line2d_21">
      <path d="M 44.059375 80.16856 
L 434.659375 80.16856 
" clip-path="url(#p580d40dffb)" style="fill: none; stroke: #b0b0b0; stroke-opacity: 0.3; stroke-width: 0.8; stroke-linecap: square"/>
     </g>
     <g id="line2d_22">
      <g>
       <use xlink:href="#m3b44c1425e" x="44.059375" y="80.16856" style="stroke: #000000; stroke-width: 0.8"/>
      </g>
     </g>
     <g id="text_12">
      <!-- 0.8 -->
      <g transform="translate(21.15625 83.967779) scale(0.1 -0.1)">
       <use xlink:href="#DejaVuSans-30"/>
       <use xlink:href="#DejaVuSans-2e" transform="translate(63.623047 0)"/>
       <use xlink:href="#DejaVuSans-38" transform="translate(95.410156 0)"/>
      </g>
     </g>
    </g>
    <g id="ytick_6">
     <g id="line2d_23">
      <path d="M 44.059375 41.601603 
L 434.659375 41.601603 
" clip-path="url(#p580d40dffb)" style="fill: none; stroke: #b0b0b0; stroke-opacity: 0.3; stroke-width: 0.8; stroke-linecap: square"/>
     </g>
     <g id="line2d_24">
      <g>
       <use xlink:href="#m3b44c1425e" x="44.059375" y="41.601603" style="stroke: #000000; stroke-width: 0.8"/>
      </g>
     </g>
     <g id="text_13">
      <!-- 1.0 -->
      <g transform="translate(21.15625 45.400822) scale(0.1 -0.1)">
       <use xlink:href="#DejaVuSans-31"/>
       <use xlink:href="#DejaVuSans-2e" transform="translate(63.623047 0)"/>
       <use xlink:href="#DejaVuSans-30" transform="translate(95.410156 0)"/>
      </g>
     </g>
    </g>
    <g id="text_14">
     <!-- sb_add(d) = log2(1 + 2^d) -->
     <g transform="translate(14.798438 201.133281) rotate(-90) scale(0.1 -0.1)">
      <defs>
       <path id="DejaVuSans-73" d="M 2834 3397 
L 2834 2853 
Q 2591 2978 2328 3040 
Q 2066 3103 1784 3103 
Q 1356 3103 1142 2972 
Q 928 2841 928 2578 
Q 928 2378 1081 2264 
Q 1234 2150 1697 2047 
L 1894 2003 
Q 2506 1872 2764 1633 
Q 3022 1394 3022 966 
Q 3022 478 2636 193 
Q 2250 -91 1575 -91 
Q 1294 -91 989 -36 
Q 684 19 347 128 
L 347 722 
Q 666 556 975 473 
Q 1284 391 1588 391 
Q 1994 391 2212 530 
Q 2431 669 2431 922 
Q 2431 1156 2273 1281 
Q 2116 1406 1581 1522 
L 1381 1569 
Q 847 1681 609 1914 
Q 372 2147 372 2553 
Q 372 3047 722 3315 
Q 1072 3584 1716 3584 
Q 2034 3584 2315 3537 
Q 2597 3491 2834 3397 
z
" transform="scale(0.015625)"/>
       <path id="DejaVuSans-62" d="M 3116 1747 
Q 3116 2381 2855 2742 
Q 2594 3103 2138 3103 
Q 1681 3103 1420 2742 
Q 1159 2381 1159 1747 
Q 1159 1113 1420 752 
Q 1681 391 2138 391 
Q 2594 391 2855 752 
Q 3116 1113 3116 1747 
z
M 1159 2969 
Q 1341 3281 1617 3432 
Q 1894 3584 2278 3584 
Q 2916 3584 3314 3078 
Q 3713 2572 3713 1747 
Q 3713 922 3314 415 
Q 2916 -91 2278 -91 
Q 1894 -91 1617 61 
Q 1341 213 1159 525 
L 1159 0 
L 581 0 
L 581 4863 
L 1159 4863 
L 1159 2969 
z
" transform="scale(0.015625)"/>
       <path id="DejaVuSans-5f" d="M 3263 -1063 
L 3263 -1509 
L -63 -1509 
L -63 -1063 
L 3263 -1063 
z
" transform="scale(0.015625)"/>
       <path id="DejaVuSans-2b" d="M 2944 4013 
L 2944 2272 
L 4684 2272 
L 4684 1741 
L 2944 1741 
L 2944 0 
L 2419 0 
L 2419 1741 
L 678 1741 
L 678 2272 
L 2419 2272 
L 2419 4013 
L 2944 4013 
z
" transform="scale(0.015625)"/>
       <path id="DejaVuSans-5e" d="M 2988 4666 
L 4684 2925 
L 4056 2925 
L 2681 4159 
L 1306 2925 
L 678 2925 
L 2375 4666 
L 2988 4666 
z
" transform="scale(0.015625)"/>
      </defs>
      <use xlink:href="#DejaVuSans-73"/>
      <use xlink:href="#DejaVuSans-62" transform="translate(52.099609 0)"/>
      <use xlink:href="#DejaVuSans-5f" transform="translate(115.576172 0)"/>
      <use xlink:href="#DejaVuSans-61" transform="translate(165.576172 0)"/>
      <use xlink:href="#DejaVuSans-64" transform="translate(226.855469 0)"/>
      <use xlink:href="#DejaVuSans-64" transform="translate(290.332031 0)"/>
      <use xlink:href="#DejaVuSans-28" transform="translate(353.808594 0)"/>
      <use xlink:href="#DejaVuSans-64" transform="translate(392.822266 0)"/>
      <use xlink:href="#DejaVuSans-29" transform="translate(456.298828 0)"/>
      <use xlink:href="#DejaVuSans-20" transform="translate(495.3125 0)"/>
      <use xlink:href="#DejaVuSans-3d" transform="translate(527.099609 0)"/>
      <use xlink:href="#DejaVuSans-20" transform="translate(610.888672 0)"/>
      <use xlink:href="#DejaVuSans-6c" transform="translate(642.675781 0)"/>
      <use xlink:href="#DejaVuSans-6f" transform="translate(670.458984 0)"/>
      <use xlink:href="#DejaVuSans-67" transform="translate(731.640625 0)"/>
      <use xlink:href="#DejaVuSans-32" transform="translate(795.117188 0)"/>
      <use xlink:href="#DejaVuSans-28" transform="translate(858.740234 0)"/>
      <use xlink:href="#DejaVuSans-31" transform="translate(897.753906 0)"/>
      <use xlink:href="#DejaVuSans-20" transform="translate(961.376953 0)"/>
      <use xlink:href="#DejaVuSans-2b" transform="translate(993.164062 0)"/>
      <use xlink:href="#DejaVuSans-20" transform="translate(1076.953125 0)"/>
      <use xlink:href="#DejaVuSans-32" transform="translate(1108.740234 0)"/>
      <use xlink:href="#DejaVuSans-5e" transform="translate(1172.363281 0)"/>
      <use xlink:href="#DejaVuSans-64" transform="translate(1256.152344 0)"/>
      <use xlink:href="#DejaVuSans-29" transform="translate(1319.628906 0)"/>
     </g>
    </g>
   </g>
   <g id="line2d_25">
    <path d="M 44.059375 234.164837 
L 88.350284 233.840808 
L 119.659375 233.399123 
L 144.095739 232.837646 
L 163.950284 232.165117 
L 180.750284 231.380547 
L 195.259375 230.489514 
L 208.241193 229.476074 
L 220.077557 228.329327 
L 230.768466 227.070266 
L 240.695739 225.673416 
L 249.859375 224.154289 
L 258.259375 222.536356 
L 266.277557 220.760781 
L 273.532102 218.933325 
L 280.40483 216.984262 
L 287.277557 214.798688 
L 293.768466 212.493517 
L 299.877557 210.087918 
L 305.60483 207.604994 
L 311.332102 204.882047 
L 316.677557 202.105996 
L 322.023011 199.085353 
L 327.368466 195.801568 
L 332.332102 192.499753 
L 337.295739 188.93812 
L 342.259375 185.099927 
L 347.223011 180.967936 
L 352.186648 176.524496 
L 356.768466 172.130884 
L 361.350284 167.442282 
L 365.932102 162.444314 
L 370.51392 157.122629 
L 375.095739 151.462994 
L 379.677557 145.451408 
L 384.259375 139.074216 
L 388.841193 132.318229 
L 393.423011 125.170849 
L 398.00483 117.620195 
L 402.586648 109.655229 
L 407.168466 101.265874 
L 412.132102 91.688087 
L 417.095739 81.591829 
L 422.059375 70.969006 
L 427.023011 59.81342 
L 431.986648 48.120857 
L 434.659375 41.601603 
L 434.659375 41.601603 
" clip-path="url(#p580d40dffb)" style="fill: none; stroke: #1f77b4; stroke-width: 2; stroke-linecap: square"/>
   </g>
   <g id="line2d_26">
    <path d="M 44.059375 234.436386 
L 434.659375 234.436386 
" clip-path="url(#p580d40dffb)" style="fill: none; stroke: #b2b2b2; stroke-width: 0.6; stroke-linecap: square"/>
   </g>
   <g id="line2d_27">
    <path d="M 44.059375 41.601603 
L 434.659375 41.601603 
" clip-path="url(#p580d40dffb)" style="fill: none; stroke-dasharray: 0.6,0.99; stroke-dashoffset: 0; stroke: #d9d9d9; stroke-width: 0.6"/>
   </g>
   <g id="patch_3">
    <path d="M 44.059375 244.078125 
L 44.059375 22.318125 
" style="fill: none; stroke: #000000; stroke-width: 0.8; stroke-linejoin: miter; stroke-linecap: square"/>
   </g>
   <g id="patch_4">
    <path d="M 434.659375 244.078125 
L 434.659375 22.318125 
" style="fill: none; stroke: #000000; stroke-width: 0.8; stroke-linejoin: miter; stroke-linecap: square"/>
   </g>
   <g id="patch_5">
    <path d="M 44.059375 244.078125 
L 434.659375 244.078125 
" style="fill: none; stroke: #000000; stroke-width: 0.8; stroke-linejoin: miter; stroke-linecap: square"/>
   </g>
   <g id="patch_6">
    <path d="M 44.059375 22.318125 
L 434.659375 22.318125 
" style="fill: none; stroke: #000000; stroke-width: 0.8; stroke-linejoin: miter; stroke-linecap: square"/>
   </g>
   <g id="patch_7">
    <path d="M 382.329269 64.069665 
Q 407.576054 53.229895 431.795494 42.831218 
" style="fill: none; stroke: #808080; stroke-linecap: round"/>
    <path d="M 427.777362 42.597517 
L 431.795494 42.831218 
L 429.197654 45.905503 
" style="fill: none; stroke: #808080; stroke-linecap: round"/>
   </g>
   <g id="text_15">
    <!-- sb_add(0) = 1 -->
    <g style="fill: #4c4c4c" transform="translate(297.949375 73.696912) scale(0.09 -0.09)">
     <use xlink:href="#DejaVuSans-73"/>
     <use xlink:href="#DejaVuSans-62" transform="translate(52.099609 0)"/>
     <use xlink:href="#DejaVuSans-5f" transform="translate(115.576172 0)"/>
     <use xlink:href="#DejaVuSans-61" transform="translate(165.576172 0)"/>
     <use xlink:href="#DejaVuSans-64" transform="translate(226.855469 0)"/>
     <use xlink:href="#DejaVuSans-64" transform="translate(290.332031 0)"/>
     <use xlink:href="#DejaVuSans-28" transform="translate(353.808594 0)"/>
     <use xlink:href="#DejaVuSans-30" transform="translate(392.822266 0)"/>
     <use xlink:href="#DejaVuSans-29" transform="translate(456.445312 0)"/>
     <use xlink:href="#DejaVuSans-20" transform="translate(495.458984 0)"/>
     <use xlink:href="#DejaVuSans-3d" transform="translate(527.246094 0)"/>
     <use xlink:href="#DejaVuSans-20" transform="translate(611.035156 0)"/>
     <use xlink:href="#DejaVuSans-31" transform="translate(642.822266 0)"/>
    </g>
    <!-- (a + a -&gt; 2a, +1 in log2) -->
    <g style="fill: #4c4c4c" transform="translate(297.949375 84.025255) scale(0.09 -0.09)">
     <defs>
      <path id="DejaVuSans-3e" d="M 678 3150 
L 678 3719 
L 4684 2266 
L 4684 1747 
L 678 294 
L 678 863 
L 3897 2003 
L 678 3150 
z
" transform="scale(0.015625)"/>
      <path id="DejaVuSans-2c" d="M 750 794 
L 1409 794 
L 1409 256 
L 897 -744 
L 494 -744 
L 750 256 
L 750 794 
z
" transform="scale(0.015625)"/>
     </defs>
     <use xlink:href="#DejaVuSans-28"/>
     <use xlink:href="#DejaVuSans-61" transform="translate(39.013672 0)"/>
     <use xlink:href="#DejaVuSans-20" transform="translate(100.292969 0)"/>
     <use xlink:href="#DejaVuSans-2b" transform="translate(132.080078 0)"/>
     <use xlink:href="#DejaVuSans-20" transform="translate(215.869141 0)"/>
     <use xlink:href="#DejaVuSans-61" transform="translate(247.65625 0)"/>
     <use xlink:href="#DejaVuSans-20" transform="translate(308.935547 0)"/>
     <use xlink:href="#DejaVuSans-2d" transform="translate(340.722656 0)"/>
     <use xlink:href="#DejaVuSans-3e" transform="translate(376.806641 0)"/>
     <use xlink:href="#DejaVuSans-20" transform="translate(460.595703 0)"/>
     <use xlink:href="#DejaVuSans-32" transform="translate(492.382812 0)"/>
     <use xlink:href="#DejaVuSans-61" transform="translate(556.005859 0)"/>
     <use xlink:href="#DejaVuSans-2c" transform="translate(617.285156 0)"/>
     <use xlink:href="#DejaVuSans-20" transform="translate(649.072266 0)"/>
     <use xlink:href="#DejaVuSans-2b" transform="translate(680.859375 0)"/>
     <use xlink:href="#DejaVuSans-31" transform="translate(764.648438 0)"/>
     <use xlink:href="#DejaVuSans-20" transform="translate(828.271484 0)"/>
     <use xlink:href="#DejaVuSans-69" transform="translate(860.058594 0)"/>
     <use xlink:href="#DejaVuSans-6e" transform="translate(887.841797 0)"/>
     <use xlink:href="#DejaVuSans-20" transform="translate(951.220703 0)"/>
     <use xlink:href="#DejaVuSans-6c" transform="translate(983.007812 0)"/>
     <use xlink:href="#DejaVuSans-6f" transform="translate(1010.791016 0)"/>
     <use xlink:href="#DejaVuSans-67" transform="translate(1071.972656 0)"/>
     <use xlink:href="#DejaVuSans-32" transform="translate(1135.449219 0)"/>
     <use xlink:href="#DejaVuSans-29" transform="translate(1199.072266 0)"/>
    </g>
   </g>
   <g id="patch_8">
    <path d="M 180.046008 171.764196 
Q 122.6973 202.626922 66.333113 232.959818 
" style="fill: none; stroke: #808080; stroke-linecap: round"/>
    <path d="M 70.356217 232.838851 
L 66.333113 232.959818 
L 68.650201 229.668754 
" style="fill: none; stroke: #808080; stroke-linecap: round"/>
   </g>
   <g id="text_16">
    <!-- as d -&gt; -inf, sb_add -&gt; 0 -->
    <g style="fill: #4c4c4c" transform="translate(141.709375 156.615868) scale(0.09 -0.09)">
     <use xlink:href="#DejaVuSans-61"/>
     <use xlink:href="#DejaVuSans-73" transform="translate(61.279297 0)"/>
     <use xlink:href="#DejaVuSans-20" transform="translate(113.378906 0)"/>
     <use xlink:href="#DejaVuSans-64" transform="translate(145.166016 0)"/>
     <use xlink:href="#DejaVuSans-20" transform="translate(208.642578 0)"/>
     <use xlink:href="#DejaVuSans-2d" transform="translate(240.429688 0)"/>
     <use xlink:href="#DejaVuSans-3e" transform="translate(276.513672 0)"/>
     <use xlink:href="#DejaVuSans-20" transform="translate(360.302734 0)"/>
     <use xlink:href="#DejaVuSans-2d" transform="translate(392.089844 0)"/>
     <use xlink:href="#DejaVuSans-69" transform="translate(428.173828 0)"/>
     <use xlink:href="#DejaVuSans-6e" transform="translate(455.957031 0)"/>
     <use xlink:href="#DejaVuSans-66" transform="translate(519.335938 0)"/>
     <use xlink:href="#DejaVuSans-2c" transform="translate(554.541016 0)"/>
     <use xlink:href="#DejaVuSans-20" transform="translate(586.328125 0)"/>
     <use xlink:href="#DejaVuSans-73" transform="translate(618.115234 0)"/>
     <use xlink:href="#DejaVuSans-62" transform="translate(670.214844 0)"/>
     <use xlink:href="#DejaVuSans-5f" transform="translate(733.691406 0)"/>
     <use xlink:href="#DejaVuSans-61" transform="translate(783.691406 0)"/>
     <use xlink:href="#DejaVuSans-64" transform="translate(844.970703 0)"/>
     <use xlink:href="#DejaVuSans-64" transform="translate(908.447266 0)"/>
     <use xlink:href="#DejaVuSans-20" transform="translate(971.923828 0)"/>
     <use xlink:href="#DejaVuSans-2d" transform="translate(1003.710938 0)"/>
     <use xlink:href="#DejaVuSans-3e" transform="translate(1039.794922 0)"/>
     <use xlink:href="#DejaVuSans-20" transform="translate(1123.583984 0)"/>
     <use xlink:href="#DejaVuSans-30" transform="translate(1155.371094 0)"/>
    </g>
    <!-- (smaller operand vanishes) -->
    <g style="fill: #4c4c4c" transform="translate(141.709375 166.944212) scale(0.09 -0.09)">
     <defs>
      <path id="DejaVuSans-70" d="M 1159 525 
L 1159 -1331 
L 581 -1331 
L 581 3500 
L 1159 3500 
L 1159 2969 
Q 1341 3281 1617 3432 
Q 1894 3584 2278 3584 
Q 2916 3584 3314 3078 
Q 3713 2572 3713 1747 
Q 3713 922 3314 415 
Q 2916 -91 2278 -91 
Q 1894 -91 1617 61 
Q 1341 213 1159 525 
z
M 3116 1747 
Q 3116 2381 2855 2742 
Q 2594 3103 2138 3103 
Q 1681 3103 1420 2742 
Q 1159 2381 1159 1747 
Q 1159 1113 1420 752 
Q 1681 391 2138 391 
Q 2594 391 2855 752 
Q 3116 1113 3116 1747 
z
" transform="scale(0.015625)"/>
      <path id="DejaVuSans-76" d="M 191 3500 
L 800 3500 
L 1894 563 
L 2988 3500 
L 3597 3500 
L 2284 0 
L 1503 0 
L 191 3500 
z
" transform="scale(0.015625)"/>
      <path id="DejaVuSans-68" d="M 3513 2113 
L 3513 0 
L 2938 0 
L 2938 2094 
Q 2938 2591 2744 2837 
Q 2550 3084 2163 3084 
Q 1697 3084 1428 2787 
Q 1159 2491 1159 1978 
L 1159 0 
L 581 0 
L 581 4863 
L 1159 4863 
L 1159 2956 
Q 1366 3272 1645 3428 
Q 1925 3584 2291 3584 
Q 2894 3584 3203 3211 
Q 3513 2838 3513 2113 
z
" transform="scale(0.015625)"/>
     </defs>
     <use xlink:href="#DejaVuSans-28"/>
     <use xlink:href="#DejaVuSans-73" transform="translate(39.013672 0)"/>
     <use xlink:href="#DejaVuSans-6d" transform="translate(91.113281 0)"/>
     <use xlink:href="#DejaVuSans-61" transform="translate(188.525391 0)"/>
     <use xlink:href="#DejaVuSans-6c" transform="translate(249.804688 0)"/>
     <use xlink:href="#DejaVuSans-6c" transform="translate(277.587891 0)"/>
     <use xlink:href="#DejaVuSans-65" transform="translate(305.371094 0)"/>
     <use xlink:href="#DejaVuSans-72" transform="translate(366.894531 0)"/>
     <use xlink:href="#DejaVuSans-20" transform="translate(408.007812 0)"/>
     <use xlink:href="#DejaVuSans-6f" transform="translate(439.794922 0)"/>
     <use xlink:href="#DejaVuSans-70" transform="translate(500.976562 0)"/>
     <use xlink:href="#DejaVuSans-65" transform="translate(564.453125 0)"/>
     <use xlink:href="#DejaVuSans-72" transform="translate(625.976562 0)"/>
     <use xlink:href="#DejaVuSans-61" transform="translate(667.089844 0)"/>
     <use xlink:href="#DejaVuSans-6e" transform="translate(728.369141 0)"/>
     <use xlink:href="#DejaVuSans-64" transform="translate(791.748047 0)"/>
     <use xlink:href="#DejaVuSans-20" transform="translate(855.224609 0)"/>
     <use xlink:href="#DejaVuSans-76" transform="translate(887.011719 0)"/>
     <use xlink:href="#DejaVuSans-61" transform="translate(946.191406 0)"/>
     <use xlink:href="#DejaVuSans-6e" transform="translate(1007.470703 0)"/>
     <use xlink:href="#DejaVuSans-69" transform="translate(1070.849609 0)"/>
     <use xlink:href="#DejaVuSans-73" transform="translate(1098.632812 0)"/>
     <use xlink:href="#DejaVuSans-68" transform="translate(1150.732422 0)"/>
     <use xlink:href="#DejaVuSans-65" transform="translate(1214.111328 0)"/>
     <use xlink:href="#DejaVuSans-73" transform="translate(1275.634766 0)"/>
     <use xlink:href="#DejaVuSans-29" transform="translate(1327.734375 0)"/>
    </g>
   </g>
   <g id="text_17">
    <!-- Log-add correction: sb_add(d) over d in [-10, 0] -->
    <g transform="translate(97.07875 16.318125) scale(0.12 -0.12)">
     <defs>
      <path id="DejaVuSans-74" d="M 1172 4494 
L 1172 3500 
L 2356 3500 
L 2356 3053 
L 1172 3053 
L 1172 1153 
Q 1172 725 1289 603 
Q 1406 481 1766 481 
L 2356 481 
L 2356 0 
L 1766 0 
Q 1100 0 847 248 
Q 594 497 594 1153 
L 594 3053 
L 172 3053 
L 172 3500 
L 594 3500 
L 594 4494 
L 1172 4494 
z
" transform="scale(0.015625)"/>
      <path id="DejaVuSans-3a" d="M 750 794 
L 1409 794 
L 1409 0 
L 750 0 
L 750 794 
z
M 750 3309 
L 1409 3309 
L 1409 2516 
L 750 2516 
L 750 3309 
z
" transform="scale(0.015625)"/>
      <path id="DejaVuSans-5b" d="M 550 4863 
L 1875 4863 
L 1875 4416 
L 1125 4416 
L 1125 -397 
L 1875 -397 
L 1875 -844 
L 550 -844 
L 550 4863 
z
" transform="scale(0.015625)"/>
      <path id="DejaVuSans-5d" d="M 1947 4863 
L 1947 -844 
L 622 -844 
L 622 -397 
L 1369 -397 
L 1369 4416 
L 622 4416 
L 622 4863 
L 1947 4863 
z
" transform="scale(0.015625)"/>
     </defs>
     <use xlink:href="#DejaVuSans-4c"/>
     <use xlink:href="#DejaVuSans-6f" transform="translate(53.962891 0)"/>
     <use xlink:href="#DejaVuSans-67" transform="translate(115.144531 0)"/>
     <use xlink:href="#DejaVuSans-2d" transform="translate(178.621094 0)"/>
     <use xlink:href="#DejaVuSans-61" transform="translate(214.705078 0)"/>
     <use xlink:href="#DejaVuSans-64" transform="translate(275.984375 0)"/>
     <use xlink:href="#DejaVuSans-64" transform="translate(339.460938 0)"/>
     <use xlink:href="#DejaVuSans-20" transform="translate(402.9375 0)"/>
     <use xlink:href="#DejaVuSans-63" transform="translate(434.724609 0)"/>
     <use xlink:href="#DejaVuSans-6f" transform="translate(489.705078 0)"/>
     <use xlink:href="#DejaVuSans-72" transform="translate(550.886719 0)"/>
     <use xlink:href="#DejaVuSans-72" transform="translate(590.25 0)"/>
     <use xlink:href="#DejaVuSans-65" transform="translate(629.113281 0)"/>
     <use xlink:href="#DejaVuSans-63" transform="translate(690.636719 0)"/>
     <use xlink:href="#DejaVuSans-74" transform="translate(745.617188 0)"/>
     <use xlink:href="#DejaVuSans-69" transform="translate(784.826172 0)"/>
     <use xlink:href="#DejaVuSans-6f" transform="translate(812.609375 0)"/>
     <use xlink:href="#DejaVuSans-6e" transform="translate(873.791016 0)"/>
     <use xlink:href="#DejaVuSans-3a" transform="translate(937.169922 0)"/>
     <use xlink:href="#DejaVuSans-20" transform="translate(970.861328 0)"/>
     <use xlink:href="#DejaVuSans-73" transform="translate(1002.648438 0)"/>
     <use xlink:href="#DejaVuSans-62" transform="translate(1054.748047 0)"/>
     <use xlink:href="#DejaVuSans-5f" transform="translate(1118.224609 0)"/>
     <use xlink:href="#DejaVuSans-61" transform="translate(1168.224609 0)"/>
     <use xlink:href="#DejaVuSans-64" transform="translate(1229.503906 0)"/>
     <use xlink:href="#DejaVuSans-64" transform="translate(1292.980469 0)"/>
     <use xlink:href="#DejaVuSans-28" transform="translate(1356.457031 0)"/>
     <use xlink:href="#DejaVuSans-64" transform="translate(1395.470703 0)"/>
     <use xlink:href="#DejaVuSans-29" transform="translate(1458.947266 0)"/>
     <use xlink:href="#DejaVuSans-20" transform="translate(1497.960938 0)"/>
     <use xlink:href="#DejaVuSans-6f" transform="translate(1529.748047 0)"/>
     <use xlink:href="#DejaVuSans-76" transform="translate(1590.929688 0)"/>
     <use xlink:href="#DejaVuSans-65" transform="translate(1650.109375 0)"/>
     <use xlink:href="#DejaVuSans-72" transform="translate(1711.632812 0)"/>
     <use xlink:href="#DejaVuSans-20" transform="translate(1752.746094 0)"/>
     <use xlink:href="#DejaVuSans-64" transform="translate(1784.533203 0)"/>
     <use xlink:href="#DejaVuSans-20" transform="translate(1848.009766 0)"/>
     <use xlink:href="#DejaVuSans-69" transform="translate(1879.796875 0)"/>
     <use xlink:href="#DejaVuSans-6e" transform="translate(1907.580078 0)"/>
     <use xlink:href="#DejaVuSans-20" transform="translate(1970.958984 0)"/>
     <use xlink:href="#DejaVuSans-5b" transform="translate(2002.746094 0)"/>
     <use xlink:href="#DejaVuSans-2d" transform="translate(2041.759766 0)"/>
     <use xlink:href="#DejaVuSans-31" transform="translate(2077.84375 0)"/>
     <use xlink:href="#DejaVuSans-30" transform="translate(2141.466797 0)"/>
     <use xlink:href="#DejaVuSans-2c" transform="translate(2205.089844 0)"/>
     <use xlink:href="#DejaVuSans-20" transform="translate(2236.876953 0)"/>
     <use xlink:href="#DejaVuSans-30" transform="translate(2268.664062 0)"/>
     <use xlink:href="#DejaVuSans-5d" transform="translate(2332.287109 0)"/>
    </g>
   </g>
  </g>
 </g>
 <defs>
  <clipPath id="p580d40dffb">
   <rect x="44.059375" y="22.318125" width="390.6" height="221.76"/>
  </clipPath>
 </defs>
</svg>
