<?xml version="1.0" encoding="utf-8" standalone="no"?>
<!DOCTYPE svg PUBLIC "-//W3C//DTD SVG 1.1//EN"
  "http://www.w3.org/Graphics/SVG/1.1/DTD/svg11.dtd">
<svg xmlns:xlink="http://www.w3.org/1999/xlink" width="512.123438pt" height="475.674375pt" viewBox="0 0 512.123438 475.674375" xmlns="http://www.w3.org/2000/svg" version="1.1">
 <metadata>
  <rdf:RDF xmlns:dc="http://purl.org/dc/elements/1.1/" xmlns:cc="http://creativecommons.org/ns#" xmlns:rdf="http://www.w3.org/1999/02/22-rdf-syntax-ns#">
   <cc:Work>
    <dc:type rdf:resource="http://purl.org/dc/dcmitype/StillImage"/>
    <dc:date>2026-05-20T07:54:22.036430</dc:date>
    <dc:format>image/svg+xml</dc:format>
    <dc:creator>
     <cc:Agent>
      <dc:title>Matplotlib v3.10.3, https://matplotlib.org/</dc:title>
     </cc:Agent>
    </dc:creator>
   </cc:Work>
  </rdf:RDF>
 </metadata>
 <defs>
  <style type="text/css">*{stroke-linejoin: round; stroke-linecap: butt}</style>
 </defs>
 <g id="figure_1">
  <g id="patch_1">
   <path d="M 0 475.674375 
L 512.123438 475.674375 
L 512.123438 0 
L 0 0 
z
" style="fill: #ffffff"/>
  </g>
  <g id="axes_1">
   <g id="patch_2">
    <path d="M 58.523438 211.318125 
L 504.923437 211.318125 
L 504.923437 22.318125 
L 58.523438 22.318125 
z
" style="fill: #ffffff"/>
   </g>
   <g id="matplotlib.axis_1">
    <g id="xtick_1">
     <g id="line2d_1">
      <path d="M 78.814347 211.318125 
L 78.814347 22.318125 
" clip-path="url(#pe8c9723a12)" style="fill: none; stroke: #b0b0b0; stroke-opacity: 0.3; stroke-width: 0.8; stroke-linecap: square"/>
     </g>
     <g id="line2d_2">
      <defs>
       <path id="m46df765d2d" d="M 0 0 
L 0 3.5 
" style="stroke: #000000; stroke-width: 0.8"/>
      </defs>
      <g>
       <use xlink:href="#m46df765d2d" x="78.814347" y="211.318125" style="stroke: #000000; stroke-width: 0.8"/>
      </g>
     </g>
    </g>
    <g id="xtick_2">
     <g id="line2d_3">
      <path d="M 146.461985 211.318125 
L 146.461985 22.318125 
" clip-path="url(#pe8c9723a12)" style="fill: none; stroke: #b0b0b0; stroke-opacity: 0.3; stroke-width: 0.8; stroke-linecap: square"/>
     </g>
     <g id="line2d_4">
      <g>
       <use xlink:href="#m46df765d2d" x="146.461985" y="211.318125" style="stroke: #000000; stroke-width: 0.8"/>
      </g>
     </g>
    </g>
    <g id="xtick_3">
     <g id="line2d_5">
      <path d="M 214.109623 211.318125 
L 214.109623 22.318125 
" clip-path="url(#pe8c9723a12)" style="fill: none; stroke: #b0b0b0; stroke-opacity: 0.3; stroke-width: 0.8; stroke-linecap: square"/>
     </g>
     <g id="line2d_6">
      <g>
       <use xlink:href="#m46df765d2d" x="214.109623" y="211.318125" style="stroke: #000000; stroke-width: 0.8"/>
      </g>
     </g>
    </g>
    <g id="xtick_4">
     <g id="line2d_7">
      <path d="M 281.757261 211.318125 
L 281.757261 22.318125 
" clip-path="url(#pe8c9723a12)" style="fill: none; stroke: #b0b0b0; stroke-opacity: 0.3; stroke-width: 0.8; stroke-linecap: square"/>
     </g>
     <g id="line2d_8">
      <g>
       <use xlink:href="#m46df765d2d" x="281.757261" y="211.318125" style="stroke: #000000; stroke-width: 0.8"/>
      </g>
     </g>
    </g>
    <g id="xtick_5">
     <g id="line2d_9">
      <path d="M 349.4049 211.318125 
L 349.4049 22.318125 
" clip-path="url(#pe8c9723a12)" style="fill: none; stroke: #b0b0b0; stroke-opacity: 0.3; stroke-width: 0.8; stroke-linecap: square"/>
     </g>
     <g id="line2d_10">
      <g>
       <use xlink:href="#m46df765d2d" x="349.4049" y="211.318125" style="stroke: #000000; stroke-width: 0.8"/>
      </g>
     </g>
    </g>
    <g id="xtick_6">
     <g id="line2d_11">
      <path d="M 417.052538 211.318125 
L 417.052538 22.318125 
" clip-path="url(#pe8c9723a12)" style="fill: none; stroke: #b0b0b0; stroke-opacity: 0.3; stroke-width: 0.8; stroke-linecap: square"/>
     </g>
     <g id="line2d_12">
      <g>
       <use xlink:href="#m46df765d2d" x="417.052538" y="211.318125" style="stroke: #000000; stroke-width: 0.8"/>
      </g>
     </g>
    </g>
    <g id="xtick_7">
     <g id="line2d_13">
      <path d="M 484.700176 211.318125 
L 484.700176 22.318125 
" clip-path="url(#pe8c9723a12)" style="fill: none; stroke: #b0b0b0; stroke-opacity: 0.3; stroke-width: 0.8; stroke-linecap: square"/>
     </g>
     <g id="line2d_14">
      <g>
       <use xlink:href="#m46df765d2d" x="484.700176" y="211.318125" style="stroke: #000000; stroke-width: 0.8"/>
      </g>
     </g>
    </g>
   </g>
   <g id="matplotlib.axis_2">
    <g id="ytick_1">
     <g id="line2d_15">
      <path d="M 58.523438 211.318125 
L 504.923437 211.318125 
" clip-path="url(#pe8c9723a12)" style="fill: none; stroke: #b0b0b0; stroke-opacity: 0.3; stroke-width: 0.8; stroke-linecap: square"/>
     </g>
     <g id="line2d_16">
      <defs>
       <path id="mbd6a5fef3d" d="M 0 0 
L -3.5 0 
" style="stroke: #000000; stroke-width: 0.8"/>
      </defs>
      <g>
       <use xlink:href="#mbd6a5fef3d" x="58.523438" y="211.318125" style="stroke: #000000; stroke-width: 0.8"/>
      </g>
     </g>
     <g id="text_1">
      <!-- −12 -->
      <g transform="translate(30.41875 215.117344) scale(0.1 -0.1)">
       <defs>
        <path id="DejaVuSans-2212" d="M 678 2272 
L 4684 2272 
L 4684 1741 
L 678 1741 
L 678 2272 
z
" transform="scale(0.015625)"/>
        <path id="DejaVuSans-31" d="M 794 531 
L 1825 531 
L 1825 4091 
L 703 3866 
L 703 4441 
L 1819 4666 
L 2450 4666 
L 2450 531 
L 3481 531 
L 3481 0 
L 794 0 
L 794 531 
z
" transform="scale(0.015625)"/>
        <path id="DejaVuSans-32" d="M 1228 531 
L 3431 531 
L 3431 0 
L 469 0 
L 469 531 
Q 828 903 1448 1529 
Q 2069 2156 2228 2338 
Q 2531 2678 2651 2914 
Q 2772 3150 2772 3378 
Q 2772 3750 2511 3984 
Q 2250 4219 1831 4219 
Q 1534 4219 1204 4116 
Q 875 4013 500 3803 
L 500 4441 
Q 881 4594 1212 4672 
Q 1544 4750 1819 4750 
Q 2544 4750 2975 4387 
Q 3406 4025 3406 3419 
Q 3406 3131 3298 2873 
Q 3191 2616 2906 2266 
Q 2828 2175 2409 1742 
Q 1991 1309 1228 531 
z
" transform="scale(0.015625)"/>
       </defs>
       <use xlink:href="#DejaVuSans-2212"/>
       <use xlink:href="#DejaVuSans-31" transform="translate(83.789062 0)"/>
       <use xlink:href="#DejaVuSans-32" transform="translate(147.412109 0)"/>
      </g>
     </g>
    </g>
    <g id="ytick_2">
     <g id="line2d_17">
      <path d="M 58.523438 181.078125 
L 504.923437 181.078125 
" clip-path="url(#pe8c9723a12)" style="fill: none; stroke: #b0b0b0; stroke-opacity: 0.3; stroke-width: 0.8; stroke-linecap: square"/>
     </g>
     <g id="line2d_18">
      <g>
       <use xlink:href="#mbd6a5fef3d" x="58.523438" y="181.078125" style="stroke: #000000; stroke-width: 0.8"/>
      </g>
     </g>
     <g id="text_2">
      <!-- −10 -->
      <g transform="translate(30.41875 184.877344) scale(0.1 -0.1)">
       <defs>
        <path id="DejaVuSans-30" d="M 2034 4250 
Q 1547 4250 1301 3770 
Q 1056 3291 1056 2328 
Q 1056 1369 1301 889 
Q 1547 409 2034 409 
Q 2525 409 2770 889 
Q 3016 1369 3016 2328 
Q 3016 3291 2770 3770 
Q 2525 4250 2034 4250 
z
M 2034 4750 
Q 2819 4750 3233 4129 
Q 3647 3509 3647 2328 
Q 3647 1150 3233 529 
Q 2819 -91 2034 -91 
Q 1250 -91 836 529 
Q 422 1150 422 2328 
Q 422 3509 836 4129 
Q 1250 4750 2034 4750 
z
" transform="scale(0.015625)"/>
       </defs>
       <use xlink:href="#DejaVuSans-2212"/>
       <use xlink:href="#DejaVuSans-31" transform="translate(83.789062 0)"/>
       <use xlink:href="#DejaVuSans-30" transform="translate(147.412109 0)"/>
      </g>
     </g>
    </g>
    <g id="ytick_3">
     <g id="line2d_19">
      <path d="M 58.523438 150.838125 
L 504.923437 150.838125 
" clip-path="url(#pe8c9723a12)" style="fill: none; stroke: #b0b0b0; stroke-opacity: 0.3; stroke-width: 0.8; stroke-linecap: square"/>
     </g>
     <g id="line2d_20">
      <g>
       <use xlink:href="#mbd6a5fef3d" x="58.523438" y="150.838125" style="stroke: #000000; stroke-width: 0.8"/>
      </g>
     </g>
     <g id="text_3">
      <!-- −8 -->
      <g transform="translate(36.78125 154.637344) scale(0.1 -0.1)">
       <defs>
        <path id="DejaVuSans-38" d="M 2034 2216 
Q 1584 2216 1326 1975 
Q 1069 1734 1069 1313 
Q 1069 891 1326 650 
Q 1584 409 2034 409 
Q 2484 409 2743 651 
Q 3003 894 3003 1313 
Q 3003 1734 2745 1975 
Q 2488 2216 2034 2216 
z
M 1403 2484 
Q 997 2584 770 2862 
Q 544 3141 544 3541 
Q 544 4100 942 4425 
Q 1341 4750 2034 4750 
Q 2731 4750 3128 4425 
Q 3525 4100 3525 3541 
Q 3525 3141 3298 2862 
Q 3072 2584 2669 2484 
Q 3125 2378 3379 2068 
Q 3634 1759 3634 1313 
Q 3634 634 3220 271 
Q 2806 -91 2034 -91 
Q 1263 -91 848 271 
Q 434 634 434 1313 
Q 434 1759 690 2068 
Q 947 2378 1403 2484 
z
M 1172 3481 
Q 1172 3119 1398 2916 
Q 1625 2713 2034 2713 
Q 2441 2713 2670 2916 
Q 2900 3119 2900 3481 
Q 2900 3844 2670 4047 
Q 2441 4250 2034 4250 
Q 1625 4250 1398 4047 
Q 1172 3844 1172 3481 
z
" transform="scale(0.015625)"/>
       </defs>
       <use xlink:href="#DejaVuSans-2212"/>
       <use xlink:href="#DejaVuSans-38" transform="translate(83.789062 0)"/>
      </g>
     </g>
    </g>
    <g id="ytick_4">
     <g id="line2d_21">
      <path d="M 58.523438 120.598125 
L 504.923437 120.598125 
" clip-path="url(#pe8c9723a12)" style="fill: none; stroke: #b0b0b0; stroke-opacity: 0.3; stroke-width: 0.8; stroke-linecap: square"/>
     </g>
     <g id="line2d_22">
      <g>
       <use xlink:href="#mbd6a5fef3d" x="58.523438" y="120.598125" style="stroke: #000000; stroke-width: 0.8"/>
      </g>
     </g>
     <g id="text_4">
      <!-- −6 -->
      <g transform="translate(36.78125 124.397344) scale(0.1 -0.1)">
       <defs>
        <path id="DejaVuSans-36" d="M 2113 2584 
Q 1688 2584 1439 2293 
Q 1191 2003 1191 1497 
Q 1191 994 1439 701 
Q 1688 409 2113 409 
Q 2538 409 2786 701 
Q 3034 994 3034 1497 
Q 3034 2003 2786 2293 
Q 2538 2584 2113 2584 
z
M 3366 4563 
L 3366 3988 
Q 3128 4100 2886 4159 
Q 2644 4219 2406 4219 
Q 1781 4219 1451 3797 
Q 1122 3375 1075 2522 
Q 1259 2794 1537 2939 
Q 1816 3084 2150 3084 
Q 2853 3084 3261 2657 
Q 3669 2231 3669 1497 
Q 3669 778 3244 343 
Q 2819 -91 2113 -91 
Q 1303 -91 875 529 
Q 447 1150 447 2328 
Q 447 3434 972 4092 
Q 1497 4750 2381 4750 
Q 2619 4750 2861 4703 
Q 3103 4656 3366 4563 
z
" transform="scale(0.015625)"/>
       </defs>
       <use xlink:href="#DejaVuSans-2212"/>
       <use xlink:href="#DejaVuSans-36" transform="translate(83.789062 0)"/>
      </g>
     </g>
    </g>
    <g id="ytick_5">
     <g id="line2d_23">
      <path d="M 58.523438 90.358125 
L 504.923437 90.358125 
" clip-path="url(#pe8c9723a12)" style="fill: none; stroke: #b0b0b0; stroke-opacity: 0.3; stroke-width: 0.8; stroke-linecap: square"/>
     </g>
     <g id="line2d_24">
      <g>
       <use xlink:href="#mbd6a5fef3d" x="58.523438" y="90.358125" style="stroke: #000000; stroke-width: 0.8"/>
      </g>
     </g>
     <g id="text_5">
      <!-- −4 -->
      <g transform="translate(36.78125 94.157344) scale(0.1 -0.1)">
       <defs>
        <path id="DejaVuSans-34" d="M 2419 4116 
L 825 1625 
L 2419 1625 
L 2419 4116 
z
M 2253 4666 
L 3047 4666 
L 3047 1625 
L 3713 1625 
L 3713 1100 
L 3047 1100 
L 3047 0 
L 2419 0 
L 2419 1100 
L 313 1100 
L 313 1709 
L 2253 4666 
z
" transform="scale(0.015625)"/>
       </defs>
       <use xlink:href="#DejaVuSans-2212"/>
       <use xlink:href="#DejaVuSans-34" transform="translate(83.789062 0)"/>
      </g>
     </g>
    </g>
    <g id="ytick_6">
     <g id="line2d_25">
      <path d="M 58.523438 60.118125 
L 504.923437 60.118125 
" clip-path="url(#pe8c9723a12)" style="fill: none; stroke: #b0b0b0; stroke-opacity: 0.3; stroke-width: 0.8; stroke-linecap: square"/>
     </g>
     <g id="line2d_26">
      <g>
       <use xlink:href="#mbd6a5fef3d" x="58.523438" y="60.118125" style="stroke: #000000; stroke-width: 0.8"/>
      </g>
     </g>
     <g id="text_6">
      <!-- −2 -->
      <g transform="translate(36.78125 63.917344) scale(0.1 -0.1)">
       <use xlink:href="#DejaVuSans-2212"/>
       <use xlink:href="#DejaVuSans-32" transform="translate(83.789062 0)"/>
      </g>
     </g>
    </g>
    <g id="ytick_7">
     <g id="line2d_27">
      <path d="M 58.523438 29.878125 
L 504.923437 29.878125 
" clip-path="url(#pe8c9723a12)" style="fill: none; stroke: #b0b0b0; stroke-opacity: 0.3; stroke-width: 0.8; stroke-linecap: square"/>
     </g>
     <g id="line2d_28">
      <g>
       <use xlink:href="#mbd6a5fef3d" x="58.523438" y="29.878125" style="stroke: #000000; stroke-width: 0.8"/>
      </g>
     </g>
     <g id="text_7">
      <!-- 0 -->
      <g transform="translate(45.160938 33.677344) scale(0.1 -0.1)">
       <use xlink:href="#DejaVuSans-30"/>
      </g>
     </g>
    </g>
    <g id="text_8">
     <!-- sb_sub(d) -->
     <g transform="translate(24.060938 141.120469) rotate(-90) scale(0.1 -0.1)">
      <defs>
       <path id="DejaVuSans-73" d="M 2834 3397 
L 2834 2853 
Q 2591 2978 2328 3040 
Q 2066 3103 1784 3103 
Q 1356 3103 1142 2972 
Q 928 2841 928 2578 
Q 928 2378 1081 2264 
Q 1234 2150 1697 2047 
L 1894 2003 
Q 2506 1872 2764 1633 
Q 3022 1394 3022 966 
Q 3022 478 2636 193 
Q 2250 -91 1575 -91 
Q 1294 -91 989 -36 
Q 684 19 347 128 
L 347 722 
Q 666 556 975 473 
Q 1284 391 1588 391 
Q 1994 391 2212 530 
Q 2431 669 2431 922 
Q 2431 1156 2273 1281 
Q 2116 1406 1581 1522 
L 1381 1569 
Q 847 1681 609 1914 
Q 372 2147 372 2553 
Q 372 3047 722 3315 
Q 1072 3584 1716 3584 
Q 2034 3584 2315 3537 
Q 2597 3491 2834 3397 
z
" transform="scale(0.015625)"/>
       <path id="DejaVuSans-62" d="M 3116 1747 
Q 3116 2381 2855 2742 
Q 2594 3103 2138 3103 
Q 1681 3103 1420 2742 
Q 1159 2381 1159 1747 
Q 1159 1113 1420 752 
Q 1681 391 2138 391 
Q 2594 391 2855 752 
Q 3116 1113 3116 1747 
z
M 1159 2969 
Q 1341 3281 1617 3432 
Q 1894 3584 2278 3584 
Q 2916 3584 3314 3078 
Q 3713 2572 3713 1747 
Q 3713 922 3314 415 
Q 2916 -91 2278 -91 
Q 1894 -91 1617 61 
Q 1341 213 1159 525 
L 1159 0 
L 581 0 
L 581 4863 
L 1159 4863 
L 1159 2969 
z
" transform="scale(0.015625)"/>
       <path id="DejaVuSans-5f" d="M 3263 -1063 
L 3263 -1509 
L -63 -1509 
L -63 -1063 
L 3263 -1063 
z
" transform="scale(0.015625)"/>
       <path id="DejaVuSans-75" d="M 544 1381 
L 544 3500 
L 1119 3500 
L 1119 1403 
Q 1119 906 1312 657 
Q 1506 409 1894 409 
Q 2359 409 2629 706 
Q 2900 1003 2900 1516 
L 2900 3500 
L 3475 3500 
L 3475 0 
L 2900 0 
L 2900 538 
Q 2691 219 2414 64 
Q 2138 -91 1772 -91 
Q 1169 -91 856 284 
Q 544 659 544 1381 
z
M 1991 3584 
L 1991 3584 
z
" transform="scale(0.015625)"/>
       <path id="DejaVuSans-28" d="M 1984 4856 
Q 1566 4138 1362 3434 
Q 1159 2731 1159 2009 
Q 1159 1288 1364 580 
Q 1569 -128 1984 -844 
L 1484 -844 
Q 1016 -109 783 600 
Q 550 1309 550 2009 
Q 550 2706 781 3412 
Q 1013 4119 1484 4856 
L 1984 4856 
z
" transform="scale(0.015625)"/>
       <path id="DejaVuSans-64" d="M 2906 2969 
L 2906 4863 
L 3481 4863 
L 3481 0 
L 2906 0 
L 2906 525 
Q 2725 213 2448 61 
Q 2172 -91 1784 -91 
Q 1150 -91 751 415 
Q 353 922 353 1747 
Q 353 2572 751 3078 
Q 1150 3584 1784 3584 
Q 2172 3584 2448 3432 
Q 2725 3281 2906 2969 
z
M 947 1747 
Q 947 1113 1208 752 
Q 1469 391 1925 391 
Q 2381 391 2643 752 
Q 2906 1113 2906 1747 
Q 2906 2381 2643 2742 
Q 2381 3103 1925 3103 
Q 1469 3103 1208 2742 
Q 947 2381 947 1747 
z
" transform="scale(0.015625)"/>
       <path id="DejaVuSans-29" d="M 513 4856 
L 1013 4856 
Q 1481 4119 1714 3412 
Q 1947 2706 1947 2009 
Q 1947 1309 1714 600 
Q 1481 -109 1013 -844 
L 513 -844 
Q 928 -128 1133 580 
Q 1338 1288 1338 2009 
Q 1338 2731 1133 3434 
Q 928 4138 513 4856 
z
" transform="scale(0.015625)"/>
      </defs>
      <use xlink:href="#DejaVuSans-73"/>
      <use xlink:href="#DejaVuSans-62" transform="translate(52.099609 0)"/>
      <use xlink:href="#DejaVuSans-5f" transform="translate(115.576172 0)"/>
      <use xlink:href="#DejaVuSans-73" transform="translate(165.576172 0)"/>
      <use xlink:href="#DejaVuSans-75" transform="translate(217.675781 0)"/>
      <use xlink:href="#DejaVuSans-62" transform="translate(281.054688 0)"/>
      <use xlink:href="#DejaVuSans-28" transform="translate(344.53125 0)"/>
      <use xlink:href="#DejaVuSans-64" transform="translate(383.544922 0)"/>
      <use xlink:href="#DejaVuSans-29" transform="translate(447.021484 0)"/>
     </g>
    </g>
   </g>
   <g id="line2d_29">
    <path d="M 78.814347 30.221653 
L 147.045752 30.574899 
L 195.83914 31.039062 
L 233.921785 31.615736 
L 264.863933 32.301155 
L 290.649057 33.090215 
L 312.467239 33.974867 
L 331.111867 34.944816 
L 347.37633 36.004426 
L 361.657322 37.14847 
L 374.351537 38.381236 
L 385.458975 39.672134 
L 395.37633 41.036177 
L 404.500297 42.512625 
L 412.434181 44.01252 
L 419.574677 45.576807 
L 425.921785 47.178829 
L 431.872198 48.905099 
L 437.029223 50.61867 
L 441.789553 52.422524 
L 446.15319 54.308001 
L 450.120132 56.261267 
L 453.69038 58.261676 
L 456.863933 60.279892 
L 459.640793 62.275959 
L 462.417652 64.540069 
L 464.797818 66.747801 
L 467.177983 69.268691 
L 469.161454 71.673812 
L 471.144925 74.436535 
L 472.731702 76.97881 
L 474.318479 79.90744 
L 475.905256 83.351226 
L 477.095338 86.391556 
L 478.285421 89.972462 
L 479.475504 94.317115 
L 480.665586 99.823698 
L 481.458975 104.51189 
L 482.252363 110.54779 
L 483.045752 119.004712 
L 483.442446 124.940554 
L 483.83914 133.162057 
L 484.235834 146.587976 
L 484.632528 188.563291 
L 484.632528 188.563291 
" clip-path="url(#pe8c9723a12)" style="fill: none; stroke-dasharray: 1.6,1.6; stroke-dashoffset: 1.6; stroke: #7f7f7f; stroke-width: 1.6"/>
   </g>
   <g id="line2d_30">
    <path d="M 78.814347 30.221653 
L 147.045752 30.574899 
L 195.83914 31.039062 
L 233.921785 31.615736 
L 264.863933 32.301155 
L 290.649057 33.090215 
L 312.467239 33.974867 
L 331.111867 34.944816 
L 347.37633 36.004426 
L 361.657322 37.14847 
L 374.351537 38.381236 
L 385.458975 39.672134 
L 395.37633 41.036177 
L 404.500297 42.512625 
L 412.434181 44.01252 
L 419.574677 45.576807 
L 425.921785 47.178829 
L 431.872198 48.905099 
L 437.029223 50.61867 
L 441.789553 52.422524 
L 446.15319 54.308001 
L 450.120132 56.261267 
L 453.69038 58.261676 
L 456.863933 60.279892 
L 459.640793 62.275959 
L 462.417652 64.540069 
L 464.797818 66.747801 
L 467.177983 69.268691 
L 469.161454 71.673812 
L 471.144925 74.436535 
L 472.731702 76.97881 
L 474.318479 79.90744 
L 475.905256 83.351226 
L 477.095338 86.391556 
L 478.285421 89.972462 
L 479.475504 94.317115 
L 480.665586 99.823698 
L 481.458975 104.51189 
L 482.252363 110.54779 
L 483.045752 119.004712 
L 483.442446 124.940554 
L 483.83914 133.162057 
L 484.235834 146.587976 
L 484.632528 188.563291 
L 484.632528 188.563291 
" clip-path="url(#pe8c9723a12)" style="fill: none; stroke: #1f77b4; stroke-width: 1.6; stroke-linecap: square"/>
   </g>
   <g id="line2d_31">
    <path d="M 78.814347 30.221658 
L 146.649057 30.572038 
L 195.442446 31.034244 
L 233.52509 31.608425 
L 264.467239 32.290797 
L 290.252363 33.076255 
L 312.070545 33.956651 
L 330.715173 34.921825 
L 346.979636 35.975857 
L 361.657322 37.148693 
L 374.351537 38.38142 
L 385.855669 39.7227 
L 396.169718 41.155866 
L 404.896991 42.582671 
L 413.22757 44.175719 
L 420.368066 45.765568 
L 427.111867 47.506263 
L 432.665586 49.155448 
L 437.822611 50.904908 
L 442.186247 52.585591 
L 446.549884 54.492996 
L 450.516826 56.473718 
L 454.087074 58.50367 
L 457.260628 60.552137 
L 460.434181 62.899068 
L 462.814347 64.896927 
L 464.797818 66.755469 
L 467.177983 69.278656 
L 469.161454 71.677652 
L 471.541619 75.046312 
L 473.52509 78.417238 
L 474.715173 80.750199 
L 475.905256 83.398115 
L 477.095338 86.45409 
L 477.888727 88.777108 
L 479.078809 92.868624 
L 480.268892 97.993263 
L 481.06228 102.092197 
L 482.252363 110.659282 
L 483.442446 125.291789 
L 483.83914 133.162057 
L 484.235834 146.587976 
L 484.632528 188.563291 
L 484.632528 188.563291 
" clip-path="url(#pe8c9723a12)" style="fill: none; stroke-dasharray: 5.92,2.56; stroke-dashoffset: 0; stroke: #ff7f0e; stroke-width: 1.6"/>
   </g>
   <g id="line2d_32">
    <path d="M 78.814347 30.221653 
L 147.045752 30.574899 
L 195.83914 31.039062 
L 233.921785 31.615736 
L 264.863933 32.301155 
L 290.649057 33.090215 
L 312.467239 33.974867 
L 331.111867 34.944816 
L 347.37633 36.004426 
L 361.657322 37.14847 
L 374.351537 38.381234 
L 385.458975 39.672128 
L 395.37633 41.036158 
L 404.500297 42.512566 
L 412.434181 44.012367 
L 419.574677 45.576807 
L 425.921785 47.178829 
L 431.872198 48.905099 
L 437.029223 50.61867 
L 441.789553 52.422524 
L 446.15319 54.308001 
L 450.120132 56.261267 
L 453.69038 58.261676 
L 456.863933 60.279892 
L 459.640793 62.275959 
L 462.417652 64.540069 
L 464.797818 66.747801 
L 467.177983 69.268691 
L 469.161454 71.673812 
L 471.144925 74.436535 
L 472.731702 76.97881 
L 474.318479 79.90744 
L 475.905256 83.351226 
L 477.095338 86.391556 
L 478.285421 89.972462 
L 479.475504 94.317115 
L 480.665586 99.823698 
L 481.458975 104.51189 
L 482.252363 110.54779 
L 483.045752 119.004712 
L 483.442446 124.940554 
L 483.83914 133.162057 
L 484.235834 146.587976 
L 484.632528 188.563291 
L 484.632528 188.563291 
" clip-path="url(#pe8c9723a12)" style="fill: none; stroke-dasharray: 10.24,2.56,1.6,2.56; stroke-dashoffset: 0; stroke: #2ca02c; stroke-width: 1.6"/>
   </g>
   <g id="line2d_33">
    <path d="M 78.814347 29.878125 
L 79.211041 30.223699 
L 166.880462 30.786569 
L 223.607735 31.497247 
L 285.492033 32.976564 
L 350.549884 36.303194 
L 417.9879 45.209212 
L 424.731702 46.861178 
L 430.682115 48.540072 
L 436.235834 50.340031 
L 440.996165 52.105018 
L 445.359801 53.946369 
L 449.326743 55.849823 
L 452.896991 57.794513 
L 456.070545 59.751255 
L 459.244099 61.975775 
L 462.020958 64.197772 
L 464.401123 66.360102 
L 466.781289 68.823342 
L 468.76476 71.167057 
L 470.748231 73.850616 
L 472.335008 76.310937 
L 473.921785 79.132986 
L 475.508561 82.432523 
L 476.698644 85.326113 
L 477.888727 88.707391 
L 479.078809 92.764663 
L 480.268892 97.821932 
L 481.06228 102.037341 
L 481.855669 107.315639 
L 482.649057 114.360472 
L 483.442446 124.940554 
L 483.83914 133.162057 
L 484.235834 146.587976 
L 484.632528 188.563291 
L 484.632528 188.563291 
" clip-path="url(#pe8c9723a12)" style="fill: none; stroke-dasharray: 1.6,2.64; stroke-dashoffset: 0; stroke: #d62728; stroke-width: 1.6"/>
   </g>
   <g id="line2d_34">
    <path d="M 78.814347 30.221846 
L 143.475504 30.54937 
L 190.285421 30.972849 
L 242.649057 31.785013 
L 284.30195 32.874031 
L 301.756495 33.511783 
L 321.591206 34.421234 
L 337.06228 35.306059 
L 353.326743 36.45383 
L 365.624264 37.50964 
L 377.921785 38.772578 
L 387.83914 39.97893 
L 398.549884 41.522809 
L 406.880462 42.939523 
L 414.814347 44.508777 
L 421.954842 46.151808 
L 428.30195 47.840539 
L 433.855669 49.537745 
L 439.012694 51.341639 
L 443.773024 53.249021 
L 448.136661 55.252863 
L 451.706909 57.1188 
L 455.277157 59.239256 
L 458.45071 61.391048 
L 461.22757 63.532887 
L 464.004429 65.980704 
L 466.384595 68.388656 
L 468.368066 70.673794 
L 470.351537 73.28231 
L 472.335008 76.310937 
L 473.921785 79.132986 
L 475.508561 82.432523 
L 476.698644 85.326113 
L 477.888727 88.707391 
L 479.078809 92.764663 
L 480.268892 97.821932 
L 481.06228 102.037341 
L 481.855669 107.315639 
L 482.649057 114.360472 
L 483.442446 124.940554 
L 483.83914 133.162057 
L 484.235834 146.587976 
L 484.632528 188.563291 
L 484.632528 188.563291 
" clip-path="url(#pe8c9723a12)" style="fill: none; stroke-dasharray: 4.8,1.6,1.6,1.6; stroke-dashoffset: 0; stroke: #9467bd; stroke-width: 1.6"/>
   </g>
   <g id="line2d_35">
    <path d="M 78.814347 30.221653 
L 147.045752 30.574902 
L 195.83914 31.039064 
L 233.921785 31.615741 
L 264.467239 32.29077 
L 290.252363 33.076183 
L 312.070545 33.956591 
L 330.715173 34.921712 
L 346.979636 35.97572 
L 361.657322 37.148473 
L 374.351537 38.381244 
L 385.458975 39.67218 
L 395.37633 41.036111 
L 404.500297 42.512698 
L 412.434181 44.012559 
L 419.574677 45.576705 
L 426.318479 47.286706 
L 432.268892 49.029027 
L 437.425917 50.760038 
L 442.186247 52.583945 
L 446.549884 54.492417 
L 450.516826 56.471385 
L 454.087074 58.500207 
L 457.260628 60.550751 
L 460.037487 62.581448 
L 462.814347 64.888928 
L 465.194512 67.143912 
L 467.574677 69.725099 
L 469.558148 72.195255 
L 471.541619 75.0408 
L 473.128396 77.669808 
L 474.715173 80.714406 
L 476.30195 84.314493 
L 477.492033 87.516783 
L 478.682115 91.321792 
L 479.872198 95.996853 
L 480.665586 99.821714 
L 481.458975 104.512067 
L 482.252363 110.551414 
L 483.045752 119.001667 
L 483.442446 124.9489 
L 483.83914 133.166187 
L 484.235834 146.580591 
L 484.632528 188.409447 
L 484.632528 188.409447 
" clip-path="url(#pe8c9723a12)" style="fill: none; stroke-dasharray: 8,1.6; stroke-dashoffset: 0; stroke: #8c564b; stroke-width: 1.6"/>
   </g>
   <g id="patch_3">
    <path d="M 58.523438 211.318125 
L 58.523438 22.318125 
" style="fill: none; stroke: #000000; stroke-width: 0.8; stroke-linejoin: miter; stroke-linecap: square"/>
   </g>
   <g id="patch_4">
    <path d="M 504.923437 211.318125 
L 504.923437 22.318125 
" style="fill: none; stroke: #000000; stroke-width: 0.8; stroke-linejoin: miter; stroke-linecap: square"/>
   </g>
   <g id="patch_5">
    <path d="M 58.523438 211.318125 
L 504.923438 211.318125 
" style="fill: none; stroke: #000000; stroke-width: 0.8; stroke-linejoin: miter; stroke-linecap: square"/>
   </g>
   <g id="patch_6">
    <path d="M 58.523438 22.318125 
L 504.923438 22.318125 
" style="fill: none; stroke: #000000; stroke-width: 0.8; stroke-linejoin: miter; stroke-linecap: square"/>
   </g>
   <g id="text_9">
    <!-- sb_sub(d) per algorithm  (rbits = 16) -->
    <g transform="translate(171.430313 16.318125) scale(0.12 -0.12)">
     <defs>
      <path id="DejaVuSans-20" transform="scale(0.015625)"/>
      <path id="DejaVuSans-70" d="M 1159 525 
L 1159 -1331 
L 581 -1331 
L 581 3500 
L 1159 3500 
L 1159 2969 
Q 1341 3281 1617 3432 
Q 1894 3584 2278 3584 
Q 2916 3584 3314 3078 
Q 3713 2572 3713 1747 
Q 3713 922 3314 415 
Q 2916 -91 2278 -91 
Q 1894 -91 1617 61 
Q 1341 213 1159 525 
z
M 3116 1747 
Q 3116 2381 2855 2742 
Q 2594 3103 2138 3103 
Q 1681 3103 1420 2742 
Q 1159 2381 1159 1747 
Q 1159 1113 1420 752 
Q 1681 391 2138 391 
Q 2594 391 2855 752 
Q 3116 1113 3116 1747 
z
" transform="scale(0.015625)"/>
      <path id="DejaVuSans-65" d="M 3597 1894 
L 3597 1613 
L 953 1613 
Q 991 1019 1311 708 
Q 1631 397 2203 397 
Q 2534 397 2845 478 
Q 3156 559 3463 722 
L 3463 178 
Q 3153 47 2828 -22 
Q 2503 -91 2169 -91 
Q 1331 -91 842 396 
Q 353 884 353 1716 
Q 353 2575 817 3079 
Q 1281 3584 2069 3584 
Q 2775 3584 3186 3129 
Q 3597 2675 3597 1894 
z
M 3022 2063 
Q 3016 2534 2758 2815 
Q 2500 3097 2075 3097 
Q 1594 3097 1305 2825 
Q 1016 2553 972 2059 
L 3022 2063 
z
" transform="scale(0.015625)"/>
      <path id="DejaVuSans-72" d="M 2631 2963 
Q 2534 3019 2420 3045 
Q 2306 3072 2169 3072 
Q 1681 3072 1420 2755 
Q 1159 2438 1159 1844 
L 1159 0 
L 581 0 
L 581 3500 
L 1159 3500 
L 1159 2956 
Q 1341 3275 1631 3429 
Q 1922 3584 2338 3584 
Q 2397 3584 2469 3576 
Q 2541 3569 2628 3553 
L 2631 2963 
z
" transform="scale(0.015625)"/>
      <path id="DejaVuSans-61" d="M 2194 1759 
Q 1497 1759 1228 1600 
Q 959 1441 959 1056 
Q 959 750 1161 570 
Q 1363 391 1709 391 
Q 2188 391 2477 730 
Q 2766 1069 2766 1631 
L 2766 1759 
L 2194 1759 
z
M 3341 1997 
L 3341 0 
L 2766 0 
L 2766 531 
Q 2569 213 2275 61 
Q 1981 -91 1556 -91 
Q 1019 -91 701 211 
Q 384 513 384 1019 
Q 384 1609 779 1909 
Q 1175 2209 1959 2209 
L 2766 2209 
L 2766 2266 
Q 2766 2663 2505 2880 
Q 2244 3097 1772 3097 
Q 1472 3097 1187 3025 
Q 903 2953 641 2809 
L 641 3341 
Q 956 3463 1253 3523 
Q 1550 3584 1831 3584 
Q 2591 3584 2966 3190 
Q 3341 2797 3341 1997 
z
" transform="scale(0.015625)"/>
      <path id="DejaVuSans-6c" d="M 603 4863 
L 1178 4863 
L 1178 0 
L 603 0 
L 603 4863 
z
" transform="scale(0.015625)"/>
      <path id="DejaVuSans-67" d="M 2906 1791 
Q 2906 2416 2648 2759 
Q 2391 3103 1925 3103 
Q 1463 3103 1205 2759 
Q 947 2416 947 1791 
Q 947 1169 1205 825 
Q 1463 481 1925 481 
Q 2391 481 2648 825 
Q 2906 1169 2906 1791 
z
M 3481 434 
Q 3481 -459 3084 -895 
Q 2688 -1331 1869 -1331 
Q 1566 -1331 1297 -1286 
Q 1028 -1241 775 -1147 
L 775 -588 
Q 1028 -725 1275 -790 
Q 1522 -856 1778 -856 
Q 2344 -856 2625 -561 
Q 2906 -266 2906 331 
L 2906 616 
Q 2728 306 2450 153 
Q 2172 0 1784 0 
Q 1141 0 747 490 
Q 353 981 353 1791 
Q 353 2603 747 3093 
Q 1141 3584 1784 3584 
Q 2172 3584 2450 3431 
Q 2728 3278 2906 2969 
L 2906 3500 
L 3481 3500 
L 3481 434 
z
" transform="scale(0.015625)"/>
      <path id="DejaVuSans-6f" d="M 1959 3097 
Q 1497 3097 1228 2736 
Q 959 2375 959 1747 
Q 959 1119 1226 758 
Q 1494 397 1959 397 
Q 2419 397 2687 759 
Q 2956 1122 2956 1747 
Q 2956 2369 2687 2733 
Q 2419 3097 1959 3097 
z
M 1959 3584 
Q 2709 3584 3137 3096 
Q 3566 2609 3566 1747 
Q 3566 888 3137 398 
Q 2709 -91 1959 -91 
Q 1206 -91 779 398 
Q 353 888 353 1747 
Q 353 2609 779 3096 
Q 1206 3584 1959 3584 
z
" transform="scale(0.015625)"/>
      <path id="DejaVuSans-69" d="M 603 3500 
L 1178 3500 
L 1178 0 
L 603 0 
L 603 3500 
z
M 603 4863 
L 1178 4863 
L 1178 4134 
L 603 4134 
L 603 4863 
z
" transform="scale(0.015625)"/>
      <path id="DejaVuSans-74" d="M 1172 4494 
L 1172 3500 
L 2356 3500 
L 2356 3053 
L 1172 3053 
L 1172 1153 
Q 1172 725 1289 603 
Q 1406 481 1766 481 
L 2356 481 
L 2356 0 
L 1766 0 
Q 1100 0 847 248 
Q 594 497 594 1153 
L 594 3053 
L 172 3053 
L 172 3500 
L 594 3500 
L 594 4494 
L 1172 4494 
z
" transform="scale(0.015625)"/>
      <path id="DejaVuSans-68" d="M 3513 2113 
L 3513 0 
L 2938 0 
L 2938 2094 
Q 2938 2591 2744 2837 
Q 2550 3084 2163 3084 
Q 1697 3084 1428 2787 
Q 1159 2491 1159 1978 
L 1159 0 
L 581 0 
L 581 4863 
L 1159 4863 
L 1159 2956 
Q 1366 3272 1645 3428 
Q 1925 3584 2291 3584 
Q 2894 3584 3203 3211 
Q 3513 2838 3513 2113 
z
" transform="scale(0.015625)"/>
      <path id="DejaVuSans-6d" d="M 3328 2828 
Q 3544 3216 3844 3400 
Q 4144 3584 4550 3584 
Q 5097 3584 5394 3201 
Q 5691 2819 5691 2113 
L 5691 0 
L 5113 0 
L 5113 2094 
Q 5113 2597 4934 2840 
Q 4756 3084 4391 3084 
Q 3944 3084 3684 2787 
Q 3425 2491 3425 1978 
L 3425 0 
L 2847 0 
L 2847 2094 
Q 2847 2600 2669 2842 
Q 2491 3084 2119 3084 
Q 1678 3084 1418 2786 
Q 1159 2488 1159 1978 
L 1159 0 
L 581 0 
L 581 3500 
L 1159 3500 
L 1159 2956 
Q 1356 3278 1631 3431 
Q 1906 3584 2284 3584 
Q 2666 3584 2933 3390 
Q 3200 3197 3328 2828 
z
" transform="scale(0.015625)"/>
      <path id="DejaVuSans-3d" d="M 678 2906 
L 4684 2906 
L 4684 2381 
L 678 2381 
L 678 2906 
z
M 678 1631 
L 4684 1631 
L 4684 1100 
L 678 1100 
L 678 1631 
z
" transform="scale(0.015625)"/>
     </defs>
     <use xlink:href="#DejaVuSans-73"/>
     <use xlink:href="#DejaVuSans-62" transform="translate(52.099609 0)"/>
     <use xlink:href="#DejaVuSans-5f" transform="translate(115.576172 0)"/>
     <use xlink:href="#DejaVuSans-73" transform="translate(165.576172 0)"/>
     <use xlink:href="#DejaVuSans-75" transform="translate(217.675781 0)"/>
     <use xlink:href="#DejaVuSans-62" transform="translate(281.054688 0)"/>
     <use xlink:href="#DejaVuSans-28" transform="translate(344.53125 0)"/>
     <use xlink:href="#DejaVuSans-64" transform="translate(383.544922 0)"/>
     <use xlink:href="#DejaVuSans-29" transform="translate(447.021484 0)"/>
     <use xlink:href="#DejaVuSans-20" transform="translate(486.035156 0)"/>
     <use xlink:href="#DejaVuSans-70" transform="translate(517.822266 0)"/>
     <use xlink:href="#DejaVuSans-65" transform="translate(581.298828 0)"/>
     <use xlink:href="#DejaVuSans-72" transform="translate(642.822266 0)"/>
     <use xlink:href="#DejaVuSans-20" transform="translate(683.935547 0)"/>
     <use xlink:href="#DejaVuSans-61" transform="translate(715.722656 0)"/>
     <use xlink:href="#DejaVuSans-6c" transform="translate(777.001953 0)"/>
     <use xlink:href="#DejaVuSans-67" transform="translate(804.785156 0)"/>
     <use xlink:href="#DejaVuSans-6f" transform="translate(868.261719 0)"/>
     <use xlink:href="#DejaVuSans-72" transform="translate(929.443359 0)"/>
     <use xlink:href="#DejaVuSans-69" transform="translate(970.556641 0)"/>
     <use xlink:href="#DejaVuSans-74" transform="translate(998.339844 0)"/>
     <use xlink:href="#DejaVuSans-68" transform="translate(1037.548828 0)"/>
     <use xlink:href="#DejaVuSans-6d" transform="translate(1100.927734 0)"/>
     <use xlink:href="#DejaVuSans-20" transform="translate(1198.339844 0)"/>
     <use xlink:href="#DejaVuSans-20" transform="translate(1230.126953 0)"/>
     <use xlink:href="#DejaVuSans-28" transform="translate(1261.914062 0)"/>
     <use xlink:href="#DejaVuSans-72" transform="translate(1300.927734 0)"/>
     <use xlink:href="#DejaVuSans-62" transform="translate(1342.041016 0)"/>
     <use xlink:href="#DejaVuSans-69" transform="translate(1405.517578 0)"/>
     <use xlink:href="#DejaVuSans-74" transform="translate(1433.300781 0)"/>
     <use xlink:href="#DejaVuSans-73" transform="translate(1472.509766 0)"/>
     <use xlink:href="#DejaVuSans-20" transform="translate(1524.609375 0)"/>
     <use xlink:href="#DejaVuSans-3d" transform="translate(1556.396484 0)"/>
     <use xlink:href="#DejaVuSans-20" transform="translate(1640.185547 0)"/>
     <use xlink:href="#DejaVuSans-31" transform="translate(1671.972656 0)"/>
     <use xlink:href="#DejaVuSans-36" transform="translate(1735.595703 0)"/>
     <use xlink:href="#DejaVuSans-29" transform="translate(1799.21875 0)"/>
    </g>
   </g>
   <g id="legend_1">
    <g id="patch_7">
     <path d="M 318.782188 207.318125 
L 499.323437 207.318125 
Q 500.923437 207.318125 500.923437 205.718125 
L 500.923437 159.548125 
Q 500.923437 157.948125 499.323437 157.948125 
L 318.782188 157.948125 
Q 317.182187 157.948125 317.182187 159.548125 
L 317.182187 205.718125 
Q 317.182187 207.318125 318.782188 207.318125 
z
" style="fill: #ffffff; opacity: 0.8; stroke: #cccccc; stroke-linejoin: miter"/>
    </g>
    <g id="line2d_36">
     <path d="M 320.382187 164.426875 
L 328.382187 164.426875 
L 336.382187 164.426875 
" style="fill: none; stroke-dasharray: 1.6,1.6; stroke-dashoffset: 1.6; stroke: #7f7f7f; stroke-width: 1.6"/>
    </g>
    <g id="text_10">
     <!-- DoubleTrip -->
     <g transform="translate(342.782187 167.226875) scale(0.08 -0.08)">
      <defs>
       <path id="DejaVuSans-44" d="M 1259 4147 
L 1259 519 
L 2022 519 
Q 2988 519 3436 956 
Q 3884 1394 3884 2338 
Q 3884 3275 3436 3711 
Q 2988 4147 2022 4147 
L 1259 4147 
z
M 628 4666 
L 1925 4666 
Q 3281 4666 3915 4102 
Q 4550 3538 4550 2338 
Q 4550 1131 3912 565 
Q 3275 0 1925 0 
L 628 0 
L 628 4666 
z
" transform="scale(0.015625)"/>
       <path id="DejaVuSans-54" d="M -19 4666 
L 3928 4666 
L 3928 4134 
L 2272 4134 
L 2272 0 
L 1638 0 
L 1638 4134 
L -19 4134 
L -19 4666 
z
" transform="scale(0.015625)"/>
      </defs>
      <use xlink:href="#DejaVuSans-44"/>
      <use xlink:href="#DejaVuSans-6f" transform="translate(77.001953 0)"/>
      <use xlink:href="#DejaVuSans-75" transform="translate(138.183594 0)"/>
      <use xlink:href="#DejaVuSans-62" transform="translate(201.5625 0)"/>
      <use xlink:href="#DejaVuSans-6c" transform="translate(265.039062 0)"/>
      <use xlink:href="#DejaVuSans-65" transform="translate(292.822266 0)"/>
      <use xlink:href="#DejaVuSans-54" transform="translate(354.345703 0)"/>
      <use xlink:href="#DejaVuSans-72" transform="translate(400.679688 0)"/>
      <use xlink:href="#DejaVuSans-69" transform="translate(441.792969 0)"/>
      <use xlink:href="#DejaVuSans-70" transform="translate(469.576172 0)"/>
     </g>
    </g>
    <g id="line2d_37">
     <path d="M 320.382187 176.169375 
L 328.382187 176.169375 
L 336.382187 176.169375 
" style="fill: none; stroke: #1f77b4; stroke-width: 1.6; stroke-linecap: square"/>
    </g>
    <g id="text_11">
     <!-- DirectEvaluation -->
     <g transform="translate(342.782187 178.969375) scale(0.08 -0.08)">
      <defs>
       <path id="DejaVuSans-63" d="M 3122 3366 
L 3122 2828 
Q 2878 2963 2633 3030 
Q 2388 3097 2138 3097 
Q 1578 3097 1268 2742 
Q 959 2388 959 1747 
Q 959 1106 1268 751 
Q 1578 397 2138 397 
Q 2388 397 2633 464 
Q 2878 531 3122 666 
L 3122 134 
Q 2881 22 2623 -34 
Q 2366 -91 2075 -91 
Q 1284 -91 818 406 
Q 353 903 353 1747 
Q 353 2603 823 3093 
Q 1294 3584 2113 3584 
Q 2378 3584 2631 3529 
Q 2884 3475 3122 3366 
z
" transform="scale(0.015625)"/>
       <path id="DejaVuSans-45" d="M 628 4666 
L 3578 4666 
L 3578 4134 
L 1259 4134 
L 1259 2753 
L 3481 2753 
L 3481 2222 
L 1259 2222 
L 1259 531 
L 3634 531 
L 3634 0 
L 628 0 
L 628 4666 
z
" transform="scale(0.015625)"/>
       <path id="DejaVuSans-76" d="M 191 3500 
L 800 3500 
L 1894 563 
L 2988 3500 
L 3597 3500 
L 2284 0 
L 1503 0 
L 191 3500 
z
" transform="scale(0.015625)"/>
       <path id="DejaVuSans-6e" d="M 3513 2113 
L 3513 0 
L 2938 0 
L 2938 2094 
Q 2938 2591 2744 2837 
Q 2550 3084 2163 3084 
Q 1697 3084 1428 2787 
Q 1159 2491 1159 1978 
L 1159 0 
L 581 0 
L 581 3500 
L 1159 3500 
L 1159 2956 
Q 1366 3272 1645 3428 
Q 1925 3584 2291 3584 
Q 2894 3584 3203 3211 
Q 3513 2838 3513 2113 
z
" transform="scale(0.015625)"/>
      </defs>
      <use xlink:href="#DejaVuSans-44"/>
      <use xlink:href="#DejaVuSans-69" transform="translate(77.001953 0)"/>
      <use xlink:href="#DejaVuSans-72" transform="translate(104.785156 0)"/>
      <use xlink:href="#DejaVuSans-65" transform="translate(143.648438 0)"/>
      <use xlink:href="#DejaVuSans-63" transform="translate(205.171875 0)"/>
      <use xlink:href="#DejaVuSans-74" transform="translate(260.152344 0)"/>
      <use xlink:href="#DejaVuSans-45" transform="translate(299.361328 0)"/>
      <use xlink:href="#DejaVuSans-76" transform="translate(362.544922 0)"/>
      <use xlink:href="#DejaVuSans-61" transform="translate(421.724609 0)"/>
      <use xlink:href="#DejaVuSans-6c" transform="translate(483.003906 0)"/>
      <use xlink:href="#DejaVuSans-75" transform="translate(510.787109 0)"/>
      <use xlink:href="#DejaVuSans-61" transform="translate(574.166016 0)"/>
      <use xlink:href="#DejaVuSans-74" transform="translate(635.445312 0)"/>
      <use xlink:href="#DejaVuSans-69" transform="translate(674.654297 0)"/>
      <use xlink:href="#DejaVuSans-6f" transform="translate(702.4375 0)"/>
      <use xlink:href="#DejaVuSans-6e" transform="translate(763.619141 0)"/>
     </g>
    </g>
    <g id="line2d_38">
     <path d="M 320.382187 187.911875 
L 328.382187 187.911875 
L 336.382187 187.911875 
" style="fill: none; stroke-dasharray: 5.92,2.56; stroke-dashoffset: 0; stroke: #ff7f0e; stroke-width: 1.6"/>
    </g>
    <g id="text_12">
     <!-- Lookup -->
     <g transform="translate(342.782187 190.711875) scale(0.08 -0.08)">
      <defs>
       <path id="DejaVuSans-4c" d="M 628 4666 
L 1259 4666 
L 1259 531 
L 3531 531 
L 3531 0 
L 628 0 
L 628 4666 
z
" transform="scale(0.015625)"/>
       <path id="DejaVuSans-6b" d="M 581 4863 
L 1159 4863 
L 1159 1991 
L 2875 3500 
L 3609 3500 
L 1753 1863 
L 3688 0 
L 2938 0 
L 1159 1709 
L 1159 0 
L 581 0 
L 581 4863 
z
" transform="scale(0.015625)"/>
      </defs>
      <use xlink:href="#DejaVuSans-4c"/>
      <use xlink:href="#DejaVuSans-6f" transform="translate(53.962891 0)"/>
      <use xlink:href="#DejaVuSans-6f" transform="translate(115.144531 0)"/>
      <use xlink:href="#DejaVuSans-6b" transform="translate(176.326172 0)"/>
      <use xlink:href="#DejaVuSans-75" transform="translate(231.111328 0)"/>
      <use xlink:href="#DejaVuSans-70" transform="translate(294.490234 0)"/>
     </g>
    </g>
    <g id="line2d_39">
     <path d="M 320.382187 199.654375 
L 328.382187 199.654375 
L 336.382187 199.654375 
" style="fill: none; stroke-dasharray: 10.24,2.56,1.6,2.56; stroke-dashoffset: 0; stroke: #2ca02c; stroke-width: 1.6"/>
    </g>
    <g id="text_13">
     <!-- Polynomial -->
     <g transform="translate(342.782187 202.454375) scale(0.08 -0.08)">
      <defs>
       <path id="DejaVuSans-50" d="M 1259 4147 
L 1259 2394 
L 2053 2394 
Q 2494 2394 2734 2622 
Q 2975 2850 2975 3272 
Q 2975 3691 2734 3919 
Q 2494 4147 2053 4147 
L 1259 4147 
z
M 628 4666 
L 2053 4666 
Q 2838 4666 3239 4311 
Q 3641 3956 3641 3272 
Q 3641 2581 3239 2228 
Q 2838 1875 2053 1875 
L 1259 1875 
L 1259 0 
L 628 0 
L 628 4666 
z
" transform="scale(0.015625)"/>
       <path id="DejaVuSans-79" d="M 2059 -325 
Q 1816 -950 1584 -1140 
Q 1353 -1331 966 -1331 
L 506 -1331 
L 506 -850 
L 844 -850 
Q 1081 -850 1212 -737 
Q 1344 -625 1503 -206 
L 1606 56 
L 191 3500 
L 800 3500 
L 1894 763 
L 2988 3500 
L 3597 3500 
L 2059 -325 
z
" transform="scale(0.015625)"/>
      </defs>
      <use xlink:href="#DejaVuSans-50"/>
      <use xlink:href="#DejaVuSans-6f" transform="translate(56.677734 0)"/>
      <use xlink:href="#DejaVuSans-6c" transform="translate(117.859375 0)"/>
      <use xlink:href="#DejaVuSans-79" transform="translate(145.642578 0)"/>
      <use xlink:href="#DejaVuSans-6e" transform="translate(204.822266 0)"/>
      <use xlink:href="#DejaVuSans-6f" transform="translate(268.201172 0)"/>
      <use xlink:href="#DejaVuSans-6d" transform="translate(329.382812 0)"/>
      <use xlink:href="#DejaVuSans-69" transform="translate(426.794922 0)"/>
      <use xlink:href="#DejaVuSans-61" transform="translate(454.578125 0)"/>
      <use xlink:href="#DejaVuSans-6c" transform="translate(515.857422 0)"/>
     </g>
    </g>
    <g id="line2d_40">
     <path d="M 424.942187 164.426875 
L 432.942187 164.426875 
L 440.942187 164.426875 
" style="fill: none; stroke-dasharray: 1.6,2.64; stroke-dashoffset: 0; stroke: #d62728; stroke-width: 1.6"/>
    </g>
    <g id="text_14">
     <!-- ArnoldBailey -->
     <g transform="translate(447.342187 167.226875) scale(0.08 -0.08)">
      <defs>
       <path id="DejaVuSans-41" d="M 2188 4044 
L 1331 1722 
L 3047 1722 
L 2188 4044 
z
M 1831 4666 
L 2547 4666 
L 4325 0 
L 3669 0 
L 3244 1197 
L 1141 1197 
L 716 0 
L 50 0 
L 1831 4666 
z
" transform="scale(0.015625)"/>
       <path id="DejaVuSans-42" d="M 1259 2228 
L 1259 519 
L 2272 519 
Q 2781 519 3026 730 
Q 3272 941 3272 1375 
Q 3272 1813 3026 2020 
Q 2781 2228 2272 2228 
L 1259 2228 
z
M 1259 4147 
L 1259 2741 
L 2194 2741 
Q 2656 2741 2882 2914 
Q 3109 3088 3109 3444 
Q 3109 3797 2882 3972 
Q 2656 4147 2194 4147 
L 1259 4147 
z
M 628 4666 
L 2241 4666 
Q 2963 4666 3353 4366 
Q 3744 4066 3744 3513 
Q 3744 3084 3544 2831 
Q 3344 2578 2956 2516 
Q 3422 2416 3680 2098 
Q 3938 1781 3938 1306 
Q 3938 681 3513 340 
Q 3088 0 2303 0 
L 628 0 
L 628 4666 
z
" transform="scale(0.015625)"/>
      </defs>
      <use xlink:href="#DejaVuSans-41"/>
      <use xlink:href="#DejaVuSans-72" transform="translate(68.408203 0)"/>
      <use xlink:href="#DejaVuSans-6e" transform="translate(107.771484 0)"/>
      <use xlink:href="#DejaVuSans-6f" transform="translate(171.150391 0)"/>
      <use xlink:href="#DejaVuSans-6c" transform="translate(232.332031 0)"/>
      <use xlink:href="#DejaVuSans-64" transform="translate(260.115234 0)"/>
      <use xlink:href="#DejaVuSans-42" transform="translate(323.591797 0)"/>
      <use xlink:href="#DejaVuSans-61" transform="translate(392.195312 0)"/>
      <use xlink:href="#DejaVuSans-69" transform="translate(453.474609 0)"/>
      <use xlink:href="#DejaVuSans-6c" transform="translate(481.257812 0)"/>
      <use xlink:href="#DejaVuSans-65" transform="translate(509.041016 0)"/>
      <use xlink:href="#DejaVuSans-79" transform="translate(570.564453 0)"/>
     </g>
    </g>
    <g id="line2d_41">
     <path d="M 424.942187 176.169375 
L 432.942187 176.169375 
L 440.942187 176.169375 
" style="fill: none; stroke-dasharray: 4.8,1.6,1.6,1.6; stroke-dashoffset: 0; stroke: #9467bd; stroke-width: 1.6"/>
    </g>
    <g id="text_15">
     <!-- CORDIC -->
     <g transform="translate(447.342187 178.969375) scale(0.08 -0.08)">
      <defs>
       <path id="DejaVuSans-43" d="M 4122 4306 
L 4122 3641 
Q 3803 3938 3442 4084 
Q 3081 4231 2675 4231 
Q 1875 4231 1450 3742 
Q 1025 3253 1025 2328 
Q 1025 1406 1450 917 
Q 1875 428 2675 428 
Q 3081 428 3442 575 
Q 3803 722 4122 1019 
L 4122 359 
Q 3791 134 3420 21 
Q 3050 -91 2638 -91 
Q 1578 -91 968 557 
Q 359 1206 359 2328 
Q 359 3453 968 4101 
Q 1578 4750 2638 4750 
Q 3056 4750 3426 4639 
Q 3797 4528 4122 4306 
z
" transform="scale(0.015625)"/>
       <path id="DejaVuSans-4f" d="M 2522 4238 
Q 1834 4238 1429 3725 
Q 1025 3213 1025 2328 
Q 1025 1447 1429 934 
Q 1834 422 2522 422 
Q 3209 422 3611 934 
Q 4013 1447 4013 2328 
Q 4013 3213 3611 3725 
Q 3209 4238 2522 4238 
z
M 2522 4750 
Q 3503 4750 4090 4092 
Q 4678 3434 4678 2328 
Q 4678 1225 4090 567 
Q 3503 -91 2522 -91 
Q 1538 -91 948 565 
Q 359 1222 359 2328 
Q 359 3434 948 4092 
Q 1538 4750 2522 4750 
z
" transform="scale(0.015625)"/>
       <path id="DejaVuSans-52" d="M 2841 2188 
Q 3044 2119 3236 1894 
Q 3428 1669 3622 1275 
L 4263 0 
L 3584 0 
L 2988 1197 
Q 2756 1666 2539 1819 
Q 2322 1972 1947 1972 
L 1259 1972 
L 1259 0 
L 628 0 
L 628 4666 
L 2053 4666 
Q 2853 4666 3247 4331 
Q 3641 3997 3641 3322 
Q 3641 2881 3436 2590 
Q 3231 2300 2841 2188 
z
M 1259 4147 
L 1259 2491 
L 2053 2491 
Q 2509 2491 2742 2702 
Q 2975 2913 2975 3322 
Q 2975 3731 2742 3939 
Q 2509 4147 2053 4147 
L 1259 4147 
z
" transform="scale(0.015625)"/>
       <path id="DejaVuSans-49" d="M 628 4666 
L 1259 4666 
L 1259 0 
L 628 0 
L 628 4666 
z
" transform="scale(0.015625)"/>
      </defs>
      <use xlink:href="#DejaVuSans-43"/>
      <use xlink:href="#DejaVuSans-4f" transform="translate(69.824219 0)"/>
      <use xlink:href="#DejaVuSans-52" transform="translate(148.535156 0)"/>
      <use xlink:href="#DejaVuSans-44" transform="translate(218.017578 0)"/>
      <use xlink:href="#DejaVuSans-49" transform="translate(295.019531 0)"/>
      <use xlink:href="#DejaVuSans-43" transform="translate(324.511719 0)"/>
     </g>
    </g>
    <g id="line2d_42">
     <path d="M 424.942187 187.911875 
L 432.942187 187.911875 
L 440.942187 187.911875 
" style="fill: none; stroke-dasharray: 8,1.6; stroke-dashoffset: 0; stroke: #8c564b; stroke-width: 1.6"/>
    </g>
    <g id="text_16">
     <!-- ArnoldCotr -->
     <g transform="translate(447.342187 190.711875) scale(0.08 -0.08)">
      <use xlink:href="#DejaVuSans-41"/>
      <use xlink:href="#DejaVuSans-72" transform="translate(68.408203 0)"/>
      <use xlink:href="#DejaVuSans-6e" transform="translate(107.771484 0)"/>
      <use xlink:href="#DejaVuSans-6f" transform="translate(171.150391 0)"/>
      <use xlink:href="#DejaVuSans-6c" transform="translate(232.332031 0)"/>
      <use xlink:href="#DejaVuSans-64" transform="translate(260.115234 0)"/>
      <use xlink:href="#DejaVuSans-43" transform="translate(323.591797 0)"/>
      <use xlink:href="#DejaVuSans-6f" transform="translate(393.416016 0)"/>
      <use xlink:href="#DejaVuSans-74" transform="translate(454.597656 0)"/>
      <use xlink:href="#DejaVuSans-72" transform="translate(493.806641 0)"/>
     </g>
    </g>
   </g>
  </g>
  <g id="axes_2">
   <g id="patch_8">
    <path d="M 58.523438 438.118125 
L 504.923437 438.118125 
L 504.923437 249.118125 
L 58.523438 249.118125 
z
" style="fill: #ffffff"/>
   </g>
   <g id="matplotlib.axis_3">
    <g id="xtick_8">
     <g id="line2d_43">
      <path d="M 78.814347 438.118125 
L 78.814347 249.118125 
" clip-path="url(#p41965e491e)" style="fill: none; stroke: #b0b0b0; stroke-opacity: 0.3; stroke-width: 0.8; stroke-linecap: square"/>
     </g>
     <g id="line2d_44">
      <g>
       <use xlink:href="#m46df765d2d" x="78.814347" y="438.118125" style="stroke: #000000; stroke-width: 0.8"/>
      </g>
     </g>
     <g id="text_17">
      <!-- −6 -->
      <g transform="translate(71.443253 452.716562) scale(0.1 -0.1)">
       <use xlink:href="#DejaVuSans-2212"/>
       <use xlink:href="#DejaVuSans-36" transform="translate(83.789062 0)"/>
      </g>
     </g>
    </g>
    <g id="xtick_9">
     <g id="line2d_45">
      <path d="M 146.461985 438.118125 
L 146.461985 249.118125 
" clip-path="url(#p41965e491e)" style="fill: none; stroke: #b0b0b0; stroke-opacity: 0.3; stroke-width: 0.8; stroke-linecap: square"/>
     </g>
     <g id="line2d_46">
      <g>
       <use xlink:href="#m46df765d2d" x="146.461985" y="438.118125" style="stroke: #000000; stroke-width: 0.8"/>
      </g>
     </g>
     <g id="text_18">
      <!-- −5 -->
      <g transform="translate(139.090891 452.716562) scale(0.1 -0.1)">
       <defs>
        <path id="DejaVuSans-35" d="M 691 4666 
L 3169 4666 
L 3169 4134 
L 1269 4134 
L 1269 2991 
Q 1406 3038 1543 3061 
Q 1681 3084 1819 3084 
Q 2600 3084 3056 2656 
Q 3513 2228 3513 1497 
Q 3513 744 3044 326 
Q 2575 -91 1722 -91 
Q 1428 -91 1123 -41 
Q 819 9 494 109 
L 494 744 
Q 775 591 1075 516 
Q 1375 441 1709 441 
Q 2250 441 2565 725 
Q 2881 1009 2881 1497 
Q 2881 1984 2565 2268 
Q 2250 2553 1709 2553 
Q 1456 2553 1204 2497 
Q 953 2441 691 2322 
L 691 4666 
z
" transform="scale(0.015625)"/>
       </defs>
       <use xlink:href="#DejaVuSans-2212"/>
       <use xlink:href="#DejaVuSans-35" transform="translate(83.789062 0)"/>
      </g>
     </g>
    </g>
    <g id="xtick_10">
     <g id="line2d_47">
      <path d="M 214.109623 438.118125 
L 214.109623 249.118125 
" clip-path="url(#p41965e491e)" style="fill: none; stroke: #b0b0b0; stroke-opacity: 0.3; stroke-width: 0.8; stroke-linecap: square"/>
     </g>
     <g id="line2d_48">
      <g>
       <use xlink:href="#m46df765d2d" x="214.109623" y="438.118125" style="stroke: #000000; stroke-width: 0.8"/>
      </g>
     </g>
     <g id="text_19">
      <!-- −4 -->
      <g transform="translate(206.738529 452.716562) scale(0.1 -0.1)">
       <use xlink:href="#DejaVuSans-2212"/>
       <use xlink:href="#DejaVuSans-34" transform="translate(83.789062 0)"/>
      </g>
     </g>
    </g>
    <g id="xtick_11">
     <g id="line2d_49">
      <path d="M 281.757261 438.118125 
L 281.757261 249.118125 
" clip-path="url(#p41965e491e)" style="fill: none; stroke: #b0b0b0; stroke-opacity: 0.3; stroke-width: 0.8; stroke-linecap: square"/>
     </g>
     <g id="line2d_50">
      <g>
       <use xlink:href="#m46df765d2d" x="281.757261" y="438.118125" style="stroke: #000000; stroke-width: 0.8"/>
      </g>
     </g>
     <g id="text_20">
      <!-- −3 -->
      <g transform="translate(274.386168 452.716562) scale(0.1 -0.1)">
       <defs>
        <path id="DejaVuSans-33" d="M 2597 2516 
Q 3050 2419 3304 2112 
Q 3559 1806 3559 1356 
Q 3559 666 3084 287 
Q 2609 -91 1734 -91 
Q 1441 -91 1130 -33 
Q 819 25 488 141 
L 488 750 
Q 750 597 1062 519 
Q 1375 441 1716 441 
Q 2309 441 2620 675 
Q 2931 909 2931 1356 
Q 2931 1769 2642 2001 
Q 2353 2234 1838 2234 
L 1294 2234 
L 1294 2753 
L 1863 2753 
Q 2328 2753 2575 2939 
Q 2822 3125 2822 3475 
Q 2822 3834 2567 4026 
Q 2313 4219 1838 4219 
Q 1578 4219 1281 4162 
Q 984 4106 628 3988 
L 628 4550 
Q 988 4650 1302 4700 
Q 1616 4750 1894 4750 
Q 2613 4750 3031 4423 
Q 3450 4097 3450 3541 
Q 3450 3153 3228 2886 
Q 3006 2619 2597 2516 
z
" transform="scale(0.015625)"/>
       </defs>
       <use xlink:href="#DejaVuSans-2212"/>
       <use xlink:href="#DejaVuSans-33" transform="translate(83.789062 0)"/>
      </g>
     </g>
    </g>
    <g id="xtick_12">
     <g id="line2d_51">
      <path d="M 349.4049 438.118125 
L 349.4049 249.118125 
" clip-path="url(#p41965e491e)" style="fill: none; stroke: #b0b0b0; stroke-opacity: 0.3; stroke-width: 0.8; stroke-linecap: square"/>
     </g>
     <g id="line2d_52">
      <g>
       <use xlink:href="#m46df765d2d" x="349.4049" y="438.118125" style="stroke: #000000; stroke-width: 0.8"/>
      </g>
     </g>
     <g id="text_21">
      <!-- −2 -->
      <g transform="translate(342.033806 452.716562) scale(0.1 -0.1)">
       <use xlink:href="#DejaVuSans-2212"/>
       <use xlink:href="#DejaVuSans-32" transform="translate(83.789062 0)"/>
      </g>
     </g>
    </g>
    <g id="xtick_13">
     <g id="line2d_53">
      <path d="M 417.052538 438.118125 
L 417.052538 249.118125 
" clip-path="url(#p41965e491e)" style="fill: none; stroke: #b0b0b0; stroke-opacity: 0.3; stroke-width: 0.8; stroke-linecap: square"/>
     </g>
     <g id="line2d_54">
      <g>
       <use xlink:href="#m46df765d2d" x="417.052538" y="438.118125" style="stroke: #000000; stroke-width: 0.8"/>
      </g>
     </g>
     <g id="text_22">
      <!-- −1 -->
      <g transform="translate(409.681444 452.716562) scale(0.1 -0.1)">
       <use xlink:href="#DejaVuSans-2212"/>
       <use xlink:href="#DejaVuSans-31" transform="translate(83.789062 0)"/>
      </g>
     </g>
    </g>
    <g id="xtick_14">
     <g id="line2d_55">
      <path d="M 484.700176 438.118125 
L 484.700176 249.118125 
" clip-path="url(#p41965e491e)" style="fill: none; stroke: #b0b0b0; stroke-opacity: 0.3; stroke-width: 0.8; stroke-linecap: square"/>
     </g>
     <g id="line2d_56">
      <g>
       <use xlink:href="#m46df765d2d" x="484.700176" y="438.118125" style="stroke: #000000; stroke-width: 0.8"/>
      </g>
     </g>
     <g id="text_23">
      <!-- 0 -->
      <g transform="translate(481.518926 452.716562) scale(0.1 -0.1)">
       <use xlink:href="#DejaVuSans-30"/>
      </g>
     </g>
    </g>
    <g id="text_24">
     <!-- d -->
     <g transform="translate(278.549219 466.394687) scale(0.1 -0.1)">
      <use xlink:href="#DejaVuSans-64"/>
     </g>
    </g>
   </g>
   <g id="matplotlib.axis_4">
    <g id="ytick_8">
     <g id="line2d_57">
      <path d="M 58.523438 421.352192 
L 504.923437 421.352192 
" clip-path="url(#p41965e491e)" style="fill: none; stroke: #b0b0b0; stroke-opacity: 0.3; stroke-width: 0.8; stroke-linecap: square"/>
     </g>
     <g id="line2d_58">
      <g>
       <use xlink:href="#mbd6a5fef3d" x="58.523438" y="421.352192" style="stroke: #000000; stroke-width: 0.8"/>
      </g>
     </g>
     <g id="text_25">
      <!-- −0.08 -->
      <g transform="translate(20.878125 425.15141) scale(0.1 -0.1)">
       <defs>
        <path id="DejaVuSans-2e" d="M 684 794 
L 1344 794 
L 1344 0 
L 684 0 
L 684 794 
z
" transform="scale(0.015625)"/>
       </defs>
       <use xlink:href="#DejaVuSans-2212"/>
       <use xlink:href="#DejaVuSans-30" transform="translate(83.789062 0)"/>
       <use xlink:href="#DejaVuSans-2e" transform="translate(147.412109 0)"/>
       <use xlink:href="#DejaVuSans-30" transform="translate(179.199219 0)"/>
       <use xlink:href="#DejaVuSans-38" transform="translate(242.822266 0)"/>
      </g>
     </g>
    </g>
    <g id="ytick_9">
     <g id="line2d_59">
      <path d="M 58.523438 389.49023 
L 504.923437 389.49023 
" clip-path="url(#p41965e491e)" style="fill: none; stroke: #b0b0b0; stroke-opacity: 0.3; stroke-width: 0.8; stroke-linecap: square"/>
     </g>
     <g id="line2d_60">
      <g>
       <use xlink:href="#mbd6a5fef3d" x="58.523438" y="389.49023" style="stroke: #000000; stroke-width: 0.8"/>
      </g>
     </g>
     <g id="text_26">
      <!-- −0.06 -->
      <g transform="translate(20.878125 393.289449) scale(0.1 -0.1)">
       <use xlink:href="#DejaVuSans-2212"/>
       <use xlink:href="#DejaVuSans-30" transform="translate(83.789062 0)"/>
       <use xlink:href="#DejaVuSans-2e" transform="translate(147.412109 0)"/>
       <use xlink:href="#DejaVuSans-30" transform="translate(179.199219 0)"/>
       <use xlink:href="#DejaVuSans-36" transform="translate(242.822266 0)"/>
      </g>
     </g>
    </g>
    <g id="ytick_10">
     <g id="line2d_61">
      <path d="M 58.523438 357.628268 
L 504.923437 357.628268 
" clip-path="url(#p41965e491e)" style="fill: none; stroke: #b0b0b0; stroke-opacity: 0.3; stroke-width: 0.8; stroke-linecap: square"/>
     </g>
     <g id="line2d_62">
      <g>
       <use xlink:href="#mbd6a5fef3d" x="58.523438" y="357.628268" style="stroke: #000000; stroke-width: 0.8"/>
      </g>
     </g>
     <g id="text_27">
      <!-- −0.04 -->
      <g transform="translate(20.878125 361.427487) scale(0.1 -0.1)">
       <use xlink:href="#DejaVuSans-2212"/>
       <use xlink:href="#DejaVuSans-30" transform="translate(83.789062 0)"/>
       <use xlink:href="#DejaVuSans-2e" transform="translate(147.412109 0)"/>
       <use xlink:href="#DejaVuSans-30" transform="translate(179.199219 0)"/>
       <use xlink:href="#DejaVuSans-34" transform="translate(242.822266 0)"/>
      </g>
     </g>
    </g>
    <g id="ytick_11">
     <g id="line2d_63">
      <path d="M 58.523438 325.766306 
L 504.923437 325.766306 
" clip-path="url(#p41965e491e)" style="fill: none; stroke: #b0b0b0; stroke-opacity: 0.3; stroke-width: 0.8; stroke-linecap: square"/>
     </g>
     <g id="line2d_64">
      <g>
       <use xlink:href="#mbd6a5fef3d" x="58.523438" y="325.766306" style="stroke: #000000; stroke-width: 0.8"/>
      </g>
     </g>
     <g id="text_28">
      <!-- −0.02 -->
      <g transform="translate(20.878125 329.565525) scale(0.1 -0.1)">
       <use xlink:href="#DejaVuSans-2212"/>
       <use xlink:href="#DejaVuSans-30" transform="translate(83.789062 0)"/>
       <use xlink:href="#DejaVuSans-2e" transform="translate(147.412109 0)"/>
       <use xlink:href="#DejaVuSans-30" transform="translate(179.199219 0)"/>
       <use xlink:href="#DejaVuSans-32" transform="translate(242.822266 0)"/>
      </g>
     </g>
    </g>
    <g id="ytick_12">
     <g id="line2d_65">
      <path d="M 58.523438 293.904345 
L 504.923437 293.904345 
" clip-path="url(#p41965e491e)" style="fill: none; stroke: #b0b0b0; stroke-opacity: 0.3; stroke-width: 0.8; stroke-linecap: square"/>
     </g>
     <g id="line2d_66">
      <g>
       <use xlink:href="#mbd6a5fef3d" x="58.523438" y="293.904345" style="stroke: #000000; stroke-width: 0.8"/>
      </g>
     </g>
     <g id="text_29">
      <!-- 0.00 -->
      <g transform="translate(29.257813 297.703563) scale(0.1 -0.1)">
       <use xlink:href="#DejaVuSans-30"/>
       <use xlink:href="#DejaVuSans-2e" transform="translate(63.623047 0)"/>
       <use xlink:href="#DejaVuSans-30" transform="translate(95.410156 0)"/>
       <use xlink:href="#DejaVuSans-30" transform="translate(159.033203 0)"/>
      </g>
     </g>
    </g>
    <g id="ytick_13">
     <g id="line2d_67">
      <path d="M 58.523438 262.042383 
L 504.923437 262.042383 
" clip-path="url(#p41965e491e)" style="fill: none; stroke: #b0b0b0; stroke-opacity: 0.3; stroke-width: 0.8; stroke-linecap: square"/>
     </g>
     <g id="line2d_68">
      <g>
       <use xlink:href="#mbd6a5fef3d" x="58.523438" y="262.042383" style="stroke: #000000; stroke-width: 0.8"/>
      </g>
     </g>
     <g id="text_30">
      <!-- 0.02 -->
      <g transform="translate(29.257813 265.841602) scale(0.1 -0.1)">
       <use xlink:href="#DejaVuSans-30"/>
       <use xlink:href="#DejaVuSans-2e" transform="translate(63.623047 0)"/>
       <use xlink:href="#DejaVuSans-30" transform="translate(95.410156 0)"/>
       <use xlink:href="#DejaVuSans-32" transform="translate(159.033203 0)"/>
      </g>
     </g>
    </g>
    <g id="text_31">
     <!-- error = alg(d) - reference  (clipped to +/-1.5) -->
     <g transform="translate(14.798438 455.6775) rotate(-90) scale(0.1 -0.1)">
      <defs>
       <path id="DejaVuSans-2d" d="M 313 2009 
L 1997 2009 
L 1997 1497 
L 313 1497 
L 313 2009 
z
" transform="scale(0.015625)"/>
       <path id="DejaVuSans-66" d="M 2375 4863 
L 2375 4384 
L 1825 4384 
Q 1516 4384 1395 4259 
Q 1275 4134 1275 3809 
L 1275 3500 
L 2222 3500 
L 2222 3053 
L 1275 3053 
L 1275 0 
L 697 0 
L 697 3053 
L 147 3053 
L 147 3500 
L 697 3500 
L 697 3744 
Q 697 4328 969 4595 
Q 1241 4863 1831 4863 
L 2375 4863 
z
" transform="scale(0.015625)"/>
       <path id="DejaVuSans-2b" d="M 2944 4013 
L 2944 2272 
L 4684 2272 
L 4684 1741 
L 2944 1741 
L 2944 0 
L 2419 0 
L 2419 1741 
L 678 1741 
L 678 2272 
L 2419 2272 
L 2419 4013 
L 2944 4013 
z
" transform="scale(0.015625)"/>
       <path id="DejaVuSans-2f" d="M 1625 4666 
L 2156 4666 
L 531 -594 
L 0 -594 
L 1625 4666 
z
" transform="scale(0.015625)"/>
      </defs>
      <use xlink:href="#DejaVuSans-65"/>
      <use xlink:href="#DejaVuSans-72" transform="translate(61.523438 0)"/>
      <use xlink:href="#DejaVuSans-72" transform="translate(100.886719 0)"/>
      <use xlink:href="#DejaVuSans-6f" transform="translate(139.75 0)"/>
      <use xlink:href="#DejaVuSans-72" transform="translate(200.931641 0)"/>
      <use xlink:href="#DejaVuSans-20" transform="translate(242.044922 0)"/>
      <use xlink:href="#DejaVuSans-3d" transform="translate(273.832031 0)"/>
      <use xlink:href="#DejaVuSans-20" transform="translate(357.621094 0)"/>
      <use xlink:href="#DejaVuSans-61" transform="translate(389.408203 0)"/>
      <use xlink:href="#DejaVuSans-6c" transform="translate(450.6875 0)"/>
      <use xlink:href="#DejaVuSans-67" transform="translate(478.470703 0)"/>
      <use xlink:href="#DejaVuSans-28" transform="translate(541.947266 0)"/>
      <use xlink:href="#DejaVuSans-64" transform="translate(580.960938 0)"/>
      <use xlink:href="#DejaVuSans-29" transform="translate(644.4375 0)"/>
      <use xlink:href="#DejaVuSans-20" transform="translate(683.451172 0)"/>
      <use xlink:href="#DejaVuSans-2d" transform="translate(715.238281 0)"/>
      <use xlink:href="#DejaVuSans-20" transform="translate(751.322266 0)"/>
      <use xlink:href="#DejaVuSans-72" transform="translate(783.109375 0)"/>
      <use xlink:href="#DejaVuSans-65" transform="translate(821.972656 0)"/>
      <use xlink:href="#DejaVuSans-66" transform="translate(883.496094 0)"/>
      <use xlink:href="#DejaVuSans-65" transform="translate(918.701172 0)"/>
      <use xlink:href="#DejaVuSans-72" transform="translate(980.224609 0)"/>
      <use xlink:href="#DejaVuSans-65" transform="translate(1019.087891 0)"/>
      <use xlink:href="#DejaVuSans-6e" transform="translate(1080.611328 0)"/>
      <use xlink:href="#DejaVuSans-63" transform="translate(1143.990234 0)"/>
      <use xlink:href="#DejaVuSans-65" transform="translate(1198.970703 0)"/>
      <use xlink:href="#DejaVuSans-20" transform="translate(1260.494141 0)"/>
      <use xlink:href="#DejaVuSans-20" transform="translate(1292.28125 0)"/>
      <use xlink:href="#DejaVuSans-28" transform="translate(1324.068359 0)"/>
      <use xlink:href="#DejaVuSans-63" transform="translate(1363.082031 0)"/>
      <use xlink:href="#DejaVuSans-6c" transform="translate(1418.0625 0)"/>
      <use xlink:href="#DejaVuSans-69" transform="translate(1445.845703 0)"/>
      <use xlink:href="#DejaVuSans-70" transform="translate(1473.628906 0)"/>
      <use xlink:href="#DejaVuSans-70" transform="translate(1537.105469 0)"/>
      <use xlink:href="#DejaVuSans-65" transform="translate(1600.582031 0)"/>
      <use xlink:href="#DejaVuSans-64" transform="translate(1662.105469 0)"/>
      <use xlink:href="#DejaVuSans-20" transform="translate(1725.582031 0)"/>
      <use xlink:href="#DejaVuSans-74" transform="translate(1757.369141 0)"/>
      <use xlink:href="#DejaVuSans-6f" transform="translate(1796.578125 0)"/>
      <use xlink:href="#DejaVuSans-20" transform="translate(1857.759766 0)"/>
      <use xlink:href="#DejaVuSans-2b" transform="translate(1889.546875 0)"/>
      <use xlink:href="#DejaVuSans-2f" transform="translate(1973.335938 0)"/>
      <use xlink:href="#DejaVuSans-2d" transform="translate(2007.027344 0)"/>
      <use xlink:href="#DejaVuSans-31" transform="translate(2043.111328 0)"/>
      <use xlink:href="#DejaVuSans-2e" transform="translate(2106.734375 0)"/>
      <use xlink:href="#DejaVuSans-35" transform="translate(2138.521484 0)"/>
      <use xlink:href="#DejaVuSans-29" transform="translate(2202.144531 0)"/>
     </g>
    </g>
   </g>
   <g id="line2d_69">
    <path d="M 78.814347 293.904345 
L 484.632528 293.904345 
L 484.632528 293.904345 
" clip-path="url(#p41965e491e)" style="fill: none; stroke-dasharray: 1.4,1.4; stroke-dashoffset: 1.4; stroke: #7f7f7f; stroke-width: 1.4"/>
   </g>
   <g id="line2d_70">
    <path d="M 78.814347 293.904345 
L 484.632528 293.904345 
L 484.632528 293.904345 
" clip-path="url(#p41965e491e)" style="fill: none; stroke: #1f77b4; stroke-width: 1.4; stroke-linecap: square"/>
   </g>
   <g id="line2d_71">
    <path d="M 78.814347 293.904955 
L 150.615999 293.904622 
L 189.492033 293.906093 
L 229.161454 293.90568 
L 248.996165 293.907464 
L 283.905256 293.907802 
L 296.202776 293.91279 
L 308.896991 293.909705 
L 318.020958 293.91084 
L 417.194512 293.965534 
L 418.781289 293.992701 
L 419.574677 293.970605 
L 421.161454 293.999608 
L 421.954842 293.976279 
L 423.541619 294.007331 
L 424.335008 293.982653 
L 425.921785 294.016003 
L 426.318479 293.944286 
L 427.111867 294.020745 
L 427.508561 293.945693 
L 428.30195 294.025788 
L 428.698644 293.947181 
L 429.492033 294.031159 
L 429.888727 293.948759 
L 430.682115 294.036885 
L 431.078809 293.950433 
L 431.872198 294.043 
L 432.268892 293.952213 
L 433.06228 294.04954 
L 433.458975 293.954106 
L 434.252363 294.056545 
L 434.649057 293.956124 
L 435.442446 294.064061 
L 435.83914 293.958278 
L 436.632528 294.072137 
L 437.029223 293.960582 
L 437.822611 294.080832 
L 438.219305 293.963049 
L 439.012694 294.090211 
L 439.409388 293.965698 
L 440.202776 294.100347 
L 440.599471 293.968547 
L 441.392859 294.111325 
L 441.789553 293.971616 
L 442.582942 294.123241 
L 442.979636 293.974931 
L 443.773024 294.136203 
L 444.169718 293.97852 
L 444.963107 294.150341 
L 445.359801 293.982414 
L 446.15319 294.165799 
L 446.549884 293.986651 
L 447.343272 294.182749 
L 447.739966 293.991273 
L 448.533355 294.201388 
L 448.930049 293.996331 
L 449.723437 294.22195 
L 450.120132 294.001882 
L 450.91352 294.24471 
L 451.310214 294.007996 
L 452.103603 294.269991 
L 452.500297 294.014754 
L 453.293685 294.298183 
L 453.69038 294.022252 
L 454.483768 294.32975 
L 454.880462 294.030606 
L 455.277157 294.26438 
L 455.673851 294.365255 
L 456.070545 294.039956 
L 456.467239 294.296623 
L 456.863933 294.405382 
L 457.260628 294.050471 
L 457.657322 294.33328 
L 458.054016 294.450971 
L 458.45071 294.062358 
L 458.847404 294.375194 
L 459.244099 294.503063 
L 459.640793 294.075874 
L 460.037487 294.423415 
L 460.434181 294.562957 
L 460.830876 294.09134 
L 461.22757 294.47927 
L 461.624264 294.632297 
L 462.020958 294.109159 
L 462.417652 294.544452 
L 462.814347 294.713181 
L 463.211041 294.129846 
L 463.607735 294.621154 
L 464.004429 294.808327 
L 464.401123 294.154067 
L 464.797818 294.712248 
L 465.194512 294.921301 
L 465.591206 294.182694 
L 465.9879 294.821562 
L 466.384595 295.056859 
L 466.781289 294.216891 
L 467.177983 294.954283 
L 467.574677 295.221457 
L 467.971371 294.258235 
L 468.368066 295.117584 
L 468.76476 295.424037 
L 469.161454 294.308908 
L 469.558148 295.32161 
L 469.954842 295.677271 
L 470.351537 294.372003 
L 470.748231 295.581083 
L 471.144925 295.999595 
L 471.541619 294.452022 
L 471.938314 295.918033 
L 472.335008 296.418673 
L 472.731702 294.555725 
L 473.128396 296.366614 
L 473.52509 296.977558 
L 473.921785 294.693648 
L 474.318479 296.982098 
L 474.715173 297.746237 
L 475.111867 294.882963 
L 475.508561 297.858737 
L 475.905256 298.844736 
L 476.30195 295.153239 
L 476.698644 299.168102 
L 477.095338 300.493175 
L 477.492033 295.559017 
L 477.888727 301.249984 
L 478.285421 303.131807 
L 478.682115 296.210353 
L 479.078809 304.85801 
L 479.475504 307.750552 
L 479.872198 297.358078 
L 480.268892 311.956471 
L 480.665586 316.982436 
L 481.06228 299.684183 
L 481.458975 329.1385 
L 481.855669 339.964043 
L 482.252363 305.651595 
L 482.649057 392.054877 
L 483.045752 429.527216 
L 483.442446 330.911772 
L 483.83914 293.904345 
L 484.632528 293.904345 
L 484.632528 293.904345 
" clip-path="url(#p41965e491e)" style="fill: none; stroke-dasharray: 5.18,2.24; stroke-dashoffset: 0; stroke: #ff7f0e; stroke-width: 1.4"/>
   </g>
   <g id="line2d_72">
    <path d="M 78.814347 293.904345 
L 484.632528 293.904345 
L 484.632528 293.904345 
" clip-path="url(#p41965e491e)" style="fill: none; stroke-dasharray: 8.96,2.24,1.4,2.24; stroke-dashoffset: 0; stroke: #2ca02c; stroke-width: 1.4"/>
   </g>
   <g id="line2d_73">
    <path d="M 78.814347 257.709034 
L 79.211041 293.9714 
L 86.748231 295.125629 
L 93.888727 295.99754 
L 100.632528 296.607491 
L 107.37633 296.994281 
L 113.723438 297.13957 
L 120.070545 297.057515 
L 126.020958 296.759881 
L 131.971371 296.234214 
L 137.52509 295.524521 
L 143.078809 294.589882 
L 146.649057 293.970497 
L 151.806082 295.681137 
L 156.963107 297.165172 
L 162.120132 298.409417 
L 166.880462 299.333024 
L 171.640793 300.028713 
L 176.004429 300.45567 
L 180.368066 300.670691 
L 184.731702 300.663187 
L 189.095338 300.421994 
L 193.06228 299.990045 
L 197.029223 299.345933 
L 200.996165 298.479879 
L 204.963107 297.381612 
L 208.930049 296.040332 
L 212.896991 294.444686 
L 214.087074 293.914621 
L 223.211041 300.212921 
L 226.781289 302.264925 
L 230.351537 304.063168 
L 233.921785 305.596687 
L 237.095338 306.72829 
L 240.268892 307.633192 
L 243.442446 308.302565 
L 246.615999 308.727185 
L 249.392859 308.890389 
L 252.169718 308.852099 
L 254.946578 308.605318 
L 257.723438 308.142762 
L 260.500297 307.456851 
L 263.277157 306.539697 
L 266.054016 305.383082 
L 268.830876 303.978446 
L 271.607735 302.316866 
L 274.384595 300.389039 
L 277.161454 298.185263 
L 279.938314 295.695412 
L 281.52509 294.140149 
L 281.921785 294.211972 
L 285.492033 300.620429 
L 288.665586 305.874578 
L 291.83914 310.693697 
L 294.615999 314.538639 
L 297.392859 318.022584 
L 300.169718 321.131523 
L 302.549884 323.486742 
L 304.930049 325.546008 
L 307.310214 327.299257 
L 309.293685 328.518977 
L 311.277157 329.512597 
L 313.260628 330.273579 
L 315.244099 330.795151 
L 317.22757 331.070288 
L 319.211041 331.091709 
L 321.194512 330.851858 
L 323.177983 330.342891 
L 325.161454 329.556667 
L 327.144925 328.484729 
L 329.128396 327.118286 
L 331.111867 325.448202 
L 333.095338 323.464973 
L 335.078809 321.158711 
L 337.06228 318.51912 
L 339.045752 315.535478 
L 341.029223 312.196611 
L 343.409388 307.704633 
L 345.789553 302.663234 
L 348.169718 297.050203 
L 349.359801 294.022062 
L 350.15319 298.308447 
L 353.723438 318.470112 
L 356.896991 335.157407 
L 360.070545 350.613355 
L 362.847404 363.07045 
L 365.624264 374.477327 
L 368.004429 383.376524 
L 370.384595 391.425598 
L 372.368066 397.455012 
L 374.351537 402.841874 
L 376.335008 407.560349 
L 377.921785 410.835611 
L 379.508561 413.651001 
L 381.095338 415.99117 
L 382.285421 417.424797 
L 383.475504 418.575034 
L 384.665586 419.434573 
L 385.855669 419.995843 
L 387.045752 420.250996 
L 388.235834 420.191891 
L 389.425917 419.810086 
L 390.615999 419.096817 
L 391.806082 418.042984 
L 392.996165 416.639135 
L 394.186247 414.875444 
L 395.37633 412.741694 
L 396.566413 410.227255 
L 398.15319 406.263298 
L 399.739966 401.575328 
L 401.326743 396.134277 
L 402.91352 389.909392 
L 404.500297 382.86811 
L 406.087074 374.975911 
L 408.070545 363.858026 
L 410.054016 351.276516 
L 412.037487 337.148524 
L 414.020958 321.384298 
L 416.004429 303.886408 
L 416.797818 296.378392 
L 417.194512 293.904345 
L 484.632528 293.904345 
L 484.632528 293.904345 
" clip-path="url(#p41965e491e)" style="fill: none; stroke-dasharray: 1.4,2.31; stroke-dashoffset: 0; stroke: #d62728; stroke-width: 1.4"/>
   </g>
   <g id="line2d_74">
    <path d="M 78.814347 293.924709 
L 81.9879 293.840835 
L 82.384595 293.96781 
L 85.558148 293.838244 
L 85.954842 293.959399 
L 87.938314 293.853806 
L 88.335008 293.970956 
L 90.318479 293.845088 
L 90.715173 293.958131 
L 92.30195 293.842207 
L 92.698644 293.951748 
L 93.888727 293.855262 
L 94.285421 293.961967 
L 95.475504 293.856842 
L 95.872198 293.960623 
L 97.06228 293.846712 
L 97.458975 293.94754 
L 98.252363 293.866393 
L 98.649057 293.964973 
L 99.83914 293.835324 
L 100.235834 293.930862 
L 101.029223 293.839068 
L 101.425917 293.932291 
L 102.219305 293.835836 
L 102.615999 293.926713 
L 103.012694 293.876522 
L 103.409388 293.965819 
L 104.202776 293.861465 
L 104.599471 293.948367 
L 105.392859 293.839191 
L 105.789553 293.923668 
L 106.186247 293.867048 
L 106.582942 293.94989 
L 106.979636 293.891629 
L 107.37633 293.972822 
L 108.169718 293.852157 
L 108.566413 293.930851 
L 108.963107 293.868425 
L 109.359801 293.945437 
L 109.756495 293.88132 
L 110.15319 293.956633 
L 110.549884 293.890811 
L 110.946578 293.964412 
L 111.343272 293.89687 
L 111.739966 293.968744 
L 112.136661 293.899468 
L 112.533355 293.969602 
L 112.930049 293.898577 
L 113.326743 293.966952 
L 113.723438 293.894163 
L 114.120132 293.960766 
L 114.516826 293.886198 
L 114.91352 293.951014 
L 115.310214 293.874651 
L 115.706909 293.937666 
L 116.103603 293.859494 
L 116.500297 293.920691 
L 116.896991 293.840693 
L 117.69038 293.958499 
L 118.087074 293.875735 
L 118.483768 293.93232 
L 118.880462 293.847691 
L 119.673851 293.956174 
L 120.070545 293.868719 
L 120.863933 293.971513 
L 121.260628 293.881194 
L 121.657322 293.930193 
L 122.054016 293.837945 
L 122.847404 293.931094 
L 123.244099 293.835921 
L 124.434181 293.965328 
L 124.830876 293.866197 
L 125.624264 293.94549 
L 126.020958 293.843346 
L 127.211041 293.951657 
L 127.607735 293.845434 
L 129.194512 293.971469 
L 129.591206 293.860048 
L 131.177983 293.964913 
L 131.574677 293.848182 
L 133.954842 293.966728 
L 134.351537 293.84237 
L 139.905256 293.94668 
L 167.673851 293.929872 
L 168.070545 293.972436 
L 168.467239 293.873118 
L 169.260628 293.950202 
L 169.657322 293.846031 
L 170.847404 293.944537 
L 171.244099 293.833795 
L 173.22757 293.966449 
L 173.624264 293.845631 
L 177.9879 293.94549 
L 208.136661 293.842239 
L 208.533355 293.958854 
L 210.120132 293.838764 
L 210.516826 293.942604 
L 211.310214 293.861942 
L 211.706909 293.957977 
L 212.500297 293.861594 
L 212.896991 293.949714 
L 213.69038 293.837392 
L 214.087074 293.917487 
L 214.483768 293.854602 
L 214.880462 293.929285 
L 215.277157 293.860983 
L 215.673851 293.930204 
L 216.070545 293.856396 
L 216.467239 293.920105 
L 216.863933 293.840758 
L 217.657322 293.954248 
L 218.054016 293.866498 
L 218.847404 293.963064 
L 219.244099 293.866792 
L 220.037487 293.946197 
L 220.434181 293.841285 
L 222.020958 293.953557 
L 222.417652 293.833974 
L 225.9879 293.885931 
L 227.177983 293.847492 
L 227.574677 293.968685 
L 230.748231 293.84118 
L 231.144925 293.933377 
L 231.541619 293.881992 
L 231.938314 293.967573 
L 232.731702 293.848169 
L 233.128396 293.923714 
L 233.52509 293.8556 
L 233.921785 293.924373 
L 234.318479 293.849456 
L 235.111867 293.969889 
L 235.508561 293.884665 
L 235.905256 293.936227 
L 236.30195 293.844017 
L 237.492033 293.967112 
L 237.888727 293.860769 
L 239.872198 293.976479 
L 240.268892 293.848423 
L 245.822611 293.905753 
L 246.219305 293.860884 
L 246.615999 293.952339 
L 247.409388 293.842747 
L 247.806082 293.922222 
L 248.202776 293.857386 
L 248.599471 293.928776 
L 248.996165 293.855814 
L 249.392859 293.919041 
L 249.789553 293.837875 
L 250.582942 293.94369 
L 250.979636 293.850069 
L 252.169718 293.964828 
L 252.566413 293.854313 
L 255.343272 293.941777 
L 264.467239 293.916693 
L 265.260628 293.966083 
L 265.657322 293.842995 
L 270.417652 293.929727 
L 270.814347 293.879433 
L 271.211041 293.96404 
L 272.004429 293.836448 
L 272.797818 293.967574 
L 273.194512 293.884596 
L 273.591206 293.936509 
L 273.9879 293.842412 
L 275.574677 293.970836 
L 275.971371 293.848438 
L 279.541619 293.887431 
L 279.938314 293.846476 
L 280.335008 293.939749 
L 280.731702 293.886657 
L 281.128396 293.967728 
L 281.52509 293.902371 
L 281.921785 293.971115 
L 282.318479 293.893364 
L 282.715173 293.949647 
L 283.111867 293.859371 
L 284.30195 293.971383 
L 284.698644 293.856914 
L 287.078809 293.867711 
L 287.475504 293.846427 
L 287.872198 293.958735 
L 289.855669 293.857592 
L 290.252363 293.929013 
L 290.649057 293.85321 
L 291.442446 293.961189 
L 291.83914 293.864334 
L 293.425917 293.966722 
L 293.822611 293.834016 
L 294.219305 293.834304 
L 294.615999 293.967702 
L 298.582942 293.906321 
L 298.979636 293.956307 
L 299.37633 293.858172 
L 301.359801 293.95006 
L 308.500297 293.838427 
L 308.896991 293.959788 
L 310.880462 293.869565 
L 311.277157 293.936355 
L 311.673851 293.853403 
L 312.863933 293.969028 
L 313.260628 293.848319 
L 320.004429 293.933333 
L 321.9879 293.860035 
L 322.384595 293.925176 
L 322.781289 293.839079 
L 324.76476 293.943477 
L 327.938314 293.936794 
L 328.335008 293.970728 
L 328.731702 293.852385 
L 334.682115 293.894482 
L 335.078809 293.854329 
L 335.475504 293.941127 
L 335.872198 293.874226 
L 336.268892 293.934103 
L 336.665586 293.84027 
L 338.252363 293.887827 
L 338.649057 293.864872 
L 339.045752 293.968081 
L 340.235834 293.911553 
L 340.632528 293.957381 
L 341.029223 293.848347 
L 343.806082 293.932628 
L 344.202776 293.843766 
L 345.789553 293.89382 
L 346.186247 293.866899 
L 346.582942 293.964277 
L 347.773024 293.879042 
L 349.359801 293.90895 
L 349.756495 293.874545 
L 350.15319 293.963443 
L 350.549884 293.894964 
L 350.946578 293.949555 
L 351.739966 293.876371 
L 367.607735 293.940548 
L 368.004429 293.828813 
L 368.401123 293.974032 
L 371.971371 293.907839 
L 373.161454 293.948109 
L 373.558148 293.909588 
L 373.954842 293.985036 
L 374.748231 293.917135 
L 379.905256 293.917494 
L 380.30195 293.972802 
L 380.698644 293.847615 
L 381.095338 293.972544 
L 383.078809 293.851058 
L 383.475504 293.928119 
L 384.268892 293.844795 
L 384.665586 293.964429 
L 385.458975 293.823397 
L 385.855669 293.984264 
L 389.822611 293.940222 
L 390.219305 293.989283 
L 390.615999 293.860569 
L 391.012694 293.916158 
L 391.806082 293.888995 
L 401.723438 293.950643 
L 402.516826 293.937323 
L 403.310214 293.862159 
L 403.706909 293.957939 
L 404.103603 293.862611 
L 404.500297 293.993971 
L 405.293685 293.956355 
L 406.087074 293.841951 
L 406.483768 293.982334 
L 407.673851 293.924463 
L 412.830876 293.864159 
L 413.22757 293.944843 
L 413.624264 293.81737 
L 414.417652 293.917215 
L 415.607735 293.829403 
L 416.004429 293.979893 
L 416.797818 293.919187 
L 419.971371 293.904345 
L 484.632528 293.904345 
L 484.632528 293.904345 
" clip-path="url(#p41965e491e)" style="fill: none; stroke-dasharray: 4.2,1.4,1.4,1.4; stroke-dashoffset: 0; stroke: #9467bd; stroke-width: 1.4"/>
   </g>
   <g id="line2d_75">
    <path d="M 78.814347 293.904345 
L 405.293685 293.90037 
L 408.467239 293.910598 
L 415.607735 293.897171 
L 417.9879 293.900253 
L 423.144925 293.898431 
L 425.52509 293.901586 
L 429.492033 293.898066 
L 431.475504 293.912528 
L 436.235834 293.88563 
L 437.822611 293.914757 
L 440.996165 293.894573 
L 442.186247 293.897412 
L 444.963107 293.887785 
L 446.549884 293.925694 
L 450.120132 293.882164 
L 450.91352 293.903179 
L 452.500297 293.888716 
L 453.293685 293.911867 
L 455.277157 293.874061 
L 456.070545 293.900685 
L 457.657322 293.881355 
L 458.45071 293.910804 
L 460.434181 293.862042 
L 461.22757 293.89565 
L 462.814347 293.870435 
L 463.607735 293.906145 
L 465.194512 293.88042 
L 465.591206 293.957981 
L 466.781289 293.84847 
L 467.177983 293.932567 
L 467.971371 293.853427 
L 468.368066 293.943197 
L 469.161454 293.857207 
L 469.558148 293.956657 
L 470.351537 293.864857 
L 470.748231 293.972338 
L 471.541619 293.871249 
L 471.938314 293.990874 
L 473.128396 293.817726 
L 473.52509 293.952874 
L 474.318479 293.822127 
L 474.715173 293.974978 
L 475.508561 293.827158 
L 475.905256 294.002643 
L 476.698644 293.834956 
L 477.095338 294.038555 
L 478.285421 293.731184 
L 478.682115 293.979078 
L 479.475504 293.715359 
L 479.872198 294.030556 
L 480.665586 293.695328 
L 481.06228 294.117726 
L 481.855669 293.662645 
L 482.252363 294.286172 
L 482.649057 294.006517 
L 483.045752 293.583471 
L 483.442446 294.783769 
L 483.83914 294.339473 
L 484.235834 293.126179 
L 484.632528 277.694788 
L 484.632528 277.694788 
" clip-path="url(#p41965e491e)" style="fill: none; stroke-dasharray: 7,1.4; stroke-dashoffset: 0; stroke: #8c564b; stroke-width: 1.4"/>
   </g>
   <g id="line2d_76">
    <path d="M 58.523438 293.904345 
L 504.923437 293.904345 
" clip-path="url(#p41965e491e)" style="fill: none; stroke: #808080; stroke-width: 0.6; stroke-linecap: square"/>
   </g>
   <g id="patch_9">
    <path d="M 58.523438 438.118125 
L 58.523438 249.118125 
" style="fill: none; stroke: #000000; stroke-width: 0.8; stroke-linejoin: miter; stroke-linecap: square"/>
   </g>
   <g id="patch_10">
    <path d="M 504.923437 438.118125 
L 504.923437 249.118125 
" style="fill: none; stroke: #000000; stroke-width: 0.8; stroke-linejoin: miter; stroke-linecap: square"/>
   </g>
   <g id="patch_11">
    <path d="M 58.523438 438.118125 
L 504.923438 438.118125 
" style="fill: none; stroke: #000000; stroke-width: 0.8; stroke-linejoin: miter; stroke-linecap: square"/>
   </g>
   <g id="patch_12">
    <path d="M 58.523438 249.118125 
L 504.923438 249.118125 
" style="fill: none; stroke: #000000; stroke-width: 0.8; stroke-linejoin: miter; stroke-linecap: square"/>
   </g>
   <g id="text_32">
    <!-- Log-domain error vs DirectEvaluation reference -->
    <g transform="translate(139.277812 243.118125) scale(0.12 -0.12)">
     <use xlink:href="#DejaVuSans-4c"/>
     <use xlink:href="#DejaVuSans-6f" transform="translate(53.962891 0)"/>
     <use xlink:href="#DejaVuSans-67" transform="translate(115.144531 0)"/>
     <use xlink:href="#DejaVuSans-2d" transform="translate(178.621094 0)"/>
     <use xlink:href="#DejaVuSans-64" transform="translate(214.705078 0)"/>
     <use xlink:href="#DejaVuSans-6f" transform="translate(278.181641 0)"/>
     <use xlink:href="#DejaVuSans-6d" transform="translate(339.363281 0)"/>
     <use xlink:href="#DejaVuSans-61" transform="translate(436.775391 0)"/>
     <use xlink:href="#DejaVuSans-69" transform="translate(498.054688 0)"/>
     <use xlink:href="#DejaVuSans-6e" transform="translate(525.837891 0)"/>
     <use xlink:href="#DejaVuSans-20" transform="translate(589.216797 0)"/>
     <use xlink:href="#DejaVuSans-65" transform="translate(621.003906 0)"/>
     <use xlink:href="#DejaVuSans-72" transform="translate(682.527344 0)"/>
     <use xlink:href="#DejaVuSans-72" transform="translate(721.890625 0)"/>
     <use xlink:href="#DejaVuSans-6f" transform="translate(760.753906 0)"/>
     <use xlink:href="#DejaVuSans-72" transform="translate(821.935547 0)"/>
     <use xlink:href="#DejaVuSans-20" transform="translate(863.048828 0)"/>
     <use xlink:href="#DejaVuSans-76" transform="translate(894.835938 0)"/>
     <use xlink:href="#DejaVuSans-73" transform="translate(954.015625 0)"/>
     <use xlink:href="#DejaVuSans-20" transform="translate(1006.115234 0)"/>
     <use xlink:href="#DejaVuSans-44" transform="translate(1037.902344 0)"/>
     <use xlink:href="#DejaVuSans-69" transform="translate(1114.904297 0)"/>
     <use xlink:href="#DejaVuSans-72" transform="translate(1142.6875 0)"/>
     <use xlink:href="#DejaVuSans-65" transform="translate(1181.550781 0)"/>
     <use xlink:href="#DejaVuSans-63" transform="translate(1243.074219 0)"/>
     <use xlink:href="#DejaVuSans-74" transform="translate(1298.054688 0)"/>
     <use xlink:href="#DejaVuSans-45" transform="translate(1337.263672 0)"/>
     <use xlink:href="#DejaVuSans-76" transform="translate(1400.447266 0)"/>
     <use xlink:href="#DejaVuSans-61" transform="translate(1459.626953 0)"/>
     <use xlink:href="#DejaVuSans-6c" transform="translate(1520.90625 0)"/>
     <use xlink:href="#DejaVuSans-75" transform="translate(1548.689453 0)"/>
     <use xlink:href="#DejaVuSans-61" transform="translate(1612.068359 0)"/>
     <use xlink:href="#DejaVuSans-74" transform="translate(1673.347656 0)"/>
     <use xlink:href="#DejaVuSans-69" transform="translate(1712.556641 0)"/>
     <use xlink:href="#DejaVuSans-6f" transform="translate(1740.339844 0)"/>
     <use xlink:href="#DejaVuSans-6e" transform="translate(1801.521484 0)"/>
     <use xlink:href="#DejaVuSans-20" transform="translate(1864.900391 0)"/>
     <use xlink:href="#DejaVuSans-72" transform="translate(1896.6875 0)"/>
     <use xlink:href="#DejaVuSans-65" transform="translate(1935.550781 0)"/>
     <use xlink:href="#DejaVuSans-66" transform="translate(1997.074219 0)"/>
     <use xlink:href="#DejaVuSans-65" transform="translate(2032.279297 0)"/>
     <use xlink:href="#DejaVuSans-72" transform="translate(2093.802734 0)"/>
     <use xlink:href="#DejaVuSans-65" transform="translate(2132.666016 0)"/>
     <use xlink:href="#DejaVuSans-6e" transform="translate(2194.189453 0)"/>
     <use xlink:href="#DejaVuSans-63" transform="translate(2257.568359 0)"/>
     <use xlink:href="#DejaVuSans-65" transform="translate(2312.548828 0)"/>
    </g>
   </g>
  </g>
 </g>
 <defs>
  <clipPath id="pe8c9723a12">
   <rect x="58.523438" y="22.318125" width="446.4" height="189"/>
  </clipPath>
  <clipPath id="p41965e491e">
   <rect x="58.523438" y="249.118125" width="446.4" height="189"/>
  </clipPath>
 </defs>
</svg>
