<?xml version="1.0" encoding="utf-8" standalone="no"?>
<!DOCTYPE svg PUBLIC "-//W3C//DTD SVG 1.1//EN"
  "http://www.w3.org/Graphics/SVG/1.1/DTD/svg11.dtd">
<svg xmlns:xlink="http://www.w3.org/1999/xlink" width="512.123438pt" height="475.674375pt" viewBox="0 0 512.123438 475.674375" xmlns="http://www.w3.org/2000/svg" version="1.1">
 <metadata>
  <rdf:RDF xmlns:dc="http://purl.org/dc/elements/1.1/" xmlns:cc="http://creativecommons.org/ns#" xmlns:rdf="http://www.w3.org/1999/02/22-rdf-syntax-ns#">
   <cc:Work>
    <dc:type rdf:resource="http://purl.org/dc/dcmitype/StillImage"/>
    <dc:date>2026-05-20T07:54:21.934431</dc:date>
    <dc:format>image/svg+xml</dc:format>
    <dc:creator>
     <cc:Agent>
      <dc:title>Matplotlib v3.10.3, https://matplotlib.org/</dc:title>
     </cc:Agent>
    </dc:creator>
   </cc:Work>
  </rdf:RDF>
 </metadata>
 <defs>
  <style type="text/css">*{stroke-linejoin: round; stroke-linecap: butt}</style>
 </defs>
 <g id="figure_1">
  <g id="patch_1">
   <path d="M 0 475.674375 
L 512.123438 475.674375 
L 512.123438 0 
L 0 0 
z
" style="fill: #ffffff"/>
  </g>
  <g id="axes_1">
   <g id="patch_2">
    <path d="M 58.523438 211.318125 
L 504.923437 211.318125 
L 504.923437 22.318125 
L 58.523438 22.318125 
z
" style="fill: #ffffff"/>
   </g>
   <g id="matplotlib.axis_1">
    <g id="xtick_1">
     <g id="line2d_1">
      <path d="M 78.814347 211.318125 
L 78.814347 22.318125 
" clip-path="url(#p10680006cc)" style="fill: none; stroke: #b0b0b0; stroke-opacity: 0.3; stroke-width: 0.8; stroke-linecap: square"/>
     </g>
     <g id="line2d_2">
      <defs>
       <path id="m539abbf13c" d="M 0 0 
L 0 3.5 
" style="stroke: #000000; stroke-width: 0.8"/>
      </defs>
      <g>
       <use xlink:href="#m539abbf13c" x="78.814347" y="211.318125" style="stroke: #000000; stroke-width: 0.8"/>
      </g>
     </g>
    </g>
    <g id="xtick_2">
     <g id="line2d_3">
      <path d="M 146.461985 211.318125 
L 146.461985 22.318125 
" clip-path="url(#p10680006cc)" style="fill: none; stroke: #b0b0b0; stroke-opacity: 0.3; stroke-width: 0.8; stroke-linecap: square"/>
     </g>
     <g id="line2d_4">
      <g>
       <use xlink:href="#m539abbf13c" x="146.461985" y="211.318125" style="stroke: #000000; stroke-width: 0.8"/>
      </g>
     </g>
    </g>
    <g id="xtick_3">
     <g id="line2d_5">
      <path d="M 214.109623 211.318125 
L 214.109623 22.318125 
" clip-path="url(#p10680006cc)" style="fill: none; stroke: #b0b0b0; stroke-opacity: 0.3; stroke-width: 0.8; stroke-linecap: square"/>
     </g>
     <g id="line2d_6">
      <g>
       <use xlink:href="#m539abbf13c" x="214.109623" y="211.318125" style="stroke: #000000; stroke-width: 0.8"/>
      </g>
     </g>
    </g>
    <g id="xtick_4">
     <g id="line2d_7">
      <path d="M 281.757261 211.318125 
L 281.757261 22.318125 
" clip-path="url(#p10680006cc)" style="fill: none; stroke: #b0b0b0; stroke-opacity: 0.3; stroke-width: 0.8; stroke-linecap: square"/>
     </g>
     <g id="line2d_8">
      <g>
       <use xlink:href="#m539abbf13c" x="281.757261" y="211.318125" style="stroke: #000000; stroke-width: 0.8"/>
      </g>
     </g>
    </g>
    <g id="xtick_5">
     <g id="line2d_9">
      <path d="M 349.4049 211.318125 
L 349.4049 22.318125 
" clip-path="url(#p10680006cc)" style="fill: none; stroke: #b0b0b0; stroke-opacity: 0.3; stroke-width: 0.8; stroke-linecap: square"/>
     </g>
     <g id="line2d_10">
      <g>
       <use xlink:href="#m539abbf13c" x="349.4049" y="211.318125" style="stroke: #000000; stroke-width: 0.8"/>
      </g>
     </g>
    </g>
    <g id="xtick_6">
     <g id="line2d_11">
      <path d="M 417.052538 211.318125 
L 417.052538 22.318125 
" clip-path="url(#p10680006cc)" style="fill: none; stroke: #b0b0b0; stroke-opacity: 0.3; stroke-width: 0.8; stroke-linecap: square"/>
     </g>
     <g id="line2d_12">
      <g>
       <use xlink:href="#m539abbf13c" x="417.052538" y="211.318125" style="stroke: #000000; stroke-width: 0.8"/>
      </g>
     </g>
    </g>
    <g id="xtick_7">
     <g id="line2d_13">
      <path d="M 484.700176 211.318125 
L 484.700176 22.318125 
" clip-path="url(#p10680006cc)" style="fill: none; stroke: #b0b0b0; stroke-opacity: 0.3; stroke-width: 0.8; stroke-linecap: square"/>
     </g>
     <g id="line2d_14">
      <g>
       <use xlink:href="#m539abbf13c" x="484.700176" y="211.318125" style="stroke: #000000; stroke-width: 0.8"/>
      </g>
     </g>
    </g>
   </g>
   <g id="matplotlib.axis_2">
    <g id="ytick_1">
     <g id="line2d_15">
      <path d="M 58.523438 211.318125 
L 504.923437 211.318125 
" clip-path="url(#p10680006cc)" style="fill: none; stroke: #b0b0b0; stroke-opacity: 0.3; stroke-width: 0.8; stroke-linecap: square"/>
     </g>
     <g id="line2d_16">
      <defs>
       <path id="m6b02fc8d87" d="M 0 0 
L -3.5 0 
" style="stroke: #000000; stroke-width: 0.8"/>
      </defs>
      <g>
       <use xlink:href="#m6b02fc8d87" x="58.523438" y="211.318125" style="stroke: #000000; stroke-width: 0.8"/>
      </g>
     </g>
     <g id="text_1">
      <!-- −12 -->
      <g transform="translate(30.41875 215.117344) scale(0.1 -0.1)">
       <defs>
        <path id="DejaVuSans-2212" d="M 678 2272 
L 4684 2272 
L 4684 1741 
L 678 1741 
L 678 2272 
z
" transform="scale(0.015625)"/>
        <path id="DejaVuSans-31" d="M 794 531 
L 1825 531 
L 1825 4091 
L 703 3866 
L 703 4441 
L 1819 4666 
L 2450 4666 
L 2450 531 
L 3481 531 
L 3481 0 
L 794 0 
L 794 531 
z
" transform="scale(0.015625)"/>
        <path id="DejaVuSans-32" d="M 1228 531 
L 3431 531 
L 3431 0 
L 469 0 
L 469 531 
Q 828 903 1448 1529 
Q 2069 2156 2228 2338 
Q 2531 2678 2651 2914 
Q 2772 3150 2772 3378 
Q 2772 3750 2511 3984 
Q 2250 4219 1831 4219 
Q 1534 4219 1204 4116 
Q 875 4013 500 3803 
L 500 4441 
Q 881 4594 1212 4672 
Q 1544 4750 1819 4750 
Q 2544 4750 2975 4387 
Q 3406 4025 3406 3419 
Q 3406 3131 3298 2873 
Q 3191 2616 2906 2266 
Q 2828 2175 2409 1742 
Q 1991 1309 1228 531 
z
" transform="scale(0.015625)"/>
       </defs>
       <use xlink:href="#DejaVuSans-2212"/>
       <use xlink:href="#DejaVuSans-31" transform="translate(83.789062 0)"/>
       <use xlink:href="#DejaVuSans-32" transform="translate(147.412109 0)"/>
      </g>
     </g>
    </g>
    <g id="ytick_2">
     <g id="line2d_17">
      <path d="M 58.523438 181.078125 
L 504.923437 181.078125 
" clip-path="url(#p10680006cc)" style="fill: none; stroke: #b0b0b0; stroke-opacity: 0.3; stroke-width: 0.8; stroke-linecap: square"/>
     </g>
     <g id="line2d_18">
      <g>
       <use xlink:href="#m6b02fc8d87" x="58.523438" y="181.078125" style="stroke: #000000; stroke-width: 0.8"/>
      </g>
     </g>
     <g id="text_2">
      <!-- −10 -->
      <g transform="translate(30.41875 184.877344) scale(0.1 -0.1)">
       <defs>
        <path id="DejaVuSans-30" d="M 2034 4250 
Q 1547 4250 1301 3770 
Q 1056 3291 1056 2328 
Q 1056 1369 1301 889 
Q 1547 409 2034 409 
Q 2525 409 2770 889 
Q 3016 1369 3016 2328 
Q 3016 3291 2770 3770 
Q 2525 4250 2034 4250 
z
M 2034 4750 
Q 2819 4750 3233 4129 
Q 3647 3509 3647 2328 
Q 3647 1150 3233 529 
Q 2819 -91 2034 -91 
Q 1250 -91 836 529 
Q 422 1150 422 2328 
Q 422 3509 836 4129 
Q 1250 4750 2034 4750 
z
" transform="scale(0.015625)"/>
       </defs>
       <use xlink:href="#DejaVuSans-2212"/>
       <use xlink:href="#DejaVuSans-31" transform="translate(83.789062 0)"/>
       <use xlink:href="#DejaVuSans-30" transform="translate(147.412109 0)"/>
      </g>
     </g>
    </g>
    <g id="ytick_3">
     <g id="line2d_19">
      <path d="M 58.523438 150.838125 
L 504.923437 150.838125 
" clip-path="url(#p10680006cc)" style="fill: none; stroke: #b0b0b0; stroke-opacity: 0.3; stroke-width: 0.8; stroke-linecap: square"/>
     </g>
     <g id="line2d_20">
      <g>
       <use xlink:href="#m6b02fc8d87" x="58.523438" y="150.838125" style="stroke: #000000; stroke-width: 0.8"/>
      </g>
     </g>
     <g id="text_3">
      <!-- −8 -->
      <g transform="translate(36.78125 154.637344) scale(0.1 -0.1)">
       <defs>
        <path id="DejaVuSans-38" d="M 2034 2216 
Q 1584 2216 1326 1975 
Q 1069 1734 1069 1313 
Q 1069 891 1326 650 
Q 1584 409 2034 409 
Q 2484 409 2743 651 
Q 3003 894 3003 1313 
Q 3003 1734 2745 1975 
Q 2488 2216 2034 2216 
z
M 1403 2484 
Q 997 2584 770 2862 
Q 544 3141 544 3541 
Q 544 4100 942 4425 
Q 1341 4750 2034 4750 
Q 2731 4750 3128 4425 
Q 3525 4100 3525 3541 
Q 3525 3141 3298 2862 
Q 3072 2584 2669 2484 
Q 3125 2378 3379 2068 
Q 3634 1759 3634 1313 
Q 3634 634 3220 271 
Q 2806 -91 2034 -91 
Q 1263 -91 848 271 
Q 434 634 434 1313 
Q 434 1759 690 2068 
Q 947 2378 1403 2484 
z
M 1172 3481 
Q 1172 3119 1398 2916 
Q 1625 2713 2034 2713 
Q 2441 2713 2670 2916 
Q 2900 3119 2900 3481 
Q 2900 3844 2670 4047 
Q 2441 4250 2034 4250 
Q 1625 4250 1398 4047 
Q 1172 3844 1172 3481 
z
" transform="scale(0.015625)"/>
       </defs>
       <use xlink:href="#DejaVuSans-2212"/>
       <use xlink:href="#DejaVuSans-38" transform="translate(83.789062 0)"/>
      </g>
     </g>
    </g>
    <g id="ytick_4">
     <g id="line2d_21">
      <path d="M 58.523438 120.598125 
L 504.923437 120.598125 
" clip-path="url(#p10680006cc)" style="fill: none; stroke: #b0b0b0; stroke-opacity: 0.3; stroke-width: 0.8; stroke-linecap: square"/>
     </g>
     <g id="line2d_22">
      <g>
       <use xlink:href="#m6b02fc8d87" x="58.523438" y="120.598125" style="stroke: #000000; stroke-width: 0.8"/>
      </g>
     </g>
     <g id="text_4">
      <!-- −6 -->
      <g transform="translate(36.78125 124.397344) scale(0.1 -0.1)">
       <defs>
        <path id="DejaVuSans-36" d="M 2113 2584 
Q 1688 2584 1439 2293 
Q 1191 2003 1191 1497 
Q 1191 994 1439 701 
Q 1688 409 2113 409 
Q 2538 409 2786 701 
Q 3034 994 3034 1497 
Q 3034 2003 2786 2293 
Q 2538 2584 2113 2584 
z
M 3366 4563 
L 3366 3988 
Q 3128 4100 2886 4159 
Q 2644 4219 2406 4219 
Q 1781 4219 1451 3797 
Q 1122 3375 1075 2522 
Q 1259 2794 1537 2939 
Q 1816 3084 2150 3084 
Q 2853 3084 3261 2657 
Q 3669 2231 3669 1497 
Q 3669 778 3244 343 
Q 2819 -91 2113 -91 
Q 1303 -91 875 529 
Q 447 1150 447 2328 
Q 447 3434 972 4092 
Q 1497 4750 2381 4750 
Q 2619 4750 2861 4703 
Q 3103 4656 3366 4563 
z
" transform="scale(0.015625)"/>
       </defs>
       <use xlink:href="#DejaVuSans-2212"/>
       <use xlink:href="#DejaVuSans-36" transform="translate(83.789062 0)"/>
      </g>
     </g>
    </g>
    <g id="ytick_5">
     <g id="line2d_23">
      <path d="M 58.523438 90.358125 
L 504.923437 90.358125 
" clip-path="url(#p10680006cc)" style="fill: none; stroke: #b0b0b0; stroke-opacity: 0.3; stroke-width: 0.8; stroke-linecap: square"/>
     </g>
     <g id="line2d_24">
      <g>
       <use xlink:href="#m6b02fc8d87" x="58.523438" y="90.358125" style="stroke: #000000; stroke-width: 0.8"/>
      </g>
     </g>
     <g id="text_5">
      <!-- −4 -->
      <g transform="translate(36.78125 94.157344) scale(0.1 -0.1)">
       <defs>
        <path id="DejaVuSans-34" d="M 2419 4116 
L 825 1625 
L 2419 1625 
L 2419 4116 
z
M 2253 4666 
L 3047 4666 
L 3047 1625 
L 3713 1625 
L 3713 1100 
L 3047 1100 
L 3047 0 
L 2419 0 
L 2419 1100 
L 313 1100 
L 313 1709 
L 2253 4666 
z
" transform="scale(0.015625)"/>
       </defs>
       <use xlink:href="#DejaVuSans-2212"/>
       <use xlink:href="#DejaVuSans-34" transform="translate(83.789062 0)"/>
      </g>
     </g>
    </g>
    <g id="ytick_6">
     <g id="line2d_25">
      <path d="M 58.523438 60.118125 
L 504.923437 60.118125 
" clip-path="url(#p10680006cc)" style="fill: none; stroke: #b0b0b0; stroke-opacity: 0.3; stroke-width: 0.8; stroke-linecap: square"/>
     </g>
     <g id="line2d_26">
      <g>
       <use xlink:href="#m6b02fc8d87" x="58.523438" y="60.118125" style="stroke: #000000; stroke-width: 0.8"/>
      </g>
     </g>
     <g id="text_6">
      <!-- −2 -->
      <g transform="translate(36.78125 63.917344) scale(0.1 -0.1)">
       <use xlink:href="#DejaVuSans-2212"/>
       <use xlink:href="#DejaVuSans-32" transform="translate(83.789062 0)"/>
      </g>
     </g>
    </g>
    <g id="ytick_7">
     <g id="line2d_27">
      <path d="M 58.523438 29.878125 
L 504.923437 29.878125 
" clip-path="url(#p10680006cc)" style="fill: none; stroke: #b0b0b0; stroke-opacity: 0.3; stroke-width: 0.8; stroke-linecap: square"/>
     </g>
     <g id="line2d_28">
      <g>
       <use xlink:href="#m6b02fc8d87" x="58.523438" y="29.878125" style="stroke: #000000; stroke-width: 0.8"/>
      </g>
     </g>
     <g id="text_7">
      <!-- 0 -->
      <g transform="translate(45.160938 33.677344) scale(0.1 -0.1)">
       <use xlink:href="#DejaVuSans-30"/>
      </g>
     </g>
    </g>
    <g id="text_8">
     <!-- sb_sub(d) -->
     <g transform="translate(24.060938 141.120469) rotate(-90) scale(0.1 -0.1)">
      <defs>
       <path id="DejaVuSans-73" d="M 2834 3397 
L 2834 2853 
Q 2591 2978 2328 3040 
Q 2066 3103 1784 3103 
Q 1356 3103 1142 2972 
Q 928 2841 928 2578 
Q 928 2378 1081 2264 
Q 1234 2150 1697 2047 
L 1894 2003 
Q 2506 1872 2764 1633 
Q 3022 1394 3022 966 
Q 3022 478 2636 193 
Q 2250 -91 1575 -91 
Q 1294 -91 989 -36 
Q 684 19 347 128 
L 347 722 
Q 666 556 975 473 
Q 1284 391 1588 391 
Q 1994 391 2212 530 
Q 2431 669 2431 922 
Q 2431 1156 2273 1281 
Q 2116 1406 1581 1522 
L 1381 1569 
Q 847 1681 609 1914 
Q 372 2147 372 2553 
Q 372 3047 722 3315 
Q 1072 3584 1716 3584 
Q 2034 3584 2315 3537 
Q 2597 3491 2834 3397 
z
" transform="scale(0.015625)"/>
       <path id="DejaVuSans-62" d="M 3116 1747 
Q 3116 2381 2855 2742 
Q 2594 3103 2138 3103 
Q 1681 3103 1420 2742 
Q 1159 2381 1159 1747 
Q 1159 1113 1420 752 
Q 1681 391 2138 391 
Q 2594 391 2855 752 
Q 3116 1113 3116 1747 
z
M 1159 2969 
Q 1341 3281 1617 3432 
Q 1894 3584 2278 3584 
Q 2916 3584 3314 3078 
Q 3713 2572 3713 1747 
Q 3713 922 3314 415 
Q 2916 -91 2278 -91 
Q 1894 -91 1617 61 
Q 1341 213 1159 525 
L 1159 0 
L 581 0 
L 581 4863 
L 1159 4863 
L 1159 2969 
z
" transform="scale(0.015625)"/>
       <path id="DejaVuSans-5f" d="M 3263 -1063 
L 3263 -1509 
L -63 -1509 
L -63 -1063 
L 3263 -1063 
z
" transform="scale(0.015625)"/>
       <path id="DejaVuSans-75" d="M 544 1381 
L 544 3500 
L 1119 3500 
L 1119 1403 
Q 1119 906 1312 657 
Q 1506 409 1894 409 
Q 2359 409 2629 706 
Q 2900 1003 2900 1516 
L 2900 3500 
L 3475 3500 
L 3475 0 
L 2900 0 
L 2900 538 
Q 2691 219 2414 64 
Q 2138 -91 1772 -91 
Q 1169 -91 856 284 
Q 544 659 544 1381 
z
M 1991 3584 
L 1991 3584 
z
" transform="scale(0.015625)"/>
       <path id="DejaVuSans-28" d="M 1984 4856 
Q 1566 4138 1362 3434 
Q 1159 2731 1159 2009 
Q 1159 1288 1364 580 
Q 1569 -128 1984 -844 
L 1484 -844 
Q 1016 -109 783 600 
Q 550 1309 550 2009 
Q 550 2706 781 3412 
Q 1013 4119 1484 4856 
L 1984 4856 
z
" transform="scale(0.015625)"/>
       <path id="DejaVuSans-64" d="M 2906 2969 
L 2906 4863 
L 3481 4863 
L 3481 0 
L 2906 0 
L 2906 525 
Q 2725 213 2448 61 
Q 2172 -91 1784 -91 
Q 1150 -91 751 415 
Q 353 922 353 1747 
Q 353 2572 751 3078 
Q 1150 3584 1784 3584 
Q 2172 3584 2448 3432 
Q 2725 3281 2906 2969 
z
M 947 1747 
Q 947 1113 1208 752 
Q 1469 391 1925 391 
Q 2381 391 2643 752 
Q 2906 1113 2906 1747 
Q 2906 2381 2643 2742 
Q 2381 3103 1925 3103 
Q 1469 3103 1208 2742 
Q 947 2381 947 1747 
z
" transform="scale(0.015625)"/>
       <path id="DejaVuSans-29" d="M 513 4856 
L 1013 4856 
Q 1481 4119 1714 3412 
Q 1947 2706 1947 2009 
Q 1947 1309 1714 600 
Q 1481 -109 1013 -844 
L 513 -844 
Q 928 -128 1133 580 
Q 1338 1288 1338 2009 
Q 1338 2731 1133 3434 
Q 928 4138 513 4856 
z
" transform="scale(0.015625)"/>
      </defs>
      <use xlink:href="#DejaVuSans-73"/>
      <use xlink:href="#DejaVuSans-62" transform="translate(52.099609 0)"/>
      <use xlink:href="#DejaVuSans-5f" transform="translate(115.576172 0)"/>
      <use xlink:href="#DejaVuSans-73" transform="translate(165.576172 0)"/>
      <use xlink:href="#DejaVuSans-75" transform="translate(217.675781 0)"/>
      <use xlink:href="#DejaVuSans-62" transform="translate(281.054688 0)"/>
      <use xlink:href="#DejaVuSans-28" transform="translate(344.53125 0)"/>
      <use xlink:href="#DejaVuSans-64" transform="translate(383.544922 0)"/>
      <use xlink:href="#DejaVuSans-29" transform="translate(447.021484 0)"/>
     </g>
    </g>
   </g>
   <g id="line2d_29">
    <path d="M 78.814347 30.221653 
L 147.045752 30.574899 
L 195.83914 31.039062 
L 233.921785 31.615736 
L 264.863933 32.301155 
L 290.649057 33.090215 
L 312.467239 33.974867 
L 331.111867 34.944816 
L 347.37633 36.004426 
L 361.657322 37.14847 
L 374.351537 38.381236 
L 385.458975 39.672134 
L 395.37633 41.036177 
L 404.500297 42.512625 
L 412.434181 44.01252 
L 419.574677 45.576807 
L 425.921785 47.178829 
L 431.872198 48.905099 
L 437.029223 50.61867 
L 441.789553 52.422524 
L 446.15319 54.308001 
L 450.120132 56.261267 
L 453.69038 58.261676 
L 456.863933 60.279892 
L 459.640793 62.275959 
L 462.417652 64.540069 
L 464.797818 66.747801 
L 467.177983 69.268691 
L 469.161454 71.673812 
L 471.144925 74.436535 
L 472.731702 76.97881 
L 474.318479 79.90744 
L 475.905256 83.351226 
L 477.095338 86.391556 
L 478.285421 89.972462 
L 479.475504 94.317115 
L 480.665586 99.823698 
L 481.458975 104.51189 
L 482.252363 110.54779 
L 483.045752 119.004712 
L 483.442446 124.940554 
L 483.83914 133.162057 
L 484.235834 146.587976 
L 484.632528 188.563291 
L 484.632528 188.563291 
" clip-path="url(#p10680006cc)" style="fill: none; stroke-dasharray: 1.6,1.6; stroke-dashoffset: 1.6; stroke: #7f7f7f; stroke-width: 1.6"/>
   </g>
   <g id="line2d_30">
    <path d="M 78.814347 30.221653 
L 147.045752 30.574899 
L 195.83914 31.039062 
L 233.921785 31.615736 
L 264.863933 32.301155 
L 290.649057 33.090215 
L 312.467239 33.974867 
L 331.111867 34.944816 
L 347.37633 36.004426 
L 361.657322 37.14847 
L 374.351537 38.381236 
L 385.458975 39.672134 
L 395.37633 41.036177 
L 404.500297 42.512625 
L 412.434181 44.01252 
L 419.574677 45.576807 
L 425.921785 47.178829 
L 431.872198 48.905099 
L 437.029223 50.61867 
L 441.789553 52.422524 
L 446.15319 54.308001 
L 450.120132 56.261267 
L 453.69038 58.261676 
L 456.863933 60.279892 
L 459.640793 62.275959 
L 462.417652 64.540069 
L 464.797818 66.747801 
L 467.177983 69.268691 
L 469.161454 71.673812 
L 471.144925 74.436535 
L 472.731702 76.97881 
L 474.318479 79.90744 
L 475.905256 83.351226 
L 477.095338 86.391556 
L 478.285421 89.972462 
L 479.475504 94.317115 
L 480.665586 99.823698 
L 481.458975 104.51189 
L 482.252363 110.54779 
L 483.045752 119.004712 
L 483.442446 124.940554 
L 483.83914 133.162057 
L 484.235834 146.587976 
L 484.632528 188.563291 
L 484.632528 188.563291 
" clip-path="url(#p10680006cc)" style="fill: none; stroke: #1f77b4; stroke-width: 1.6; stroke-linecap: square"/>
   </g>
   <g id="line2d_31">
    <path d="M 78.814347 30.221654 
L 147.045752 30.574901 
L 196.235834 31.043926 
L 233.921785 31.615746 
L 264.467239 32.290777 
L 290.252363 33.076202 
L 312.070545 33.95662 
L 331.111867 34.944857 
L 347.37633 36.004451 
L 361.657322 37.148522 
L 374.351537 38.381249 
L 385.855669 39.722649 
L 395.773024 41.095725 
L 404.500297 42.512792 
L 412.434181 44.012727 
L 419.574677 45.57707 
L 425.921785 47.178862 
L 431.872198 48.905152 
L 437.425917 50.760713 
L 442.186247 52.584602 
L 446.549884 54.492825 
L 450.516826 56.471991 
L 454.087074 58.501649 
L 457.260628 60.552314 
L 460.037487 62.583299 
L 462.814347 64.890347 
L 465.194512 67.147252 
L 467.177983 69.272553 
L 469.161454 71.678728 
L 471.144925 74.443002 
L 472.731702 76.982145 
L 474.318479 79.916601 
L 475.905256 83.364217 
L 477.095338 86.412158 
L 478.285421 89.997 
L 479.475504 94.332668 
L 480.665586 99.849534 
L 481.458975 104.555315 
L 482.252363 110.727731 
L 482.649057 114.451846 
L 483.442446 125.319572 
L 483.83914 134.354669 
L 484.235834 146.587976 
L 484.632528 188.563291 
L 484.632528 188.563291 
" clip-path="url(#p10680006cc)" style="fill: none; stroke-dasharray: 5.92,2.56; stroke-dashoffset: 0; stroke: #ff7f0e; stroke-width: 1.6"/>
   </g>
   <g id="line2d_32">
    <path d="M 78.814347 30.221653 
L 147.045752 30.574899 
L 195.83914 31.039062 
L 233.921785 31.615736 
L 264.863933 32.301155 
L 290.649057 33.090215 
L 312.467239 33.974867 
L 331.111867 34.944816 
L 347.37633 36.004426 
L 361.657322 37.14847 
L 374.351537 38.381234 
L 385.458975 39.672128 
L 395.37633 41.036158 
L 404.500297 42.512566 
L 412.434181 44.012367 
L 419.574677 45.576807 
L 425.921785 47.178829 
L 431.872198 48.905099 
L 437.029223 50.61867 
L 441.789553 52.422524 
L 446.15319 54.308001 
L 450.120132 56.261267 
L 453.69038 58.261676 
L 456.863933 60.279892 
L 459.640793 62.275959 
L 462.417652 64.540069 
L 464.797818 66.747801 
L 467.177983 69.268691 
L 469.161454 71.673812 
L 471.144925 74.436535 
L 472.731702 76.97881 
L 474.318479 79.90744 
L 475.905256 83.351226 
L 477.095338 86.391556 
L 478.285421 89.972462 
L 479.475504 94.317115 
L 480.665586 99.823698 
L 481.458975 104.51189 
L 482.252363 110.54779 
L 483.045752 119.004712 
L 483.442446 124.940554 
L 483.83914 133.162057 
L 484.235834 146.587976 
L 484.632528 188.563291 
L 484.632528 188.563291 
" clip-path="url(#p10680006cc)" style="fill: none; stroke-dasharray: 10.24,2.56,1.6,2.56; stroke-dashoffset: 0; stroke: #2ca02c; stroke-width: 1.6"/>
   </g>
   <g id="line2d_33">
    <path d="M 78.814347 29.878125 
L 79.211041 30.223699 
L 166.880462 30.786569 
L 223.607735 31.497247 
L 285.492033 32.976564 
L 350.549884 36.303194 
L 417.9879 45.209212 
L 424.731702 46.861178 
L 430.682115 48.540072 
L 436.235834 50.340031 
L 440.996165 52.105018 
L 445.359801 53.946369 
L 449.326743 55.849823 
L 452.896991 57.794513 
L 456.070545 59.751255 
L 459.244099 61.975775 
L 462.020958 64.197772 
L 464.401123 66.360102 
L 466.781289 68.823342 
L 468.76476 71.167057 
L 470.748231 73.850616 
L 472.335008 76.310937 
L 473.921785 79.132986 
L 475.508561 82.432523 
L 476.698644 85.326113 
L 477.888727 88.707391 
L 479.078809 92.764663 
L 480.268892 97.821932 
L 481.06228 102.037341 
L 481.855669 107.315639 
L 482.649057 114.360472 
L 483.442446 124.940554 
L 483.83914 133.162057 
L 484.235834 146.587976 
L 484.632528 188.563291 
L 484.632528 188.563291 
" clip-path="url(#p10680006cc)" style="fill: none; stroke-dasharray: 1.6,2.64; stroke-dashoffset: 0; stroke: #d62728; stroke-width: 1.6"/>
   </g>
   <g id="line2d_34">
    <path d="M 78.814347 30.279762 
L 128.004429 30.279762 
L 128.401123 30.6206 
L 172.434181 30.6206 
L 172.830876 30.961532 
L 202.582942 30.961532 
L 202.979636 31.30237 
L 225.591206 31.30237 
L 225.9879 31.643219 
L 244.235834 31.643219 
L 244.632528 31.984058 
L 258.516826 31.984058 
L 258.91352 32.325656 
L 259.310214 32.325656 
L 259.706909 32.027168 
L 260.896991 32.027168 
L 261.293685 32.368766 
L 273.194512 32.368766 
L 273.591206 32.709604 
L 284.30195 32.709604 
L 284.698644 33.050453 
L 294.219305 33.050453 
L 294.615999 33.391292 
L 302.549884 33.391292 
L 302.946578 33.732224 
L 310.880462 33.732224 
L 311.277157 34.073062 
L 318.020958 34.073062 
L 318.417652 34.413911 
L 324.76476 34.413911 
L 325.161454 34.754749 
L 330.715173 34.754749 
L 331.111867 35.101689 
L 336.268892 35.101689 
L 336.665586 35.442527 
L 341.822611 35.442527 
L 342.219305 35.783376 
L 346.186247 35.783376 
L 346.582942 36.124214 
L 350.946578 36.124214 
L 351.343272 36.465147 
L 355.706909 36.465147 
L 356.103603 36.805985 
L 359.673851 36.805985 
L 360.070545 37.146834 
L 363.244099 37.146834 
L 363.640793 37.487672 
L 367.211041 37.487672 
L 367.607735 37.82927 
L 370.384595 37.82927 
L 370.781289 38.170109 
L 373.954842 38.170109 
L 374.351537 38.510958 
L 377.128396 38.510958 
L 377.52509 38.851796 
L 380.30195 38.851796 
L 380.698644 39.192728 
L 382.682115 39.192728 
L 383.078809 39.533567 
L 385.458975 39.533567 
L 385.855669 39.874416 
L 387.83914 39.874416 
L 388.235834 40.215254 
L 391.012694 40.215254 
L 391.409388 40.562193 
L 393.392859 40.562193 
L 393.789553 40.903032 
L 395.37633 40.903032 
L 395.773024 41.243881 
L 397.756495 41.243881 
L 398.15319 41.584719 
L 400.136661 41.584719 
L 400.533355 41.925651 
L 401.723438 41.925651 
L 402.120132 42.26649 
L 404.103603 42.26649 
L 404.500297 42.607339 
L 405.69038 42.607339 
L 406.087074 42.948177 
L 407.673851 42.948177 
L 408.070545 43.289775 
L 409.260628 43.289775 
L 409.657322 43.630614 
L 410.847404 43.630614 
L 411.244099 43.971462 
L 413.22757 43.971462 
L 413.624264 44.312301 
L 414.814347 44.312301 
L 415.211041 44.653233 
L 416.401123 44.653233 
L 416.797818 44.994071 
L 417.9879 45.209212 
L 424.731702 46.861178 
L 430.682115 48.540072 
L 436.235834 50.340031 
L 440.996165 52.105018 
L 445.359801 53.946369 
L 449.326743 55.849823 
L 452.896991 57.794513 
L 456.070545 59.751255 
L 459.244099 61.975775 
L 462.020958 64.197772 
L 464.401123 66.360102 
L 466.781289 68.823342 
L 468.76476 71.167057 
L 470.748231 73.850616 
L 472.335008 76.310937 
L 473.921785 79.132986 
L 475.508561 82.432523 
L 476.698644 85.326113 
L 477.888727 88.707391 
L 479.078809 92.764663 
L 480.268892 97.821932 
L 481.06228 102.037341 
L 481.855669 107.315639 
L 482.649057 114.360472 
L 483.442446 124.940554 
L 483.83914 133.162057 
L 484.235834 146.587976 
L 484.632528 188.563291 
L 484.632528 188.563291 
" clip-path="url(#p10680006cc)" style="fill: none; stroke-dasharray: 4.8,1.6,1.6,1.6; stroke-dashoffset: 0; stroke: #9467bd; stroke-width: 1.6"/>
   </g>
   <g id="line2d_35">
    <path d="M 78.814347 30.221653 
L 170.054016 30.763267 
L 240.665586 31.742903 
L 297.789553 33.357854 
L 300.169718 33.451113 
L 307.706909 33.759049 
L 316.830876 34.185404 
L 322.781289 34.479656 
L 330.318479 34.902189 
L 335.475504 35.202496 
L 341.425917 35.593467 
L 345.789553 35.884687 
L 350.946578 36.272908 
L 355.310214 36.6044 
L 359.673851 36.978722 
L 363.244099 37.281484 
L 367.607735 37.7007 
L 371.177983 38.040424 
L 374.748231 38.426258 
L 377.52509 38.715388 
L 381.095338 39.140451 
L 383.872198 39.459473 
L 386.649057 39.826257 
L 389.425917 40.174969 
L 392.202776 40.576468 
L 394.186247 40.842304 
L 396.963107 41.277284 
L 398.946578 41.565655 
L 400.930049 41.906869 
L 402.91352 42.216128 
L 405.293685 42.676279 
L 407.277157 43.011935 
L 409.260628 43.41006 
L 411.244099 43.771816 
L 413.22757 44.201449 
L 414.417652 44.423069 
L 416.401123 44.880636 
L 417.591206 45.116878 
L 419.574677 45.60518 
L 420.76476 45.85757 
L 421.954842 46.181176 
L 423.144925 46.446799 
L 424.335008 46.787598 
L 425.52509 47.067545 
L 426.715173 47.426984 
L 427.905256 47.722468 
L 429.095338 48.102174 
L 430.285421 48.414585 
L 431.475504 48.816411 
L 432.665586 49.147322 
L 433.855669 49.573356 
L 435.045752 49.924555 
L 436.235834 50.377218 
L 437.425917 50.75077 
L 438.615999 51.23282 
L 439.806082 51.631148 
L 440.996165 52.145829 
L 442.186247 52.571687 
L 443.37633 53.122734 
L 444.169718 53.463878 
L 444.566413 53.579414 
L 445.756495 54.171321 
L 446.15319 54.292629 
L 447.343272 54.914645 
L 447.739966 55.042237 
L 448.930049 55.697035 
L 449.326743 55.831473 
L 450.516826 56.522076 
L 450.91352 56.664011 
L 451.310214 56.951843 
L 451.706909 57.097794 
L 452.103603 57.393854 
L 452.500297 57.544048 
L 452.896991 57.848749 
L 453.293685 58.003348 
L 453.69038 58.317151 
L 454.087074 58.476431 
L 454.483768 58.799784 
L 454.880462 58.963968 
L 455.277157 59.297426 
L 455.673851 59.466773 
L 456.070545 59.810878 
L 456.467239 59.985679 
L 456.863933 60.341038 
L 457.260628 60.521626 
L 457.657322 60.88888 
L 458.054016 61.07562 
L 458.45071 61.455518 
L 458.847404 61.64875 
L 459.244099 62.042045 
L 459.640793 62.242203 
L 460.037487 62.649776 
L 460.434181 62.8573 
L 460.830876 63.280103 
L 461.22757 63.495497 
L 461.624264 63.934558 
L 462.020958 64.158369 
L 462.417652 64.614849 
L 462.814347 64.847674 
L 463.211041 65.322859 
L 463.607735 65.56539 
L 464.004429 66.06069 
L 464.401123 66.313671 
L 464.797818 66.830697 
L 465.194512 67.094965 
L 465.591206 67.635517 
L 465.9879 67.912027 
L 466.384595 68.478117 
L 466.781289 68.767951 
L 467.177983 69.361875 
L 467.574677 69.666256 
L 467.971371 70.290629 
L 468.368066 70.610954 
L 468.76476 71.268779 
L 469.161454 71.606664 
L 469.558148 72.301412 
L 469.954842 72.658724 
L 470.351537 73.394434 
L 470.748231 73.773358 
L 471.144925 74.554767 
L 471.541619 74.957874 
L 471.938314 75.79059 
L 472.335008 76.220941 
L 472.731702 77.111669 
L 473.128396 77.572943 
L 473.52509 78.529793 
L 473.921785 79.026468 
L 474.318479 80.059376 
L 474.715173 80.596975 
L 475.111867 81.718297 
L 475.508561 82.303745 
L 475.905256 83.529109 
L 476.30195 84.17125 
L 476.698644 85.520828 
L 477.095338 86.231203 
L 477.492033 87.73166 
L 477.888727 88.525732 
L 478.285421 90.213352 
L 478.682115 91.11251 
L 479.078809 93.038451 
L 479.475504 94.07348 
L 479.872198 96.31321 
L 480.268892 97.53074 
L 480.665586 100.202356 
L 481.06228 101.677998 
L 481.458975 104.981855 
L 481.855669 106.850504 
L 482.252363 111.169048 
L 482.649057 113.708896 
L 483.045752 119.925387 
L 483.442446 123.873009 
L 484.235834 143.772108 
L 484.235834 476.674375 
L 484.235834 476.674375 
" clip-path="url(#p10680006cc)" style="fill: none; stroke-dasharray: 8,1.6; stroke-dashoffset: 0; stroke: #8c564b; stroke-width: 1.6"/>
   </g>
   <g id="patch_3">
    <path d="M 58.523438 211.318125 
L 58.523438 22.318125 
" style="fill: none; stroke: #000000; stroke-width: 0.8; stroke-linejoin: miter; stroke-linecap: square"/>
   </g>
   <g id="patch_4">
    <path d="M 504.923437 211.318125 
L 504.923437 22.318125 
" style="fill: none; stroke: #000000; stroke-width: 0.8; stroke-linejoin: miter; stroke-linecap: square"/>
   </g>
   <g id="patch_5">
    <path d="M 58.523438 211.318125 
L 504.923438 211.318125 
" style="fill: none; stroke: #000000; stroke-width: 0.8; stroke-linejoin: miter; stroke-linecap: square"/>
   </g>
   <g id="patch_6">
    <path d="M 58.523438 22.318125 
L 504.923438 22.318125 
" style="fill: none; stroke: #000000; stroke-width: 0.8; stroke-linejoin: miter; stroke-linecap: square"/>
   </g>
   <g id="text_9">
    <!-- sb_sub(d) per algorithm  (rbits = 8) -->
    <g transform="translate(175.247813 16.318125) scale(0.12 -0.12)">
     <defs>
      <path id="DejaVuSans-20" transform="scale(0.015625)"/>
      <path id="DejaVuSans-70" d="M 1159 525 
L 1159 -1331 
L 581 -1331 
L 581 3500 
L 1159 3500 
L 1159 2969 
Q 1341 3281 1617 3432 
Q 1894 3584 2278 3584 
Q 2916 3584 3314 3078 
Q 3713 2572 3713 1747 
Q 3713 922 3314 415 
Q 2916 -91 2278 -91 
Q 1894 -91 1617 61 
Q 1341 213 1159 525 
z
M 3116 1747 
Q 3116 2381 2855 2742 
Q 2594 3103 2138 3103 
Q 1681 3103 1420 2742 
Q 1159 2381 1159 1747 
Q 1159 1113 1420 752 
Q 1681 391 2138 391 
Q 2594 391 2855 752 
Q 3116 1113 3116 1747 
z
" transform="scale(0.015625)"/>
      <path id="DejaVuSans-65" d="M 3597 1894 
L 3597 1613 
L 953 1613 
Q 991 1019 1311 708 
Q 1631 397 2203 397 
Q 2534 397 2845 478 
Q 3156 559 3463 722 
L 3463 178 
Q 3153 47 2828 -22 
Q 2503 -91 2169 -91 
Q 1331 -91 842 396 
Q 353 884 353 1716 
Q 353 2575 817 3079 
Q 1281 3584 2069 3584 
Q 2775 3584 3186 3129 
Q 3597 2675 3597 1894 
z
M 3022 2063 
Q 3016 2534 2758 2815 
Q 2500 3097 2075 3097 
Q 1594 3097 1305 2825 
Q 1016 2553 972 2059 
L 3022 2063 
z
" transform="scale(0.015625)"/>
      <path id="DejaVuSans-72" d="M 2631 2963 
Q 2534 3019 2420 3045 
Q 2306 3072 2169 3072 
Q 1681 3072 1420 2755 
Q 1159 2438 1159 1844 
L 1159 0 
L 581 0 
L 581 3500 
L 1159 3500 
L 1159 2956 
Q 1341 3275 1631 3429 
Q 1922 3584 2338 3584 
Q 2397 3584 2469 3576 
Q 2541 3569 2628 3553 
L 2631 2963 
z
" transform="scale(0.015625)"/>
      <path id="DejaVuSans-61" d="M 2194 1759 
Q 1497 1759 1228 1600 
Q 959 1441 959 1056 
Q 959 750 1161 570 
Q 1363 391 1709 391 
Q 2188 391 2477 730 
Q 2766 1069 2766 1631 
L 2766 1759 
L 2194 1759 
z
M 3341 1997 
L 3341 0 
L 2766 0 
L 2766 531 
Q 2569 213 2275 61 
Q 1981 -91 1556 -91 
Q 1019 -91 701 211 
Q 384 513 384 1019 
Q 384 1609 779 1909 
Q 1175 2209 1959 2209 
L 2766 2209 
L 2766 2266 
Q 2766 2663 2505 2880 
Q 2244 3097 1772 3097 
Q 1472 3097 1187 3025 
Q 903 2953 641 2809 
L 641 3341 
Q 956 3463 1253 3523 
Q 1550 3584 1831 3584 
Q 2591 3584 2966 3190 
Q 3341 2797 3341 1997 
z
" transform="scale(0.015625)"/>
      <path id="DejaVuSans-6c" d="M 603 4863 
L 1178 4863 
L 1178 0 
L 603 0 
L 603 4863 
z
" transform="scale(0.015625)"/>
      <path id="DejaVuSans-67" d="M 2906 1791 
Q 2906 2416 2648 2759 
Q 2391 3103 1925 3103 
Q 1463 3103 1205 2759 
Q 947 2416 947 1791 
Q 947 1169 1205 825 
Q 1463 481 1925 481 
Q 2391 481 2648 825 
Q 2906 1169 2906 1791 
z
M 3481 434 
Q 3481 -459 3084 -895 
Q 2688 -1331 1869 -1331 
Q 1566 -1331 1297 -1286 
Q 1028 -1241 775 -1147 
L 775 -588 
Q 1028 -725 1275 -790 
Q 1522 -856 1778 -856 
Q 2344 -856 2625 -561 
Q 2906 -266 2906 331 
L 2906 616 
Q 2728 306 2450 153 
Q 2172 0 1784 0 
Q 1141 0 747 490 
Q 353 981 353 1791 
Q 353 2603 747 3093 
Q 1141 3584 1784 3584 
Q 2172 3584 2450 3431 
Q 2728 3278 2906 2969 
L 2906 3500 
L 3481 3500 
L 3481 434 
z
" transform="scale(0.015625)"/>
      <path id="DejaVuSans-6f" d="M 1959 3097 
Q 1497 3097 1228 2736 
Q 959 2375 959 1747 
Q 959 1119 1226 758 
Q 1494 397 1959 397 
Q 2419 397 2687 759 
Q 2956 1122 2956 1747 
Q 2956 2369 2687 2733 
Q 2419 3097 1959 3097 
z
M 1959 3584 
Q 2709 3584 3137 3096 
Q 3566 2609 3566 1747 
Q 3566 888 3137 398 
Q 2709 -91 1959 -91 
Q 1206 -91 779 398 
Q 353 888 353 1747 
Q 353 2609 779 3096 
Q 1206 3584 1959 3584 
z
" transform="scale(0.015625)"/>
      <path id="DejaVuSans-69" d="M 603 3500 
L 1178 3500 
L 1178 0 
L 603 0 
L 603 3500 
z
M 603 4863 
L 1178 4863 
L 1178 4134 
L 603 4134 
L 603 4863 
z
" transform="scale(0.015625)"/>
      <path id="DejaVuSans-74" d="M 1172 4494 
L 1172 3500 
L 2356 3500 
L 2356 3053 
L 1172 3053 
L 1172 1153 
Q 1172 725 1289 603 
Q 1406 481 1766 481 
L 2356 481 
L 2356 0 
L 1766 0 
Q 1100 0 847 248 
Q 594 497 594 1153 
L 594 3053 
L 172 3053 
L 172 3500 
L 594 3500 
L 594 4494 
L 1172 4494 
z
" transform="scale(0.015625)"/>
      <path id="DejaVuSans-68" d="M 3513 2113 
L 3513 0 
L 2938 0 
L 2938 2094 
Q 2938 2591 2744 2837 
Q 2550 3084 2163 3084 
Q 1697 3084 1428 2787 
Q 1159 2491 1159 1978 
L 1159 0 
L 581 0 
L 581 4863 
L 1159 4863 
L 1159 2956 
Q 1366 3272 1645 3428 
Q 1925 3584 2291 3584 
Q 2894 3584 3203 3211 
Q 3513 2838 3513 2113 
z
" transform="scale(0.015625)"/>
      <path id="DejaVuSans-6d" d="M 3328 2828 
Q 3544 3216 3844 3400 
Q 4144 3584 4550 3584 
Q 5097 3584 5394 3201 
Q 5691 2819 5691 2113 
L 5691 0 
L 5113 0 
L 5113 2094 
Q 5113 2597 4934 2840 
Q 4756 3084 4391 3084 
Q 3944 3084 3684 2787 
Q 3425 2491 3425 1978 
L 3425 0 
L 2847 0 
L 2847 2094 
Q 2847 2600 2669 2842 
Q 2491 3084 2119 3084 
Q 1678 3084 1418 2786 
Q 1159 2488 1159 1978 
L 1159 0 
L 581 0 
L 581 3500 
L 1159 3500 
L 1159 2956 
Q 1356 3278 1631 3431 
Q 1906 3584 2284 3584 
Q 2666 3584 2933 3390 
Q 3200 3197 3328 2828 
z
" transform="scale(0.015625)"/>
      <path id="DejaVuSans-3d" d="M 678 2906 
L 4684 2906 
L 4684 2381 
L 678 2381 
L 678 2906 
z
M 678 1631 
L 4684 1631 
L 4684 1100 
L 678 1100 
L 678 1631 
z
" transform="scale(0.015625)"/>
     </defs>
     <use xlink:href="#DejaVuSans-73"/>
     <use xlink:href="#DejaVuSans-62" transform="translate(52.099609 0)"/>
     <use xlink:href="#DejaVuSans-5f" transform="translate(115.576172 0)"/>
     <use xlink:href="#DejaVuSans-73" transform="translate(165.576172 0)"/>
     <use xlink:href="#DejaVuSans-75" transform="translate(217.675781 0)"/>
     <use xlink:href="#DejaVuSans-62" transform="translate(281.054688 0)"/>
     <use xlink:href="#DejaVuSans-28" transform="translate(344.53125 0)"/>
     <use xlink:href="#DejaVuSans-64" transform="translate(383.544922 0)"/>
     <use xlink:href="#DejaVuSans-29" transform="translate(447.021484 0)"/>
     <use xlink:href="#DejaVuSans-20" transform="translate(486.035156 0)"/>
     <use xlink:href="#DejaVuSans-70" transform="translate(517.822266 0)"/>
     <use xlink:href="#DejaVuSans-65" transform="translate(581.298828 0)"/>
     <use xlink:href="#DejaVuSans-72" transform="translate(642.822266 0)"/>
     <use xlink:href="#DejaVuSans-20" transform="translate(683.935547 0)"/>
     <use xlink:href="#DejaVuSans-61" transform="translate(715.722656 0)"/>
     <use xlink:href="#DejaVuSans-6c" transform="translate(777.001953 0)"/>
     <use xlink:href="#DejaVuSans-67" transform="translate(804.785156 0)"/>
     <use xlink:href="#DejaVuSans-6f" transform="translate(868.261719 0)"/>
     <use xlink:href="#DejaVuSans-72" transform="translate(929.443359 0)"/>
     <use xlink:href="#DejaVuSans-69" transform="translate(970.556641 0)"/>
     <use xlink:href="#DejaVuSans-74" transform="translate(998.339844 0)"/>
     <use xlink:href="#DejaVuSans-68" transform="translate(1037.548828 0)"/>
     <use xlink:href="#DejaVuSans-6d" transform="translate(1100.927734 0)"/>
     <use xlink:href="#DejaVuSans-20" transform="translate(1198.339844 0)"/>
     <use xlink:href="#DejaVuSans-20" transform="translate(1230.126953 0)"/>
     <use xlink:href="#DejaVuSans-28" transform="translate(1261.914062 0)"/>
     <use xlink:href="#DejaVuSans-72" transform="translate(1300.927734 0)"/>
     <use xlink:href="#DejaVuSans-62" transform="translate(1342.041016 0)"/>
     <use xlink:href="#DejaVuSans-69" transform="translate(1405.517578 0)"/>
     <use xlink:href="#DejaVuSans-74" transform="translate(1433.300781 0)"/>
     <use xlink:href="#DejaVuSans-73" transform="translate(1472.509766 0)"/>
     <use xlink:href="#DejaVuSans-20" transform="translate(1524.609375 0)"/>
     <use xlink:href="#DejaVuSans-3d" transform="translate(1556.396484 0)"/>
     <use xlink:href="#DejaVuSans-20" transform="translate(1640.185547 0)"/>
     <use xlink:href="#DejaVuSans-38" transform="translate(1671.972656 0)"/>
     <use xlink:href="#DejaVuSans-29" transform="translate(1735.595703 0)"/>
    </g>
   </g>
   <g id="legend_1">
    <g id="patch_7">
     <path d="M 318.782188 207.318125 
L 499.323437 207.318125 
Q 500.923437 207.318125 500.923437 205.718125 
L 500.923437 159.548125 
Q 500.923437 157.948125 499.323437 157.948125 
L 318.782188 157.948125 
Q 317.182187 157.948125 317.182187 159.548125 
L 317.182187 205.718125 
Q 317.182187 207.318125 318.782188 207.318125 
z
" style="fill: #ffffff; opacity: 0.8; stroke: #cccccc; stroke-linejoin: miter"/>
    </g>
    <g id="line2d_36">
     <path d="M 320.382187 164.426875 
L 328.382187 164.426875 
L 336.382187 164.426875 
" style="fill: none; stroke-dasharray: 1.6,1.6; stroke-dashoffset: 1.6; stroke: #7f7f7f; stroke-width: 1.6"/>
    </g>
    <g id="text_10">
     <!-- DoubleTrip -->
     <g transform="translate(342.782187 167.226875) scale(0.08 -0.08)">
      <defs>
       <path id="DejaVuSans-44" d="M 1259 4147 
L 1259 519 
L 2022 519 
Q 2988 519 3436 956 
Q 3884 1394 3884 2338 
Q 3884 3275 3436 3711 
Q 2988 4147 2022 4147 
L 1259 4147 
z
M 628 4666 
L 1925 4666 
Q 3281 4666 3915 4102 
Q 4550 3538 4550 2338 
Q 4550 1131 3912 565 
Q 3275 0 1925 0 
L 628 0 
L 628 4666 
z
" transform="scale(0.015625)"/>
       <path id="DejaVuSans-54" d="M -19 4666 
L 3928 4666 
L 3928 4134 
L 2272 4134 
L 2272 0 
L 1638 0 
L 1638 4134 
L -19 4134 
L -19 4666 
z
" transform="scale(0.015625)"/>
      </defs>
      <use xlink:href="#DejaVuSans-44"/>
      <use xlink:href="#DejaVuSans-6f" transform="translate(77.001953 0)"/>
      <use xlink:href="#DejaVuSans-75" transform="translate(138.183594 0)"/>
      <use xlink:href="#DejaVuSans-62" transform="translate(201.5625 0)"/>
      <use xlink:href="#DejaVuSans-6c" transform="translate(265.039062 0)"/>
      <use xlink:href="#DejaVuSans-65" transform="translate(292.822266 0)"/>
      <use xlink:href="#DejaVuSans-54" transform="translate(354.345703 0)"/>
      <use xlink:href="#DejaVuSans-72" transform="translate(400.679688 0)"/>
      <use xlink:href="#DejaVuSans-69" transform="translate(441.792969 0)"/>
      <use xlink:href="#DejaVuSans-70" transform="translate(469.576172 0)"/>
     </g>
    </g>
    <g id="line2d_37">
     <path d="M 320.382187 176.169375 
L 328.382187 176.169375 
L 336.382187 176.169375 
" style="fill: none; stroke: #1f77b4; stroke-width: 1.6; stroke-linecap: square"/>
    </g>
    <g id="text_11">
     <!-- DirectEvaluation -->
     <g transform="translate(342.782187 178.969375) scale(0.08 -0.08)">
      <defs>
       <path id="DejaVuSans-63" d="M 3122 3366 
L 3122 2828 
Q 2878 2963 2633 3030 
Q 2388 3097 2138 3097 
Q 1578 3097 1268 2742 
Q 959 2388 959 1747 
Q 959 1106 1268 751 
Q 1578 397 2138 397 
Q 2388 397 2633 464 
Q 2878 531 3122 666 
L 3122 134 
Q 2881 22 2623 -34 
Q 2366 -91 2075 -91 
Q 1284 -91 818 406 
Q 353 903 353 1747 
Q 353 2603 823 3093 
Q 1294 3584 2113 3584 
Q 2378 3584 2631 3529 
Q 2884 3475 3122 3366 
z
" transform="scale(0.015625)"/>
       <path id="DejaVuSans-45" d="M 628 4666 
L 3578 4666 
L 3578 4134 
L 1259 4134 
L 1259 2753 
L 3481 2753 
L 3481 2222 
L 1259 2222 
L 1259 531 
L 3634 531 
L 3634 0 
L 628 0 
L 628 4666 
z
" transform="scale(0.015625)"/>
       <path id="DejaVuSans-76" d="M 191 3500 
L 800 3500 
L 1894 563 
L 2988 3500 
L 3597 3500 
L 2284 0 
L 1503 0 
L 191 3500 
z
" transform="scale(0.015625)"/>
       <path id="DejaVuSans-6e" d="M 3513 2113 
L 3513 0 
L 2938 0 
L 2938 2094 
Q 2938 2591 2744 2837 
Q 2550 3084 2163 3084 
Q 1697 3084 1428 2787 
Q 1159 2491 1159 1978 
L 1159 0 
L 581 0 
L 581 3500 
L 1159 3500 
L 1159 2956 
Q 1366 3272 1645 3428 
Q 1925 3584 2291 3584 
Q 2894 3584 3203 3211 
Q 3513 2838 3513 2113 
z
" transform="scale(0.015625)"/>
      </defs>
      <use xlink:href="#DejaVuSans-44"/>
      <use xlink:href="#DejaVuSans-69" transform="translate(77.001953 0)"/>
      <use xlink:href="#DejaVuSans-72" transform="translate(104.785156 0)"/>
      <use xlink:href="#DejaVuSans-65" transform="translate(143.648438 0)"/>
      <use xlink:href="#DejaVuSans-63" transform="translate(205.171875 0)"/>
      <use xlink:href="#DejaVuSans-74" transform="translate(260.152344 0)"/>
      <use xlink:href="#DejaVuSans-45" transform="translate(299.361328 0)"/>
      <use xlink:href="#DejaVuSans-76" transform="translate(362.544922 0)"/>
      <use xlink:href="#DejaVuSans-61" transform="translate(421.724609 0)"/>
      <use xlink:href="#DejaVuSans-6c" transform="translate(483.003906 0)"/>
      <use xlink:href="#DejaVuSans-75" transform="translate(510.787109 0)"/>
      <use xlink:href="#DejaVuSans-61" transform="translate(574.166016 0)"/>
      <use xlink:href="#DejaVuSans-74" transform="translate(635.445312 0)"/>
      <use xlink:href="#DejaVuSans-69" transform="translate(674.654297 0)"/>
      <use xlink:href="#DejaVuSans-6f" transform="translate(702.4375 0)"/>
      <use xlink:href="#DejaVuSans-6e" transform="translate(763.619141 0)"/>
     </g>
    </g>
    <g id="line2d_38">
     <path d="M 320.382187 187.911875 
L 328.382187 187.911875 
L 336.382187 187.911875 
" style="fill: none; stroke-dasharray: 5.92,2.56; stroke-dashoffset: 0; stroke: #ff7f0e; stroke-width: 1.6"/>
    </g>
    <g id="text_12">
     <!-- Lookup -->
     <g transform="translate(342.782187 190.711875) scale(0.08 -0.08)">
      <defs>
       <path id="DejaVuSans-4c" d="M 628 4666 
L 1259 4666 
L 1259 531 
L 3531 531 
L 3531 0 
L 628 0 
L 628 4666 
z
" transform="scale(0.015625)"/>
       <path id="DejaVuSans-6b" d="M 581 4863 
L 1159 4863 
L 1159 1991 
L 2875 3500 
L 3609 3500 
L 1753 1863 
L 3688 0 
L 2938 0 
L 1159 1709 
L 1159 0 
L 581 0 
L 581 4863 
z
" transform="scale(0.015625)"/>
      </defs>
      <use xlink:href="#DejaVuSans-4c"/>
      <use xlink:href="#DejaVuSans-6f" transform="translate(53.962891 0)"/>
      <use xlink:href="#DejaVuSans-6f" transform="translate(115.144531 0)"/>
      <use xlink:href="#DejaVuSans-6b" transform="translate(176.326172 0)"/>
      <use xlink:href="#DejaVuSans-75" transform="translate(231.111328 0)"/>
      <use xlink:href="#DejaVuSans-70" transform="translate(294.490234 0)"/>
     </g>
    </g>
    <g id="line2d_39">
     <path d="M 320.382187 199.654375 
L 328.382187 199.654375 
L 336.382187 199.654375 
" style="fill: none; stroke-dasharray: 10.24,2.56,1.6,2.56; stroke-dashoffset: 0; stroke: #2ca02c; stroke-width: 1.6"/>
    </g>
    <g id="text_13">
     <!-- Polynomial -->
     <g transform="translate(342.782187 202.454375) scale(0.08 -0.08)">
      <defs>
       <path id="DejaVuSans-50" d="M 1259 4147 
L 1259 2394 
L 2053 2394 
Q 2494 2394 2734 2622 
Q 2975 2850 2975 3272 
Q 2975 3691 2734 3919 
Q 2494 4147 2053 4147 
L 1259 4147 
z
M 628 4666 
L 2053 4666 
Q 2838 4666 3239 4311 
Q 3641 3956 3641 3272 
Q 3641 2581 3239 2228 
Q 2838 1875 2053 1875 
L 1259 1875 
L 1259 0 
L 628 0 
L 628 4666 
z
" transform="scale(0.015625)"/>
       <path id="DejaVuSans-79" d="M 2059 -325 
Q 1816 -950 1584 -1140 
Q 1353 -1331 966 -1331 
L 506 -1331 
L 506 -850 
L 844 -850 
Q 1081 -850 1212 -737 
Q 1344 -625 1503 -206 
L 1606 56 
L 191 3500 
L 800 3500 
L 1894 763 
L 2988 3500 
L 3597 3500 
L 2059 -325 
z
" transform="scale(0.015625)"/>
      </defs>
      <use xlink:href="#DejaVuSans-50"/>
      <use xlink:href="#DejaVuSans-6f" transform="translate(56.677734 0)"/>
      <use xlink:href="#DejaVuSans-6c" transform="translate(117.859375 0)"/>
      <use xlink:href="#DejaVuSans-79" transform="translate(145.642578 0)"/>
      <use xlink:href="#DejaVuSans-6e" transform="translate(204.822266 0)"/>
      <use xlink:href="#DejaVuSans-6f" transform="translate(268.201172 0)"/>
      <use xlink:href="#DejaVuSans-6d" transform="translate(329.382812 0)"/>
      <use xlink:href="#DejaVuSans-69" transform="translate(426.794922 0)"/>
      <use xlink:href="#DejaVuSans-61" transform="translate(454.578125 0)"/>
      <use xlink:href="#DejaVuSans-6c" transform="translate(515.857422 0)"/>
     </g>
    </g>
    <g id="line2d_40">
     <path d="M 424.942187 164.426875 
L 432.942187 164.426875 
L 440.942187 164.426875 
" style="fill: none; stroke-dasharray: 1.6,2.64; stroke-dashoffset: 0; stroke: #d62728; stroke-width: 1.6"/>
    </g>
    <g id="text_14">
     <!-- ArnoldBailey -->
     <g transform="translate(447.342187 167.226875) scale(0.08 -0.08)">
      <defs>
       <path id="DejaVuSans-41" d="M 2188 4044 
L 1331 1722 
L 3047 1722 
L 2188 4044 
z
M 1831 4666 
L 2547 4666 
L 4325 0 
L 3669 0 
L 3244 1197 
L 1141 1197 
L 716 0 
L 50 0 
L 1831 4666 
z
" transform="scale(0.015625)"/>
       <path id="DejaVuSans-42" d="M 1259 2228 
L 1259 519 
L 2272 519 
Q 2781 519 3026 730 
Q 3272 941 3272 1375 
Q 3272 1813 3026 2020 
Q 2781 2228 2272 2228 
L 1259 2228 
z
M 1259 4147 
L 1259 2741 
L 2194 2741 
Q 2656 2741 2882 2914 
Q 3109 3088 3109 3444 
Q 3109 3797 2882 3972 
Q 2656 4147 2194 4147 
L 1259 4147 
z
M 628 4666 
L 2241 4666 
Q 2963 4666 3353 4366 
Q 3744 4066 3744 3513 
Q 3744 3084 3544 2831 
Q 3344 2578 2956 2516 
Q 3422 2416 3680 2098 
Q 3938 1781 3938 1306 
Q 3938 681 3513 340 
Q 3088 0 2303 0 
L 628 0 
L 628 4666 
z
" transform="scale(0.015625)"/>
      </defs>
      <use xlink:href="#DejaVuSans-41"/>
      <use xlink:href="#DejaVuSans-72" transform="translate(68.408203 0)"/>
      <use xlink:href="#DejaVuSans-6e" transform="translate(107.771484 0)"/>
      <use xlink:href="#DejaVuSans-6f" transform="translate(171.150391 0)"/>
      <use xlink:href="#DejaVuSans-6c" transform="translate(232.332031 0)"/>
      <use xlink:href="#DejaVuSans-64" transform="translate(260.115234 0)"/>
      <use xlink:href="#DejaVuSans-42" transform="translate(323.591797 0)"/>
      <use xlink:href="#DejaVuSans-61" transform="translate(392.195312 0)"/>
      <use xlink:href="#DejaVuSans-69" transform="translate(453.474609 0)"/>
      <use xlink:href="#DejaVuSans-6c" transform="translate(481.257812 0)"/>
      <use xlink:href="#DejaVuSans-65" transform="translate(509.041016 0)"/>
      <use xlink:href="#DejaVuSans-79" transform="translate(570.564453 0)"/>
     </g>
    </g>
    <g id="line2d_41">
     <path d="M 424.942187 176.169375 
L 432.942187 176.169375 
L 440.942187 176.169375 
" style="fill: none; stroke-dasharray: 4.8,1.6,1.6,1.6; stroke-dashoffset: 0; stroke: #9467bd; stroke-width: 1.6"/>
    </g>
    <g id="text_15">
     <!-- CORDIC -->
     <g transform="translate(447.342187 178.969375) scale(0.08 -0.08)">
      <defs>
       <path id="DejaVuSans-43" d="M 4122 4306 
L 4122 3641 
Q 3803 3938 3442 4084 
Q 3081 4231 2675 4231 
Q 1875 4231 1450 3742 
Q 1025 3253 1025 2328 
Q 1025 1406 1450 917 
Q 1875 428 2675 428 
Q 3081 428 3442 575 
Q 3803 722 4122 1019 
L 4122 359 
Q 3791 134 3420 21 
Q 3050 -91 2638 -91 
Q 1578 -91 968 557 
Q 359 1206 359 2328 
Q 359 3453 968 4101 
Q 1578 4750 2638 4750 
Q 3056 4750 3426 4639 
Q 3797 4528 4122 4306 
z
" transform="scale(0.015625)"/>
       <path id="DejaVuSans-4f" d="M 2522 4238 
Q 1834 4238 1429 3725 
Q 1025 3213 1025 2328 
Q 1025 1447 1429 934 
Q 1834 422 2522 422 
Q 3209 422 3611 934 
Q 4013 1447 4013 2328 
Q 4013 3213 3611 3725 
Q 3209 4238 2522 4238 
z
M 2522 4750 
Q 3503 4750 4090 4092 
Q 4678 3434 4678 2328 
Q 4678 1225 4090 567 
Q 3503 -91 2522 -91 
Q 1538 -91 948 565 
Q 359 1222 359 2328 
Q 359 3434 948 4092 
Q 1538 4750 2522 4750 
z
" transform="scale(0.015625)"/>
       <path id="DejaVuSans-52" d="M 2841 2188 
Q 3044 2119 3236 1894 
Q 3428 1669 3622 1275 
L 4263 0 
L 3584 0 
L 2988 1197 
Q 2756 1666 2539 1819 
Q 2322 1972 1947 1972 
L 1259 1972 
L 1259 0 
L 628 0 
L 628 4666 
L 2053 4666 
Q 2853 4666 3247 4331 
Q 3641 3997 3641 3322 
Q 3641 2881 3436 2590 
Q 3231 2300 2841 2188 
z
M 1259 4147 
L 1259 2491 
L 2053 2491 
Q 2509 2491 2742 2702 
Q 2975 2913 2975 3322 
Q 2975 3731 2742 3939 
Q 2509 4147 2053 4147 
L 1259 4147 
z
" transform="scale(0.015625)"/>
       <path id="DejaVuSans-49" d="M 628 4666 
L 1259 4666 
L 1259 0 
L 628 0 
L 628 4666 
z
" transform="scale(0.015625)"/>
      </defs>
      <use xlink:href="#DejaVuSans-43"/>
      <use xlink:href="#DejaVuSans-4f" transform="translate(69.824219 0)"/>
      <use xlink:href="#DejaVuSans-52" transform="translate(148.535156 0)"/>
      <use xlink:href="#DejaVuSans-44" transform="translate(218.017578 0)"/>
      <use xlink:href="#DejaVuSans-49" transform="translate(295.019531 0)"/>
      <use xlink:href="#DejaVuSans-43" transform="translate(324.511719 0)"/>
     </g>
    </g>
    <g id="line2d_42">
     <path d="M 424.942187 187.911875 
L 432.942187 187.911875 
L 440.942187 187.911875 
" style="fill: none; stroke-dasharray: 8,1.6; stroke-dashoffset: 0; stroke: #8c564b; stroke-width: 1.6"/>
    </g>
    <g id="text_16">
     <!-- ArnoldCotr -->
     <g transform="translate(447.342187 190.711875) scale(0.08 -0.08)">
      <use xlink:href="#DejaVuSans-41"/>
      <use xlink:href="#DejaVuSans-72" transform="translate(68.408203 0)"/>
      <use xlink:href="#DejaVuSans-6e" transform="translate(107.771484 0)"/>
      <use xlink:href="#DejaVuSans-6f" transform="translate(171.150391 0)"/>
      <use xlink:href="#DejaVuSans-6c" transform="translate(232.332031 0)"/>
      <use xlink:href="#DejaVuSans-64" transform="translate(260.115234 0)"/>
      <use xlink:href="#DejaVuSans-43" transform="translate(323.591797 0)"/>
      <use xlink:href="#DejaVuSans-6f" transform="translate(393.416016 0)"/>
      <use xlink:href="#DejaVuSans-74" transform="translate(454.597656 0)"/>
      <use xlink:href="#DejaVuSans-72" transform="translate(493.806641 0)"/>
     </g>
    </g>
   </g>
  </g>
  <g id="axes_2">
   <g id="patch_8">
    <path d="M 58.523438 438.118125 
L 504.923437 438.118125 
L 504.923437 249.118125 
L 58.523438 249.118125 
z
" style="fill: #ffffff"/>
   </g>
   <g id="matplotlib.axis_3">
    <g id="xtick_8">
     <g id="line2d_43">
      <path d="M 78.814347 438.118125 
L 78.814347 249.118125 
" clip-path="url(#pfbc7f6c6e7)" style="fill: none; stroke: #b0b0b0; stroke-opacity: 0.3; stroke-width: 0.8; stroke-linecap: square"/>
     </g>
     <g id="line2d_44">
      <g>
       <use xlink:href="#m539abbf13c" x="78.814347" y="438.118125" style="stroke: #000000; stroke-width: 0.8"/>
      </g>
     </g>
     <g id="text_17">
      <!-- −6 -->
      <g transform="translate(71.443253 452.716562) scale(0.1 -0.1)">
       <use xlink:href="#DejaVuSans-2212"/>
       <use xlink:href="#DejaVuSans-36" transform="translate(83.789062 0)"/>
      </g>
     </g>
    </g>
    <g id="xtick_9">
     <g id="line2d_45">
      <path d="M 146.461985 438.118125 
L 146.461985 249.118125 
" clip-path="url(#pfbc7f6c6e7)" style="fill: none; stroke: #b0b0b0; stroke-opacity: 0.3; stroke-width: 0.8; stroke-linecap: square"/>
     </g>
     <g id="line2d_46">
      <g>
       <use xlink:href="#m539abbf13c" x="146.461985" y="438.118125" style="stroke: #000000; stroke-width: 0.8"/>
      </g>
     </g>
     <g id="text_18">
      <!-- −5 -->
      <g transform="translate(139.090891 452.716562) scale(0.1 -0.1)">
       <defs>
        <path id="DejaVuSans-35" d="M 691 4666 
L 3169 4666 
L 3169 4134 
L 1269 4134 
L 1269 2991 
Q 1406 3038 1543 3061 
Q 1681 3084 1819 3084 
Q 2600 3084 3056 2656 
Q 3513 2228 3513 1497 
Q 3513 744 3044 326 
Q 2575 -91 1722 -91 
Q 1428 -91 1123 -41 
Q 819 9 494 109 
L 494 744 
Q 775 591 1075 516 
Q 1375 441 1709 441 
Q 2250 441 2565 725 
Q 2881 1009 2881 1497 
Q 2881 1984 2565 2268 
Q 2250 2553 1709 2553 
Q 1456 2553 1204 2497 
Q 953 2441 691 2322 
L 691 4666 
z
" transform="scale(0.015625)"/>
       </defs>
       <use xlink:href="#DejaVuSans-2212"/>
       <use xlink:href="#DejaVuSans-35" transform="translate(83.789062 0)"/>
      </g>
     </g>
    </g>
    <g id="xtick_10">
     <g id="line2d_47">
      <path d="M 214.109623 438.118125 
L 214.109623 249.118125 
" clip-path="url(#pfbc7f6c6e7)" style="fill: none; stroke: #b0b0b0; stroke-opacity: 0.3; stroke-width: 0.8; stroke-linecap: square"/>
     </g>
     <g id="line2d_48">
      <g>
       <use xlink:href="#m539abbf13c" x="214.109623" y="438.118125" style="stroke: #000000; stroke-width: 0.8"/>
      </g>
     </g>
     <g id="text_19">
      <!-- −4 -->
      <g transform="translate(206.738529 452.716562) scale(0.1 -0.1)">
       <use xlink:href="#DejaVuSans-2212"/>
       <use xlink:href="#DejaVuSans-34" transform="translate(83.789062 0)"/>
      </g>
     </g>
    </g>
    <g id="xtick_11">
     <g id="line2d_49">
      <path d="M 281.757261 438.118125 
L 281.757261 249.118125 
" clip-path="url(#pfbc7f6c6e7)" style="fill: none; stroke: #b0b0b0; stroke-opacity: 0.3; stroke-width: 0.8; stroke-linecap: square"/>
     </g>
     <g id="line2d_50">
      <g>
       <use xlink:href="#m539abbf13c" x="281.757261" y="438.118125" style="stroke: #000000; stroke-width: 0.8"/>
      </g>
     </g>
     <g id="text_20">
      <!-- −3 -->
      <g transform="translate(274.386168 452.716562) scale(0.1 -0.1)">
       <defs>
        <path id="DejaVuSans-33" d="M 2597 2516 
Q 3050 2419 3304 2112 
Q 3559 1806 3559 1356 
Q 3559 666 3084 287 
Q 2609 -91 1734 -91 
Q 1441 -91 1130 -33 
Q 819 25 488 141 
L 488 750 
Q 750 597 1062 519 
Q 1375 441 1716 441 
Q 2309 441 2620 675 
Q 2931 909 2931 1356 
Q 2931 1769 2642 2001 
Q 2353 2234 1838 2234 
L 1294 2234 
L 1294 2753 
L 1863 2753 
Q 2328 2753 2575 2939 
Q 2822 3125 2822 3475 
Q 2822 3834 2567 4026 
Q 2313 4219 1838 4219 
Q 1578 4219 1281 4162 
Q 984 4106 628 3988 
L 628 4550 
Q 988 4650 1302 4700 
Q 1616 4750 1894 4750 
Q 2613 4750 3031 4423 
Q 3450 4097 3450 3541 
Q 3450 3153 3228 2886 
Q 3006 2619 2597 2516 
z
" transform="scale(0.015625)"/>
       </defs>
       <use xlink:href="#DejaVuSans-2212"/>
       <use xlink:href="#DejaVuSans-33" transform="translate(83.789062 0)"/>
      </g>
     </g>
    </g>
    <g id="xtick_12">
     <g id="line2d_51">
      <path d="M 349.4049 438.118125 
L 349.4049 249.118125 
" clip-path="url(#pfbc7f6c6e7)" style="fill: none; stroke: #b0b0b0; stroke-opacity: 0.3; stroke-width: 0.8; stroke-linecap: square"/>
     </g>
     <g id="line2d_52">
      <g>
       <use xlink:href="#m539abbf13c" x="349.4049" y="438.118125" style="stroke: #000000; stroke-width: 0.8"/>
      </g>
     </g>
     <g id="text_21">
      <!-- −2 -->
      <g transform="translate(342.033806 452.716562) scale(0.1 -0.1)">
       <use xlink:href="#DejaVuSans-2212"/>
       <use xlink:href="#DejaVuSans-32" transform="translate(83.789062 0)"/>
      </g>
     </g>
    </g>
    <g id="xtick_13">
     <g id="line2d_53">
      <path d="M 417.052538 438.118125 
L 417.052538 249.118125 
" clip-path="url(#pfbc7f6c6e7)" style="fill: none; stroke: #b0b0b0; stroke-opacity: 0.3; stroke-width: 0.8; stroke-linecap: square"/>
     </g>
     <g id="line2d_54">
      <g>
       <use xlink:href="#m539abbf13c" x="417.052538" y="438.118125" style="stroke: #000000; stroke-width: 0.8"/>
      </g>
     </g>
     <g id="text_22">
      <!-- −1 -->
      <g transform="translate(409.681444 452.716562) scale(0.1 -0.1)">
       <use xlink:href="#DejaVuSans-2212"/>
       <use xlink:href="#DejaVuSans-31" transform="translate(83.789062 0)"/>
      </g>
     </g>
    </g>
    <g id="xtick_14">
     <g id="line2d_55">
      <path d="M 484.700176 438.118125 
L 484.700176 249.118125 
" clip-path="url(#pfbc7f6c6e7)" style="fill: none; stroke: #b0b0b0; stroke-opacity: 0.3; stroke-width: 0.8; stroke-linecap: square"/>
     </g>
     <g id="line2d_56">
      <g>
       <use xlink:href="#m539abbf13c" x="484.700176" y="438.118125" style="stroke: #000000; stroke-width: 0.8"/>
      </g>
     </g>
     <g id="text_23">
      <!-- 0 -->
      <g transform="translate(481.518926 452.716562) scale(0.1 -0.1)">
       <use xlink:href="#DejaVuSans-30"/>
      </g>
     </g>
    </g>
    <g id="text_24">
     <!-- d -->
     <g transform="translate(278.549219 466.394687) scale(0.1 -0.1)">
      <use xlink:href="#DejaVuSans-64"/>
     </g>
    </g>
   </g>
   <g id="matplotlib.axis_4">
    <g id="ytick_8">
     <g id="line2d_57">
      <path d="M 58.523438 429.527216 
L 504.923437 429.527216 
" clip-path="url(#pfbc7f6c6e7)" style="fill: none; stroke: #b0b0b0; stroke-opacity: 0.3; stroke-width: 0.8; stroke-linecap: square"/>
     </g>
     <g id="line2d_58">
      <g>
       <use xlink:href="#m6b02fc8d87" x="58.523438" y="429.527216" style="stroke: #000000; stroke-width: 0.8"/>
      </g>
     </g>
     <g id="text_25">
      <!-- −1.50 -->
      <g transform="translate(20.878125 433.326435) scale(0.1 -0.1)">
       <defs>
        <path id="DejaVuSans-2e" d="M 684 794 
L 1344 794 
L 1344 0 
L 684 0 
L 684 794 
z
" transform="scale(0.015625)"/>
       </defs>
       <use xlink:href="#DejaVuSans-2212"/>
       <use xlink:href="#DejaVuSans-31" transform="translate(83.789062 0)"/>
       <use xlink:href="#DejaVuSans-2e" transform="translate(147.412109 0)"/>
       <use xlink:href="#DejaVuSans-35" transform="translate(179.199219 0)"/>
       <use xlink:href="#DejaVuSans-30" transform="translate(242.822266 0)"/>
      </g>
     </g>
    </g>
    <g id="ytick_9">
     <g id="line2d_59">
      <path d="M 58.523438 404.053569 
L 504.923437 404.053569 
" clip-path="url(#pfbc7f6c6e7)" style="fill: none; stroke: #b0b0b0; stroke-opacity: 0.3; stroke-width: 0.8; stroke-linecap: square"/>
     </g>
     <g id="line2d_60">
      <g>
       <use xlink:href="#m6b02fc8d87" x="58.523438" y="404.053569" style="stroke: #000000; stroke-width: 0.8"/>
      </g>
     </g>
     <g id="text_26">
      <!-- −1.25 -->
      <g transform="translate(20.878125 407.852788) scale(0.1 -0.1)">
       <use xlink:href="#DejaVuSans-2212"/>
       <use xlink:href="#DejaVuSans-31" transform="translate(83.789062 0)"/>
       <use xlink:href="#DejaVuSans-2e" transform="translate(147.412109 0)"/>
       <use xlink:href="#DejaVuSans-32" transform="translate(179.199219 0)"/>
       <use xlink:href="#DejaVuSans-35" transform="translate(242.822266 0)"/>
      </g>
     </g>
    </g>
    <g id="ytick_10">
     <g id="line2d_61">
      <path d="M 58.523438 378.579923 
L 504.923437 378.579923 
" clip-path="url(#pfbc7f6c6e7)" style="fill: none; stroke: #b0b0b0; stroke-opacity: 0.3; stroke-width: 0.8; stroke-linecap: square"/>
     </g>
     <g id="line2d_62">
      <g>
       <use xlink:href="#m6b02fc8d87" x="58.523438" y="378.579923" style="stroke: #000000; stroke-width: 0.8"/>
      </g>
     </g>
     <g id="text_27">
      <!-- −1.00 -->
      <g transform="translate(20.878125 382.379142) scale(0.1 -0.1)">
       <use xlink:href="#DejaVuSans-2212"/>
       <use xlink:href="#DejaVuSans-31" transform="translate(83.789062 0)"/>
       <use xlink:href="#DejaVuSans-2e" transform="translate(147.412109 0)"/>
       <use xlink:href="#DejaVuSans-30" transform="translate(179.199219 0)"/>
       <use xlink:href="#DejaVuSans-30" transform="translate(242.822266 0)"/>
      </g>
     </g>
    </g>
    <g id="ytick_11">
     <g id="line2d_63">
      <path d="M 58.523438 353.106276 
L 504.923437 353.106276 
" clip-path="url(#pfbc7f6c6e7)" style="fill: none; stroke: #b0b0b0; stroke-opacity: 0.3; stroke-width: 0.8; stroke-linecap: square"/>
     </g>
     <g id="line2d_64">
      <g>
       <use xlink:href="#m6b02fc8d87" x="58.523438" y="353.106276" style="stroke: #000000; stroke-width: 0.8"/>
      </g>
     </g>
     <g id="text_28">
      <!-- −0.75 -->
      <g transform="translate(20.878125 356.905495) scale(0.1 -0.1)">
       <defs>
        <path id="DejaVuSans-37" d="M 525 4666 
L 3525 4666 
L 3525 4397 
L 1831 0 
L 1172 0 
L 2766 4134 
L 525 4134 
L 525 4666 
z
" transform="scale(0.015625)"/>
       </defs>
       <use xlink:href="#DejaVuSans-2212"/>
       <use xlink:href="#DejaVuSans-30" transform="translate(83.789062 0)"/>
       <use xlink:href="#DejaVuSans-2e" transform="translate(147.412109 0)"/>
       <use xlink:href="#DejaVuSans-37" transform="translate(179.199219 0)"/>
       <use xlink:href="#DejaVuSans-35" transform="translate(242.822266 0)"/>
      </g>
     </g>
    </g>
    <g id="ytick_12">
     <g id="line2d_65">
      <path d="M 58.523438 327.63263 
L 504.923437 327.63263 
" clip-path="url(#pfbc7f6c6e7)" style="fill: none; stroke: #b0b0b0; stroke-opacity: 0.3; stroke-width: 0.8; stroke-linecap: square"/>
     </g>
     <g id="line2d_66">
      <g>
       <use xlink:href="#m6b02fc8d87" x="58.523438" y="327.63263" style="stroke: #000000; stroke-width: 0.8"/>
      </g>
     </g>
     <g id="text_29">
      <!-- −0.50 -->
      <g transform="translate(20.878125 331.431848) scale(0.1 -0.1)">
       <use xlink:href="#DejaVuSans-2212"/>
       <use xlink:href="#DejaVuSans-30" transform="translate(83.789062 0)"/>
       <use xlink:href="#DejaVuSans-2e" transform="translate(147.412109 0)"/>
       <use xlink:href="#DejaVuSans-35" transform="translate(179.199219 0)"/>
       <use xlink:href="#DejaVuSans-30" transform="translate(242.822266 0)"/>
      </g>
     </g>
    </g>
    <g id="ytick_13">
     <g id="line2d_67">
      <path d="M 58.523438 302.158983 
L 504.923437 302.158983 
" clip-path="url(#pfbc7f6c6e7)" style="fill: none; stroke: #b0b0b0; stroke-opacity: 0.3; stroke-width: 0.8; stroke-linecap: square"/>
     </g>
     <g id="line2d_68">
      <g>
       <use xlink:href="#m6b02fc8d87" x="58.523438" y="302.158983" style="stroke: #000000; stroke-width: 0.8"/>
      </g>
     </g>
     <g id="text_30">
      <!-- −0.25 -->
      <g transform="translate(20.878125 305.958202) scale(0.1 -0.1)">
       <use xlink:href="#DejaVuSans-2212"/>
       <use xlink:href="#DejaVuSans-30" transform="translate(83.789062 0)"/>
       <use xlink:href="#DejaVuSans-2e" transform="translate(147.412109 0)"/>
       <use xlink:href="#DejaVuSans-32" transform="translate(179.199219 0)"/>
       <use xlink:href="#DejaVuSans-35" transform="translate(242.822266 0)"/>
      </g>
     </g>
    </g>
    <g id="ytick_14">
     <g id="line2d_69">
      <path d="M 58.523438 276.685337 
L 504.923437 276.685337 
" clip-path="url(#pfbc7f6c6e7)" style="fill: none; stroke: #b0b0b0; stroke-opacity: 0.3; stroke-width: 0.8; stroke-linecap: square"/>
     </g>
     <g id="line2d_70">
      <g>
       <use xlink:href="#m6b02fc8d87" x="58.523438" y="276.685337" style="stroke: #000000; stroke-width: 0.8"/>
      </g>
     </g>
     <g id="text_31">
      <!-- 0.00 -->
      <g transform="translate(29.257813 280.484555) scale(0.1 -0.1)">
       <use xlink:href="#DejaVuSans-30"/>
       <use xlink:href="#DejaVuSans-2e" transform="translate(63.623047 0)"/>
       <use xlink:href="#DejaVuSans-30" transform="translate(95.410156 0)"/>
       <use xlink:href="#DejaVuSans-30" transform="translate(159.033203 0)"/>
      </g>
     </g>
    </g>
    <g id="ytick_15">
     <g id="line2d_71">
      <path d="M 58.523438 251.21169 
L 504.923437 251.21169 
" clip-path="url(#pfbc7f6c6e7)" style="fill: none; stroke: #b0b0b0; stroke-opacity: 0.3; stroke-width: 0.8; stroke-linecap: square"/>
     </g>
     <g id="line2d_72">
      <g>
       <use xlink:href="#m6b02fc8d87" x="58.523438" y="251.21169" style="stroke: #000000; stroke-width: 0.8"/>
      </g>
     </g>
     <g id="text_32">
      <!-- 0.25 -->
      <g transform="translate(29.257813 255.010909) scale(0.1 -0.1)">
       <use xlink:href="#DejaVuSans-30"/>
       <use xlink:href="#DejaVuSans-2e" transform="translate(63.623047 0)"/>
       <use xlink:href="#DejaVuSans-32" transform="translate(95.410156 0)"/>
       <use xlink:href="#DejaVuSans-35" transform="translate(159.033203 0)"/>
      </g>
     </g>
    </g>
    <g id="text_33">
     <!-- error = alg(d) - reference  (clipped to +/-1.5) -->
     <g transform="translate(14.798438 455.6775) rotate(-90) scale(0.1 -0.1)">
      <defs>
       <path id="DejaVuSans-2d" d="M 313 2009 
L 1997 2009 
L 1997 1497 
L 313 1497 
L 313 2009 
z
" transform="scale(0.015625)"/>
       <path id="DejaVuSans-66" d="M 2375 4863 
L 2375 4384 
L 1825 4384 
Q 1516 4384 1395 4259 
Q 1275 4134 1275 3809 
L 1275 3500 
L 2222 3500 
L 2222 3053 
L 1275 3053 
L 1275 0 
L 697 0 
L 697 3053 
L 147 3053 
L 147 3500 
L 697 3500 
L 697 3744 
Q 697 4328 969 4595 
Q 1241 4863 1831 4863 
L 2375 4863 
z
" transform="scale(0.015625)"/>
       <path id="DejaVuSans-2b" d="M 2944 4013 
L 2944 2272 
L 4684 2272 
L 4684 1741 
L 2944 1741 
L 2944 0 
L 2419 0 
L 2419 1741 
L 678 1741 
L 678 2272 
L 2419 2272 
L 2419 4013 
L 2944 4013 
z
" transform="scale(0.015625)"/>
       <path id="DejaVuSans-2f" d="M 1625 4666 
L 2156 4666 
L 531 -594 
L 0 -594 
L 1625 4666 
z
" transform="scale(0.015625)"/>
      </defs>
      <use xlink:href="#DejaVuSans-65"/>
      <use xlink:href="#DejaVuSans-72" transform="translate(61.523438 0)"/>
      <use xlink:href="#DejaVuSans-72" transform="translate(100.886719 0)"/>
      <use xlink:href="#DejaVuSans-6f" transform="translate(139.75 0)"/>
      <use xlink:href="#DejaVuSans-72" transform="translate(200.931641 0)"/>
      <use xlink:href="#DejaVuSans-20" transform="translate(242.044922 0)"/>
      <use xlink:href="#DejaVuSans-3d" transform="translate(273.832031 0)"/>
      <use xlink:href="#DejaVuSans-20" transform="translate(357.621094 0)"/>
      <use xlink:href="#DejaVuSans-61" transform="translate(389.408203 0)"/>
      <use xlink:href="#DejaVuSans-6c" transform="translate(450.6875 0)"/>
      <use xlink:href="#DejaVuSans-67" transform="translate(478.470703 0)"/>
      <use xlink:href="#DejaVuSans-28" transform="translate(541.947266 0)"/>
      <use xlink:href="#DejaVuSans-64" transform="translate(580.960938 0)"/>
      <use xlink:href="#DejaVuSans-29" transform="translate(644.4375 0)"/>
      <use xlink:href="#DejaVuSans-20" transform="translate(683.451172 0)"/>
      <use xlink:href="#DejaVuSans-2d" transform="translate(715.238281 0)"/>
      <use xlink:href="#DejaVuSans-20" transform="translate(751.322266 0)"/>
      <use xlink:href="#DejaVuSans-72" transform="translate(783.109375 0)"/>
      <use xlink:href="#DejaVuSans-65" transform="translate(821.972656 0)"/>
      <use xlink:href="#DejaVuSans-66" transform="translate(883.496094 0)"/>
      <use xlink:href="#DejaVuSans-65" transform="translate(918.701172 0)"/>
      <use xlink:href="#DejaVuSans-72" transform="translate(980.224609 0)"/>
      <use xlink:href="#DejaVuSans-65" transform="translate(1019.087891 0)"/>
      <use xlink:href="#DejaVuSans-6e" transform="translate(1080.611328 0)"/>
      <use xlink:href="#DejaVuSans-63" transform="translate(1143.990234 0)"/>
      <use xlink:href="#DejaVuSans-65" transform="translate(1198.970703 0)"/>
      <use xlink:href="#DejaVuSans-20" transform="translate(1260.494141 0)"/>
      <use xlink:href="#DejaVuSans-20" transform="translate(1292.28125 0)"/>
      <use xlink:href="#DejaVuSans-28" transform="translate(1324.068359 0)"/>
      <use xlink:href="#DejaVuSans-63" transform="translate(1363.082031 0)"/>
      <use xlink:href="#DejaVuSans-6c" transform="translate(1418.0625 0)"/>
      <use xlink:href="#DejaVuSans-69" transform="translate(1445.845703 0)"/>
      <use xlink:href="#DejaVuSans-70" transform="translate(1473.628906 0)"/>
      <use xlink:href="#DejaVuSans-70" transform="translate(1537.105469 0)"/>
      <use xlink:href="#DejaVuSans-65" transform="translate(1600.582031 0)"/>
      <use xlink:href="#DejaVuSans-64" transform="translate(1662.105469 0)"/>
      <use xlink:href="#DejaVuSans-20" transform="translate(1725.582031 0)"/>
      <use xlink:href="#DejaVuSans-74" transform="translate(1757.369141 0)"/>
      <use xlink:href="#DejaVuSans-6f" transform="translate(1796.578125 0)"/>
      <use xlink:href="#DejaVuSans-20" transform="translate(1857.759766 0)"/>
      <use xlink:href="#DejaVuSans-2b" transform="translate(1889.546875 0)"/>
      <use xlink:href="#DejaVuSans-2f" transform="translate(1973.335938 0)"/>
      <use xlink:href="#DejaVuSans-2d" transform="translate(2007.027344 0)"/>
      <use xlink:href="#DejaVuSans-31" transform="translate(2043.111328 0)"/>
      <use xlink:href="#DejaVuSans-2e" transform="translate(2106.734375 0)"/>
      <use xlink:href="#DejaVuSans-35" transform="translate(2138.521484 0)"/>
      <use xlink:href="#DejaVuSans-29" transform="translate(2202.144531 0)"/>
     </g>
    </g>
   </g>
   <g id="line2d_73">
    <path d="M 78.814347 276.685337 
L 484.632528 276.685337 
L 484.632528 276.685337 
" clip-path="url(#pfbc7f6c6e7)" style="fill: none; stroke-dasharray: 1.4,1.4; stroke-dashoffset: 1.4; stroke: #7f7f7f; stroke-width: 1.4"/>
   </g>
   <g id="line2d_74">
    <path d="M 78.814347 276.685337 
L 484.632528 276.685337 
L 484.632528 276.685337 
" clip-path="url(#pfbc7f6c6e7)" style="fill: none; stroke: #1f77b4; stroke-width: 1.4; stroke-linecap: square"/>
   </g>
   <g id="line2d_75">
    <path d="M 78.814347 276.68535 
L 476.698644 276.733171 
L 477.095338 276.824173 
L 477.492033 276.737973 
L 478.285421 276.850702 
L 478.682115 276.76721 
L 479.078809 276.939767 
L 479.475504 276.790145 
L 480.268892 277.038667 
L 480.665586 276.859449 
L 481.06228 277.294627 
L 481.458975 276.977981 
L 482.252363 277.89797 
L 482.649057 277.30111 
L 483.045752 279.682027 
L 483.442446 279.239563 
L 483.83914 284.722416 
L 484.235834 276.685337 
L 484.632528 276.685337 
L 484.632528 276.685337 
" clip-path="url(#pfbc7f6c6e7)" style="fill: none; stroke-dasharray: 5.18,2.24; stroke-dashoffset: 0; stroke: #ff7f0e; stroke-width: 1.4"/>
   </g>
   <g id="line2d_76">
    <path d="M 78.814347 276.685337 
L 484.632528 276.685337 
L 484.632528 276.685337 
" clip-path="url(#pfbc7f6c6e7)" style="fill: none; stroke-dasharray: 8.96,2.24,1.4,2.24; stroke-dashoffset: 0; stroke: #2ca02c; stroke-width: 1.4"/>
   </g>
   <g id="line2d_77">
    <path d="M 78.814347 274.370284 
L 79.211041 276.689625 
L 107.37633 276.882969 
L 131.971371 276.834355 
L 151.806082 276.79898 
L 171.244099 277.073919 
L 188.698644 277.104245 
L 204.566413 276.915455 
L 216.070545 276.780294 
L 229.954842 277.323139 
L 242.649057 277.596988 
L 254.549884 277.6287 
L 265.260628 277.442247 
L 275.574677 277.041887 
L 282.318479 276.752173 
L 291.442446 277.722218 
L 300.169718 278.426787 
L 308.500297 278.869796 
L 316.037487 279.053829 
L 323.177983 279.015947 
L 329.921785 278.769337 
L 336.665586 278.295202 
L 343.012694 277.618291 
L 348.963107 276.758495 
L 349.359801 276.692866 
L 351.739966 277.551416 
L 357.293685 279.451852 
L 362.45071 280.999412 
L 367.607735 282.316823 
L 372.368066 283.308439 
L 377.128396 284.063137 
L 381.492033 284.526563 
L 385.458975 284.740335 
L 389.425917 284.73827 
L 393.392859 284.500443 
L 396.963107 284.066212 
L 400.533355 283.404111 
L 403.706909 282.607303 
L 406.880462 281.597147 
L 410.054016 280.354862 
L 413.22757 278.859213 
L 416.004429 277.323789 
L 417.194512 276.685337 
L 484.632528 276.685337 
L 484.632528 276.685337 
" clip-path="url(#pfbc7f6c6e7)" style="fill: none; stroke-dasharray: 1.4,2.31; stroke-dashoffset: 0; stroke: #d62728; stroke-width: 1.4"/>
   </g>
   <g id="line2d_78">
    <path d="M 78.814347 277.076936 
L 106.979636 276.294226 
L 128.004429 275.539707 
L 128.401123 277.820739 
L 150.219305 276.83553 
L 169.657322 275.743996 
L 172.434181 275.568796 
L 172.830876 277.840902 
L 190.285421 276.606688 
L 202.582942 275.586838 
L 202.979636 277.848557 
L 217.657322 276.432816 
L 225.591206 275.567443 
L 225.9879 277.819161 
L 239.078809 276.207664 
L 244.235834 275.505555 
L 244.632528 277.746781 
L 256.136661 276.018363 
L 258.516826 275.631835 
L 258.91352 277.868443 
L 259.310214 277.802704 
L 259.706909 275.725136 
L 260.896991 275.525227 
L 261.293685 277.760038 
L 272.004429 275.824135 
L 273.194512 275.593933 
L 273.591206 277.813423 
L 283.508561 275.756617 
L 284.30195 275.58154 
L 284.698644 277.790388 
L 293.822611 275.644532 
L 294.219305 275.545855 
L 294.615999 277.74364 
L 302.549884 275.65827 
L 302.946578 277.846231 
L 310.880462 275.539138 
L 311.277157 277.714718 
L 318.020958 275.557833 
L 318.417652 277.722227 
L 324.76476 275.507966 
L 325.161454 277.66051 
L 330.715173 275.560296 
L 331.111867 277.742511 
L 336.268892 275.641961 
L 336.665586 277.771378 
L 341.822611 275.512039 
L 342.219305 277.628758 
L 346.186247 275.772248 
L 346.582942 277.878016 
L 350.946578 275.705756 
L 351.343272 277.799337 
L 355.706909 275.480172 
L 356.103603 277.559208 
L 359.673851 275.542527 
L 360.070545 277.609108 
L 363.244099 275.718057 
L 363.640793 277.772498 
L 367.211041 275.526251 
L 367.607735 277.571428 
L 370.384595 275.730705 
L 370.781289 277.758447 
L 373.954842 275.546523 
L 374.351537 277.559539 
L 377.128396 275.522994 
L 377.52509 277.521871 
L 380.30195 275.383598 
L 380.698644 277.368093 
L 382.682115 275.77322 
L 383.078809 277.745151 
L 385.458975 275.751521 
L 385.855669 277.70881 
L 387.83914 275.977233 
L 388.235834 277.921109 
L 391.012694 275.384352 
L 391.409388 277.35041 
L 393.392859 275.45304 
L 393.789553 277.362849 
L 395.37633 275.788062 
L 395.773024 277.684666 
L 397.756495 275.641189 
L 398.15319 277.520936 
L 400.136661 275.39104 
L 400.533355 277.253622 
L 401.723438 275.930134 
L 402.120132 277.779615 
L 404.103603 275.493751 
L 404.500297 277.32362 
L 405.69038 275.901674 
L 406.087074 277.717652 
L 407.673851 275.757985 
L 408.070545 277.560961 
L 409.260628 276.041112 
L 409.657322 277.823745 
L 410.847404 276.25721 
L 411.244099 278.024003 
L 413.22757 275.310662 
L 413.624264 277.052126 
L 414.814347 275.359228 
L 415.211041 277.083483 
L 416.401123 275.335779 
L 416.797818 277.040694 
L 417.194512 276.685337 
L 484.632528 276.685337 
L 484.632528 276.685337 
" clip-path="url(#pfbc7f6c6e7)" style="fill: none; stroke-dasharray: 4.2,1.4,1.4,1.4; stroke-dashoffset: 0; stroke: #9467bd; stroke-width: 1.4"/>
   </g>
   <g id="line2d_79">
    <path d="M 78.814347 276.685337 
L 94.682115 276.714952 
L 99.442446 276.68484 
L 112.136661 276.702361 
L 115.706909 276.688929 
L 124.830876 276.683894 
L 125.624264 276.683858 
L 126.020958 276.826163 
L 131.971371 276.683538 
L 140.30195 276.689086 
L 143.078809 276.682896 
L 143.475504 276.828179 
L 148.632528 276.682521 
L 155.37633 276.689079 
L 160.533355 276.681604 
L 160.930049 276.825583 
L 165.293685 276.681176 
L 171.244099 276.688955 
L 176.401123 276.680056 
L 181.558148 276.688786 
L 185.921785 276.678915 
L 190.285421 276.688578 
L 194.649057 276.677712 
L 199.012694 276.688292 
L 202.582942 276.67646 
L 206.15319 276.688003 
L 209.723438 276.67519 
L 213.69038 276.727339 
L 215.277157 276.674097 
L 218.847404 276.687306 
L 221.624264 276.672726 
L 224.401123 276.686928 
L 227.177983 276.671414 
L 230.748231 276.71834 
L 231.938314 276.670185 
L 234.715173 276.686071 
L 237.492033 276.668645 
L 240.268892 276.685511 
L 242.649057 276.685251 
L 245.425917 276.703706 
L 246.615999 276.684789 
L 247.012694 276.819113 
L 248.202776 276.684587 
L 250.186247 276.704126 
L 252.169718 276.684055 
L 254.15319 276.704487 
L 256.136661 276.683486 
L 258.120132 276.704846 
L 260.103603 276.682865 
L 262.087074 276.705197 
L 263.673851 276.705338 
L 264.070545 276.821811 
L 265.260628 276.705461 
L 267.244099 276.681593 
L 269.22757 276.705804 
L 271.211041 276.680813 
L 273.194512 276.706144 
L 275.177983 276.679963 
L 277.161454 276.706469 
L 279.144925 276.679042 
L 281.52509 276.735227 
L 283.111867 276.678024 
L 284.30195 276.707012 
L 285.492033 276.677396 
L 286.682115 276.707194 
L 287.872198 276.676719 
L 289.06228 276.707374 
L 290.252363 276.676016 
L 291.442446 276.707535 
L 292.632528 276.675281 
L 293.822611 276.707699 
L 295.012694 276.674513 
L 296.202776 276.707854 
L 297.392859 276.673701 
L 298.582942 276.708003 
L 299.773024 276.672826 
L 300.963107 276.708118 
L 302.15319 276.671946 
L 303.343272 276.708264 
L 304.533355 276.671008 
L 305.723438 276.708376 
L 306.91352 276.670026 
L 308.103603 276.708499 
L 309.293685 276.669006 
L 310.483768 276.708597 
L 311.673851 276.667925 
L 312.863933 276.708691 
L 314.054016 276.666799 
L 315.244099 276.794105 
L 315.640793 276.666015 
L 316.830876 276.708805 
L 318.020958 276.664768 
L 319.211041 276.708862 
L 320.401123 276.663483 
L 321.591206 276.708898 
L 322.781289 276.662144 
L 323.971371 276.708934 
L 325.161454 276.660735 
L 326.351537 276.708949 
L 327.541619 276.659251 
L 328.731702 276.708947 
L 329.921785 276.6577 
L 331.111867 276.708927 
L 331.905256 276.708915 
L 332.698644 276.7089 
L 333.888727 276.654924 
L 335.078809 276.708841 
L 336.268892 276.653134 
L 337.458975 276.708744 
L 337.855669 276.65191 
L 338.252363 276.708712 
L 338.649057 276.651291 
L 339.045752 276.708683 
L 339.442446 276.650648 
L 339.83914 276.708636 
L 340.235834 276.649992 
L 340.632528 276.708598 
L 341.029223 276.649351 
L 341.425917 276.708566 
L 341.822611 276.648674 
L 342.219305 276.708522 
L 342.615999 276.647976 
L 343.012694 276.708476 
L 343.409388 276.647298 
L 343.806082 276.708426 
L 344.202776 276.646588 
L 344.599471 276.708364 
L 344.996165 276.64586 
L 345.392859 276.708305 
L 345.789553 276.645131 
L 346.186247 276.708252 
L 346.582942 276.644389 
L 346.979636 276.708185 
L 347.37633 276.64364 
L 347.773024 276.708118 
L 348.169718 276.642871 
L 348.566413 276.708048 
L 348.963107 276.642089 
L 349.359801 276.707973 
L 349.756495 276.641261 
L 350.15319 276.70787 
L 350.549884 276.640442 
L 350.946578 276.707808 
L 351.343272 276.639622 
L 351.739966 276.707689 
L 352.136661 276.6388 
L 352.533355 276.707629 
L 352.930049 276.63794 
L 353.326743 276.707516 
L 353.723438 276.63711 
L 354.120132 276.707428 
L 354.516826 276.636228 
L 354.91352 276.707307 
L 355.310214 276.635303 
L 355.706909 276.707198 
L 356.103603 276.634418 
L 356.500297 276.707091 
L 356.896991 276.633483 
L 357.293685 276.706982 
L 357.69038 276.63253 
L 358.087074 276.706859 
L 358.483768 276.63159 
L 358.880462 276.706735 
L 359.277157 276.630613 
L 359.673851 276.706614 
L 360.070545 276.629611 
L 360.467239 276.706479 
L 360.863933 276.628608 
L 361.260628 276.706337 
L 361.657322 276.62759 
L 362.054016 276.706203 
L 362.45071 276.626531 
L 362.847404 276.706049 
L 363.244099 276.62547 
L 363.640793 276.705889 
L 364.037487 276.624387 
L 364.434181 276.705729 
L 364.830876 276.623289 
L 365.22757 276.705563 
L 365.624264 276.622165 
L 366.020958 276.705393 
L 366.417652 276.621024 
L 366.814347 276.705212 
L 367.211041 276.619819 
L 367.607735 276.704986 
L 368.004429 276.618657 
L 368.401123 276.704814 
L 368.797818 276.617418 
L 369.194512 276.704587 
L 369.591206 276.61623 
L 369.9879 276.704385 
L 370.384595 276.614951 
L 370.781289 276.704223 
L 371.177983 276.613711 
L 371.574677 276.703981 
L 371.971371 276.612374 
L 372.368066 276.70378 
L 372.76476 276.611052 
L 373.161454 276.703511 
L 373.558148 276.60971 
L 373.954842 276.703284 
L 374.351537 276.608346 
L 374.748231 276.703043 
L 375.144925 276.606948 
L 375.541619 276.702786 
L 375.938314 276.605534 
L 376.335008 276.702517 
L 376.731702 276.604098 
L 377.128396 276.702259 
L 377.52509 276.602609 
L 377.921785 276.701985 
L 378.318479 276.601102 
L 378.715173 276.701687 
L 379.111867 276.599579 
L 379.508561 276.701391 
L 379.905256 276.598012 
L 380.30195 276.701088 
L 380.698644 276.596415 
L 381.095338 276.700782 
L 381.492033 276.594792 
L 381.888727 276.700456 
L 382.285421 276.593138 
L 382.682115 276.700124 
L 383.078809 276.591451 
L 383.475504 276.699752 
L 383.872198 276.589668 
L 384.268892 276.699368 
L 384.665586 276.587967 
L 385.06228 276.699004 
L 385.458975 276.586145 
L 385.855669 276.698654 
L 386.252363 276.584294 
L 386.649057 276.698293 
L 387.045752 276.582434 
L 387.442446 276.697841 
L 387.83914 276.580536 
L 388.235834 276.697438 
L 388.632528 276.578586 
L 389.029223 276.697046 
L 389.425917 276.576619 
L 389.822611 276.696589 
L 390.219305 276.574623 
L 390.615999 276.696132 
L 391.012694 276.572529 
L 391.409388 276.695688 
L 391.806082 276.570454 
L 392.202776 276.695215 
L 392.599471 276.568312 
L 392.996165 276.694732 
L 393.392859 276.566091 
L 393.789553 276.694252 
L 394.186247 276.563871 
L 394.582942 276.693722 
L 394.979636 276.561579 
L 395.37633 276.693182 
L 395.773024 276.559233 
L 396.169718 276.692639 
L 396.566413 276.556851 
L 396.963107 276.692092 
L 397.359801 276.554416 
L 397.756495 276.691513 
L 398.15319 276.551931 
L 398.549884 276.690911 
L 398.946578 276.549389 
L 399.343272 276.690303 
L 399.739966 276.546783 
L 400.136661 276.689672 
L 400.533355 276.54404 
L 400.930049 276.688996 
L 401.326743 276.54132 
L 401.723438 276.688329 
L 402.120132 276.538541 
L 402.516826 276.687605 
L 402.91352 276.535702 
L 403.310214 276.686921 
L 403.706909 276.53278 
L 404.103603 276.686194 
L 404.500297 276.529868 
L 405.293685 276.843712 
L 405.69038 276.684645 
L 406.087074 276.845234 
L 406.483768 276.683837 
L 406.880462 276.846783 
L 407.277157 276.683029 
L 407.673851 276.848448 
L 408.070545 276.682202 
L 408.467239 276.850049 
L 408.863933 276.681325 
L 409.260628 276.851716 
L 409.657322 276.680414 
L 410.054016 276.853433 
L 410.45071 276.679507 
L 410.847404 276.855156 
L 411.244099 276.678576 
L 411.640793 276.856925 
L 412.037487 276.677589 
L 412.434181 276.858729 
L 412.830876 276.676589 
L 413.22757 276.860556 
L 413.624264 276.675555 
L 414.020958 276.862424 
L 414.417652 276.674471 
L 414.814347 276.864332 
L 415.211041 276.673365 
L 415.607735 276.866274 
L 416.004429 276.672228 
L 416.401123 276.868259 
L 416.797818 276.671058 
L 417.194512 276.870233 
L 417.591206 276.669746 
L 417.9879 276.872246 
L 418.384595 276.668586 
L 418.781289 276.874352 
L 419.177983 276.667246 
L 419.574677 276.876546 
L 419.971371 276.665875 
L 420.368066 276.878788 
L 420.76476 276.664508 
L 421.161454 276.880939 
L 421.558148 276.663095 
L 421.954842 276.883246 
L 422.351537 276.661615 
L 422.748231 276.885647 
L 423.144925 276.660125 
L 423.541619 276.888007 
L 423.938314 276.658607 
L 424.335008 276.890449 
L 424.731702 276.656937 
L 425.128396 276.892992 
L 425.52509 276.655322 
L 425.921785 276.895569 
L 426.318479 276.653611 
L 426.715173 276.898216 
L 427.111867 276.651779 
L 427.508561 276.900962 
L 427.905256 276.649973 
L 428.30195 276.903711 
L 428.698644 276.648059 
L 429.095338 276.90654 
L 429.492033 276.646068 
L 429.888727 276.909466 
L 430.285421 276.644034 
L 430.682115 276.912492 
L 431.078809 276.641925 
L 431.475504 276.915571 
L 431.872198 276.639745 
L 432.268892 276.918722 
L 432.665586 276.637484 
L 433.06228 276.921983 
L 433.458975 276.635123 
L 433.855669 276.925326 
L 434.252363 276.632515 
L 434.649057 276.928686 
L 435.045752 276.630082 
L 435.442446 276.932175 
L 435.83914 276.627454 
L 436.235834 276.935943 
L 436.632528 276.624624 
L 437.029223 276.939574 
L 437.425917 276.6218 
L 437.822611 276.943518 
L 438.219305 276.618875 
L 438.615999 276.947442 
L 439.012694 276.615798 
L 439.409388 276.9517 
L 439.806082 276.612617 
L 440.202776 276.955918 
L 440.599471 276.609286 
L 440.996165 276.960358 
L 441.392859 276.605893 
L 441.789553 276.964899 
L 442.186247 276.602281 
L 442.582942 276.969643 
L 442.979636 276.598475 
L 443.37633 276.974432 
L 443.773024 276.594556 
L 444.169718 276.979507 
L 444.566413 276.590467 
L 444.963107 276.98482 
L 445.359801 276.586195 
L 445.756495 276.990299 
L 446.15319 276.581746 
L 446.549884 276.995935 
L 446.946578 276.577111 
L 447.343272 277.001853 
L 447.739966 276.572171 
L 448.136661 277.008026 
L 448.533355 276.567052 
L 448.930049 277.014424 
L 449.326743 276.561676 
L 449.723437 277.021098 
L 450.120132 276.556034 
L 450.516826 277.028073 
L 450.91352 276.550107 
L 451.310214 277.03529 
L 451.706909 276.543777 
L 452.103603 277.0428 
L 452.500297 276.537258 
L 452.896991 277.050833 
L 453.293685 276.530193 
L 453.69038 277.059182 
L 454.087074 276.522974 
L 454.483768 277.067982 
L 454.880462 276.515196 
L 455.277157 277.077349 
L 455.673851 276.507019 
L 456.070545 277.087141 
L 456.467239 276.498289 
L 456.863933 277.0974 
L 457.260628 276.489066 
L 457.657322 277.108161 
L 458.054016 276.479318 
L 458.45071 277.119803 
L 458.847404 276.46896 
L 459.244099 277.131937 
L 459.640793 276.457851 
L 460.037487 277.144903 
L 460.434181 276.445983 
L 460.830876 277.158749 
L 461.22757 276.43336 
L 461.624264 277.173491 
L 462.020958 276.419791 
L 462.417652 277.189284 
L 462.814347 276.405152 
L 463.211041 277.206194 
L 463.607735 276.389468 
L 464.004429 277.224363 
L 464.401123 276.372437 
L 464.797818 277.243974 
L 465.194512 276.353951 
L 465.591206 277.265209 
L 465.9879 276.333905 
L 466.384595 277.288221 
L 466.781289 276.312057 
L 467.177983 277.313312 
L 467.574677 276.288151 
L 467.971371 277.340743 
L 468.368066 276.261857 
L 468.76476 277.370851 
L 469.161454 276.23282 
L 469.558148 277.404081 
L 469.954842 276.200609 
L 470.351537 277.440953 
L 470.748231 276.164686 
L 471.144925 277.482107 
L 471.541619 276.124379 
L 471.938314 277.528345 
L 472.335008 276.078846 
L 472.731702 277.580679 
L 473.128396 276.027017 
L 473.52509 277.640412 
L 473.921785 275.967504 
L 474.318479 277.709245 
L 474.715173 275.89848 
L 475.111867 277.789445 
L 475.508561 275.817492 
L 475.905256 277.8841 
L 476.30195 275.721161 
L 476.698644 277.997527 
L 477.095338 275.604706 
L 477.492033 278.135955 
L 477.888727 275.461125 
L 478.285421 278.308709 
L 478.682115 275.279748 
L 479.078809 278.53041 
L 479.475504 275.04346 
L 479.872198 278.82536 
L 480.268892 274.722979 
L 480.665586 279.23714 
L 481.06228 274.263698 
L 481.458975 279.852458 
L 481.855669 273.550764 
L 482.252363 280.872033 
L 482.649057 272.294328 
L 483.045752 282.88982 
L 483.442446 269.491092 
L 483.83914 288.781383 
L 484.235834 257.709034 
L 484.632528 429.527216 
L 484.632528 429.527216 
" clip-path="url(#pfbc7f6c6e7)" style="fill: none; stroke-dasharray: 7,1.4; stroke-dashoffset: 0; stroke: #8c564b; stroke-width: 1.4"/>
   </g>
   <g id="line2d_80">
    <path d="M 58.523438 276.685337 
L 504.923437 276.685337 
" clip-path="url(#pfbc7f6c6e7)" style="fill: none; stroke: #808080; stroke-width: 0.6; stroke-linecap: square"/>
   </g>
   <g id="patch_9">
    <path d="M 58.523438 438.118125 
L 58.523438 249.118125 
" style="fill: none; stroke: #000000; stroke-width: 0.8; stroke-linejoin: miter; stroke-linecap: square"/>
   </g>
   <g id="patch_10">
    <path d="M 504.923437 438.118125 
L 504.923437 249.118125 
" style="fill: none; stroke: #000000; stroke-width: 0.8; stroke-linejoin: miter; stroke-linecap: square"/>
   </g>
   <g id="patch_11">
    <path d="M 58.523438 438.118125 
L 504.923438 438.118125 
" style="fill: none; stroke: #000000; stroke-width: 0.8; stroke-linejoin: miter; stroke-linecap: square"/>
   </g>
   <g id="patch_12">
    <path d="M 58.523438 249.118125 
L 504.923438 249.118125 
" style="fill: none; stroke: #000000; stroke-width: 0.8; stroke-linejoin: miter; stroke-linecap: square"/>
   </g>
   <g id="text_34">
    <!-- Log-domain error vs DirectEvaluation reference -->
    <g transform="translate(139.277812 243.118125) scale(0.12 -0.12)">
     <use xlink:href="#DejaVuSans-4c"/>
     <use xlink:href="#DejaVuSans-6f" transform="translate(53.962891 0)"/>
     <use xlink:href="#DejaVuSans-67" transform="translate(115.144531 0)"/>
     <use xlink:href="#DejaVuSans-2d" transform="translate(178.621094 0)"/>
     <use xlink:href="#DejaVuSans-64" transform="translate(214.705078 0)"/>
     <use xlink:href="#DejaVuSans-6f" transform="translate(278.181641 0)"/>
     <use xlink:href="#DejaVuSans-6d" transform="translate(339.363281 0)"/>
     <use xlink:href="#DejaVuSans-61" transform="translate(436.775391 0)"/>
     <use xlink:href="#DejaVuSans-69" transform="translate(498.054688 0)"/>
     <use xlink:href="#DejaVuSans-6e" transform="translate(525.837891 0)"/>
     <use xlink:href="#DejaVuSans-20" transform="translate(589.216797 0)"/>
     <use xlink:href="#DejaVuSans-65" transform="translate(621.003906 0)"/>
     <use xlink:href="#DejaVuSans-72" transform="translate(682.527344 0)"/>
     <use xlink:href="#DejaVuSans-72" transform="translate(721.890625 0)"/>
     <use xlink:href="#DejaVuSans-6f" transform="translate(760.753906 0)"/>
     <use xlink:href="#DejaVuSans-72" transform="translate(821.935547 0)"/>
     <use xlink:href="#DejaVuSans-20" transform="translate(863.048828 0)"/>
     <use xlink:href="#DejaVuSans-76" transform="translate(894.835938 0)"/>
     <use xlink:href="#DejaVuSans-73" transform="translate(954.015625 0)"/>
     <use xlink:href="#DejaVuSans-20" transform="translate(1006.115234 0)"/>
     <use xlink:href="#DejaVuSans-44" transform="translate(1037.902344 0)"/>
     <use xlink:href="#DejaVuSans-69" transform="translate(1114.904297 0)"/>
     <use xlink:href="#DejaVuSans-72" transform="translate(1142.6875 0)"/>
     <use xlink:href="#DejaVuSans-65" transform="translate(1181.550781 0)"/>
     <use xlink:href="#DejaVuSans-63" transform="translate(1243.074219 0)"/>
     <use xlink:href="#DejaVuSans-74" transform="translate(1298.054688 0)"/>
     <use xlink:href="#DejaVuSans-45" transform="translate(1337.263672 0)"/>
     <use xlink:href="#DejaVuSans-76" transform="translate(1400.447266 0)"/>
     <use xlink:href="#DejaVuSans-61" transform="translate(1459.626953 0)"/>
     <use xlink:href="#DejaVuSans-6c" transform="translate(1520.90625 0)"/>
     <use xlink:href="#DejaVuSans-75" transform="translate(1548.689453 0)"/>
     <use xlink:href="#DejaVuSans-61" transform="translate(1612.068359 0)"/>
     <use xlink:href="#DejaVuSans-74" transform="translate(1673.347656 0)"/>
     <use xlink:href="#DejaVuSans-69" transform="translate(1712.556641 0)"/>
     <use xlink:href="#DejaVuSans-6f" transform="translate(1740.339844 0)"/>
     <use xlink:href="#DejaVuSans-6e" transform="translate(1801.521484 0)"/>
     <use xlink:href="#DejaVuSans-20" transform="translate(1864.900391 0)"/>
     <use xlink:href="#DejaVuSans-72" transform="translate(1896.6875 0)"/>
     <use xlink:href="#DejaVuSans-65" transform="translate(1935.550781 0)"/>
     <use xlink:href="#DejaVuSans-66" transform="translate(1997.074219 0)"/>
     <use xlink:href="#DejaVuSans-65" transform="translate(2032.279297 0)"/>
     <use xlink:href="#DejaVuSans-72" transform="translate(2093.802734 0)"/>
     <use xlink:href="#DejaVuSans-65" transform="translate(2132.666016 0)"/>
     <use xlink:href="#DejaVuSans-6e" transform="translate(2194.189453 0)"/>
     <use xlink:href="#DejaVuSans-63" transform="translate(2257.568359 0)"/>
     <use xlink:href="#DejaVuSans-65" transform="translate(2312.548828 0)"/>
    </g>
   </g>
  </g>
 </g>
 <defs>
  <clipPath id="p10680006cc">
   <rect x="58.523438" y="22.318125" width="446.4" height="189"/>
  </clipPath>
  <clipPath id="pfbc7f6c6e7">
   <rect x="58.523438" y="249.118125" width="446.4" height="189"/>
  </clipPath>
 </defs>
</svg>
