<?xml version="1.0" encoding="utf-8" standalone="no"?>
<!DOCTYPE svg PUBLIC "-//W3C//DTD SVG 1.1//EN"
  "http://www.w3.org/Graphics/SVG/1.1/DTD/svg11.dtd">
<svg xmlns:xlink="http://www.w3.org/1999/xlink" width="450.242188pt" height="281.634375pt" viewBox="0 0 450.242188 281.634375" xmlns="http://www.w3.org/2000/svg" version="1.1">
 <metadata>
  <rdf:RDF xmlns:dc="http://purl.org/dc/elements/1.1/" xmlns:cc="http://creativecommons.org/ns#" xmlns:rdf="http://www.w3.org/1999/02/22-rdf-syntax-ns#">
   <cc:Work>
    <dc:type rdf:resource="http://purl.org/dc/dcmitype/StillImage"/>
    <dc:date>2026-05-20T07:54:21.659386</dc:date>
    <dc:format>image/svg+xml</dc:format>
    <dc:creator>
     <cc:Agent>
      <dc:title>Matplotlib v3.10.3, https://matplotlib.org/</dc:title>
     </cc:Agent>
    </dc:creator>
   </cc:Work>
  </rdf:RDF>
 </metadata>
 <defs>
  <style type="text/css">*{stroke-linejoin: round; stroke-linecap: butt}</style>
 </defs>
 <g id="figure_1">
  <g id="patch_1">
   <path d="M 0 281.634375 
L 450.242188 281.634375 
L 450.242188 0 
L 0 0 
z
" style="fill: #ffffff"/>
  </g>
  <g id="axes_1">
   <g id="patch_2">
    <path d="M 49.260938 244.078125 
L 439.860938 244.078125 
L 439.860938 22.318125 
L 49.260938 22.318125 
z
" style="fill: #ffffff"/>
   </g>
   <g id="matplotlib.axis_1">
    <g id="xtick_1">
     <g id="line2d_1">
      <path d="M 49.260938 244.078125 
L 49.260938 22.318125 
" clip-path="url(#p01b1590052)" style="fill: none; stroke: #b0b0b0; stroke-opacity: 0.3; stroke-width: 0.8; stroke-linecap: square"/>
     </g>
     <g id="line2d_2">
      <defs>
       <path id="m674dfd49dd" d="M 0 0 
L 0 3.5 
" style="stroke: #000000; stroke-width: 0.8"/>
      </defs>
      <g>
       <use xlink:href="#m674dfd49dd" x="49.260938" y="244.078125" style="stroke: #000000; stroke-width: 0.8"/>
      </g>
     </g>
     <g id="text_1">
      <!-- −10 -->
      <g transform="translate(38.708594 258.676562) scale(0.1 -0.1)">
       <defs>
        <path id="DejaVuSans-2212" d="M 678 2272 
L 4684 2272 
L 4684 1741 
L 678 1741 
L 678 2272 
z
" transform="scale(0.015625)"/>
        <path id="DejaVuSans-31" d="M 794 531 
L 1825 531 
L 1825 4091 
L 703 3866 
L 703 4441 
L 1819 4666 
L 2450 4666 
L 2450 531 
L 3481 531 
L 3481 0 
L 794 0 
L 794 531 
z
" transform="scale(0.015625)"/>
        <path id="DejaVuSans-30" d="M 2034 4250 
Q 1547 4250 1301 3770 
Q 1056 3291 1056 2328 
Q 1056 1369 1301 889 
Q 1547 409 2034 409 
Q 2525 409 2770 889 
Q 3016 1369 3016 2328 
Q 3016 3291 2770 3770 
Q 2525 4250 2034 4250 
z
M 2034 4750 
Q 2819 4750 3233 4129 
Q 3647 3509 3647 2328 
Q 3647 1150 3233 529 
Q 2819 -91 2034 -91 
Q 1250 -91 836 529 
Q 422 1150 422 2328 
Q 422 3509 836 4129 
Q 1250 4750 2034 4750 
z
" transform="scale(0.015625)"/>
       </defs>
       <use xlink:href="#DejaVuSans-2212"/>
       <use xlink:href="#DejaVuSans-31" transform="translate(83.789062 0)"/>
       <use xlink:href="#DejaVuSans-30" transform="translate(147.412109 0)"/>
      </g>
     </g>
    </g>
    <g id="xtick_2">
     <g id="line2d_3">
      <path d="M 127.380938 244.078125 
L 127.380938 22.318125 
" clip-path="url(#p01b1590052)" style="fill: none; stroke: #b0b0b0; stroke-opacity: 0.3; stroke-width: 0.8; stroke-linecap: square"/>
     </g>
     <g id="line2d_4">
      <g>
       <use xlink:href="#m674dfd49dd" x="127.380938" y="244.078125" style="stroke: #000000; stroke-width: 0.8"/>
      </g>
     </g>
     <g id="text_2">
      <!-- −8 -->
      <g transform="translate(120.009844 258.676562) scale(0.1 -0.1)">
       <defs>
        <path id="DejaVuSans-38" d="M 2034 2216 
Q 1584 2216 1326 1975 
Q 1069 1734 1069 1313 
Q 1069 891 1326 650 
Q 1584 409 2034 409 
Q 2484 409 2743 651 
Q 3003 894 3003 1313 
Q 3003 1734 2745 1975 
Q 2488 2216 2034 2216 
z
M 1403 2484 
Q 997 2584 770 2862 
Q 544 3141 544 3541 
Q 544 4100 942 4425 
Q 1341 4750 2034 4750 
Q 2731 4750 3128 4425 
Q 3525 4100 3525 3541 
Q 3525 3141 3298 2862 
Q 3072 2584 2669 2484 
Q 3125 2378 3379 2068 
Q 3634 1759 3634 1313 
Q 3634 634 3220 271 
Q 2806 -91 2034 -91 
Q 1263 -91 848 271 
Q 434 634 434 1313 
Q 434 1759 690 2068 
Q 947 2378 1403 2484 
z
M 1172 3481 
Q 1172 3119 1398 2916 
Q 1625 2713 2034 2713 
Q 2441 2713 2670 2916 
Q 2900 3119 2900 3481 
Q 2900 3844 2670 4047 
Q 2441 4250 2034 4250 
Q 1625 4250 1398 4047 
Q 1172 3844 1172 3481 
z
" transform="scale(0.015625)"/>
       </defs>
       <use xlink:href="#DejaVuSans-2212"/>
       <use xlink:href="#DejaVuSans-38" transform="translate(83.789062 0)"/>
      </g>
     </g>
    </g>
    <g id="xtick_3">
     <g id="line2d_5">
      <path d="M 205.500938 244.078125 
L 205.500938 22.318125 
" clip-path="url(#p01b1590052)" style="fill: none; stroke: #b0b0b0; stroke-opacity: 0.3; stroke-width: 0.8; stroke-linecap: square"/>
     </g>
     <g id="line2d_6">
      <g>
       <use xlink:href="#m674dfd49dd" x="205.500938" y="244.078125" style="stroke: #000000; stroke-width: 0.8"/>
      </g>
     </g>
     <g id="text_3">
      <!-- −6 -->
      <g transform="translate(198.129844 258.676562) scale(0.1 -0.1)">
       <defs>
        <path id="DejaVuSans-36" d="M 2113 2584 
Q 1688 2584 1439 2293 
Q 1191 2003 1191 1497 
Q 1191 994 1439 701 
Q 1688 409 2113 409 
Q 2538 409 2786 701 
Q 3034 994 3034 1497 
Q 3034 2003 2786 2293 
Q 2538 2584 2113 2584 
z
M 3366 4563 
L 3366 3988 
Q 3128 4100 2886 4159 
Q 2644 4219 2406 4219 
Q 1781 4219 1451 3797 
Q 1122 3375 1075 2522 
Q 1259 2794 1537 2939 
Q 1816 3084 2150 3084 
Q 2853 3084 3261 2657 
Q 3669 2231 3669 1497 
Q 3669 778 3244 343 
Q 2819 -91 2113 -91 
Q 1303 -91 875 529 
Q 447 1150 447 2328 
Q 447 3434 972 4092 
Q 1497 4750 2381 4750 
Q 2619 4750 2861 4703 
Q 3103 4656 3366 4563 
z
" transform="scale(0.015625)"/>
       </defs>
       <use xlink:href="#DejaVuSans-2212"/>
       <use xlink:href="#DejaVuSans-36" transform="translate(83.789062 0)"/>
      </g>
     </g>
    </g>
    <g id="xtick_4">
     <g id="line2d_7">
      <path d="M 283.620938 244.078125 
L 283.620938 22.318125 
" clip-path="url(#p01b1590052)" style="fill: none; stroke: #b0b0b0; stroke-opacity: 0.3; stroke-width: 0.8; stroke-linecap: square"/>
     </g>
     <g id="line2d_8">
      <g>
       <use xlink:href="#m674dfd49dd" x="283.620938" y="244.078125" style="stroke: #000000; stroke-width: 0.8"/>
      </g>
     </g>
     <g id="text_4">
      <!-- −4 -->
      <g transform="translate(276.249844 258.676562) scale(0.1 -0.1)">
       <defs>
        <path id="DejaVuSans-34" d="M 2419 4116 
L 825 1625 
L 2419 1625 
L 2419 4116 
z
M 2253 4666 
L 3047 4666 
L 3047 1625 
L 3713 1625 
L 3713 1100 
L 3047 1100 
L 3047 0 
L 2419 0 
L 2419 1100 
L 313 1100 
L 313 1709 
L 2253 4666 
z
" transform="scale(0.015625)"/>
       </defs>
       <use xlink:href="#DejaVuSans-2212"/>
       <use xlink:href="#DejaVuSans-34" transform="translate(83.789062 0)"/>
      </g>
     </g>
    </g>
    <g id="xtick_5">
     <g id="line2d_9">
      <path d="M 361.740938 244.078125 
L 361.740938 22.318125 
" clip-path="url(#p01b1590052)" style="fill: none; stroke: #b0b0b0; stroke-opacity: 0.3; stroke-width: 0.8; stroke-linecap: square"/>
     </g>
     <g id="line2d_10">
      <g>
       <use xlink:href="#m674dfd49dd" x="361.740938" y="244.078125" style="stroke: #000000; stroke-width: 0.8"/>
      </g>
     </g>
     <g id="text_5">
      <!-- −2 -->
      <g transform="translate(354.369844 258.676562) scale(0.1 -0.1)">
       <defs>
        <path id="DejaVuSans-32" d="M 1228 531 
L 3431 531 
L 3431 0 
L 469 0 
L 469 531 
Q 828 903 1448 1529 
Q 2069 2156 2228 2338 
Q 2531 2678 2651 2914 
Q 2772 3150 2772 3378 
Q 2772 3750 2511 3984 
Q 2250 4219 1831 4219 
Q 1534 4219 1204 4116 
Q 875 4013 500 3803 
L 500 4441 
Q 881 4594 1212 4672 
Q 1544 4750 1819 4750 
Q 2544 4750 2975 4387 
Q 3406 4025 3406 3419 
Q 3406 3131 3298 2873 
Q 3191 2616 2906 2266 
Q 2828 2175 2409 1742 
Q 1991 1309 1228 531 
z
" transform="scale(0.015625)"/>
       </defs>
       <use xlink:href="#DejaVuSans-2212"/>
       <use xlink:href="#DejaVuSans-32" transform="translate(83.789062 0)"/>
      </g>
     </g>
    </g>
    <g id="xtick_6">
     <g id="line2d_11">
      <path d="M 439.860938 244.078125 
L 439.860938 22.318125 
" clip-path="url(#p01b1590052)" style="fill: none; stroke: #b0b0b0; stroke-opacity: 0.3; stroke-width: 0.8; stroke-linecap: square"/>
     </g>
     <g id="line2d_12">
      <g>
       <use xlink:href="#m674dfd49dd" x="439.860938" y="244.078125" style="stroke: #000000; stroke-width: 0.8"/>
      </g>
     </g>
     <g id="text_6">
      <!-- 0 -->
      <g transform="translate(436.679688 258.676562) scale(0.1 -0.1)">
       <use xlink:href="#DejaVuSans-30"/>
      </g>
     </g>
    </g>
    <g id="text_7">
     <!-- d = Lmin - Lmax  (mixed-sign log-domain difference) -->
     <g transform="translate(112.104688 272.354687) scale(0.1 -0.1)">
      <defs>
       <path id="DejaVuSans-64" d="M 2906 2969 
L 2906 4863 
L 3481 4863 
L 3481 0 
L 2906 0 
L 2906 525 
Q 2725 213 2448 61 
Q 2172 -91 1784 -91 
Q 1150 -91 751 415 
Q 353 922 353 1747 
Q 353 2572 751 3078 
Q 1150 3584 1784 3584 
Q 2172 3584 2448 3432 
Q 2725 3281 2906 2969 
z
M 947 1747 
Q 947 1113 1208 752 
Q 1469 391 1925 391 
Q 2381 391 2643 752 
Q 2906 1113 2906 1747 
Q 2906 2381 2643 2742 
Q 2381 3103 1925 3103 
Q 1469 3103 1208 2742 
Q 947 2381 947 1747 
z
" transform="scale(0.015625)"/>
       <path id="DejaVuSans-20" transform="scale(0.015625)"/>
       <path id="DejaVuSans-3d" d="M 678 2906 
L 4684 2906 
L 4684 2381 
L 678 2381 
L 678 2906 
z
M 678 1631 
L 4684 1631 
L 4684 1100 
L 678 1100 
L 678 1631 
z
" transform="scale(0.015625)"/>
       <path id="DejaVuSans-4c" d="M 628 4666 
L 1259 4666 
L 1259 531 
L 3531 531 
L 3531 0 
L 628 0 
L 628 4666 
z
" transform="scale(0.015625)"/>
       <path id="DejaVuSans-6d" d="M 3328 2828 
Q 3544 3216 3844 3400 
Q 4144 3584 4550 3584 
Q 5097 3584 5394 3201 
Q 5691 2819 5691 2113 
L 5691 0 
L 5113 0 
L 5113 2094 
Q 5113 2597 4934 2840 
Q 4756 3084 4391 3084 
Q 3944 3084 3684 2787 
Q 3425 2491 3425 1978 
L 3425 0 
L 2847 0 
L 2847 2094 
Q 2847 2600 2669 2842 
Q 2491 3084 2119 3084 
Q 1678 3084 1418 2786 
Q 1159 2488 1159 1978 
L 1159 0 
L 581 0 
L 581 3500 
L 1159 3500 
L 1159 2956 
Q 1356 3278 1631 3431 
Q 1906 3584 2284 3584 
Q 2666 3584 2933 3390 
Q 3200 3197 3328 2828 
z
" transform="scale(0.015625)"/>
       <path id="DejaVuSans-69" d="M 603 3500 
L 1178 3500 
L 1178 0 
L 603 0 
L 603 3500 
z
M 603 4863 
L 1178 4863 
L 1178 4134 
L 603 4134 
L 603 4863 
z
" transform="scale(0.015625)"/>
       <path id="DejaVuSans-6e" d="M 3513 2113 
L 3513 0 
L 2938 0 
L 2938 2094 
Q 2938 2591 2744 2837 
Q 2550 3084 2163 3084 
Q 1697 3084 1428 2787 
Q 1159 2491 1159 1978 
L 1159 0 
L 581 0 
L 581 3500 
L 1159 3500 
L 1159 2956 
Q 1366 3272 1645 3428 
Q 1925 3584 2291 3584 
Q 2894 3584 3203 3211 
Q 3513 2838 3513 2113 
z
" transform="scale(0.015625)"/>
       <path id="DejaVuSans-2d" d="M 313 2009 
L 1997 2009 
L 1997 1497 
L 313 1497 
L 313 2009 
z
" transform="scale(0.015625)"/>
       <path id="DejaVuSans-61" d="M 2194 1759 
Q 1497 1759 1228 1600 
Q 959 1441 959 1056 
Q 959 750 1161 570 
Q 1363 391 1709 391 
Q 2188 391 2477 730 
Q 2766 1069 2766 1631 
L 2766 1759 
L 2194 1759 
z
M 3341 1997 
L 3341 0 
L 2766 0 
L 2766 531 
Q 2569 213 2275 61 
Q 1981 -91 1556 -91 
Q 1019 -91 701 211 
Q 384 513 384 1019 
Q 384 1609 779 1909 
Q 1175 2209 1959 2209 
L 2766 2209 
L 2766 2266 
Q 2766 2663 2505 2880 
Q 2244 3097 1772 3097 
Q 1472 3097 1187 3025 
Q 903 2953 641 2809 
L 641 3341 
Q 956 3463 1253 3523 
Q 1550 3584 1831 3584 
Q 2591 3584 2966 3190 
Q 3341 2797 3341 1997 
z
" transform="scale(0.015625)"/>
       <path id="DejaVuSans-78" d="M 3513 3500 
L 2247 1797 
L 3578 0 
L 2900 0 
L 1881 1375 
L 863 0 
L 184 0 
L 1544 1831 
L 300 3500 
L 978 3500 
L 1906 2253 
L 2834 3500 
L 3513 3500 
z
" transform="scale(0.015625)"/>
       <path id="DejaVuSans-28" d="M 1984 4856 
Q 1566 4138 1362 3434 
Q 1159 2731 1159 2009 
Q 1159 1288 1364 580 
Q 1569 -128 1984 -844 
L 1484 -844 
Q 1016 -109 783 600 
Q 550 1309 550 2009 
Q 550 2706 781 3412 
Q 1013 4119 1484 4856 
L 1984 4856 
z
" transform="scale(0.015625)"/>
       <path id="DejaVuSans-65" d="M 3597 1894 
L 3597 1613 
L 953 1613 
Q 991 1019 1311 708 
Q 1631 397 2203 397 
Q 2534 397 2845 478 
Q 3156 559 3463 722 
L 3463 178 
Q 3153 47 2828 -22 
Q 2503 -91 2169 -91 
Q 1331 -91 842 396 
Q 353 884 353 1716 
Q 353 2575 817 3079 
Q 1281 3584 2069 3584 
Q 2775 3584 3186 3129 
Q 3597 2675 3597 1894 
z
M 3022 2063 
Q 3016 2534 2758 2815 
Q 2500 3097 2075 3097 
Q 1594 3097 1305 2825 
Q 1016 2553 972 2059 
L 3022 2063 
z
" transform="scale(0.015625)"/>
       <path id="DejaVuSans-73" d="M 2834 3397 
L 2834 2853 
Q 2591 2978 2328 3040 
Q 2066 3103 1784 3103 
Q 1356 3103 1142 2972 
Q 928 2841 928 2578 
Q 928 2378 1081 2264 
Q 1234 2150 1697 2047 
L 1894 2003 
Q 2506 1872 2764 1633 
Q 3022 1394 3022 966 
Q 3022 478 2636 193 
Q 2250 -91 1575 -91 
Q 1294 -91 989 -36 
Q 684 19 347 128 
L 347 722 
Q 666 556 975 473 
Q 1284 391 1588 391 
Q 1994 391 2212 530 
Q 2431 669 2431 922 
Q 2431 1156 2273 1281 
Q 2116 1406 1581 1522 
L 1381 1569 
Q 847 1681 609 1914 
Q 372 2147 372 2553 
Q 372 3047 722 3315 
Q 1072 3584 1716 3584 
Q 2034 3584 2315 3537 
Q 2597 3491 2834 3397 
z
" transform="scale(0.015625)"/>
       <path id="DejaVuSans-67" d="M 2906 1791 
Q 2906 2416 2648 2759 
Q 2391 3103 1925 3103 
Q 1463 3103 1205 2759 
Q 947 2416 947 1791 
Q 947 1169 1205 825 
Q 1463 481 1925 481 
Q 2391 481 2648 825 
Q 2906 1169 2906 1791 
z
M 3481 434 
Q 3481 -459 3084 -895 
Q 2688 -1331 1869 -1331 
Q 1566 -1331 1297 -1286 
Q 1028 -1241 775 -1147 
L 775 -588 
Q 1028 -725 1275 -790 
Q 1522 -856 1778 -856 
Q 2344 -856 2625 -561 
Q 2906 -266 2906 331 
L 2906 616 
Q 2728 306 2450 153 
Q 2172 0 1784 0 
Q 1141 0 747 490 
Q 353 981 353 1791 
Q 353 2603 747 3093 
Q 1141 3584 1784 3584 
Q 2172 3584 2450 3431 
Q 2728 3278 2906 2969 
L 2906 3500 
L 3481 3500 
L 3481 434 
z
" transform="scale(0.015625)"/>
       <path id="DejaVuSans-6c" d="M 603 4863 
L 1178 4863 
L 1178 0 
L 603 0 
L 603 4863 
z
" transform="scale(0.015625)"/>
       <path id="DejaVuSans-6f" d="M 1959 3097 
Q 1497 3097 1228 2736 
Q 959 2375 959 1747 
Q 959 1119 1226 758 
Q 1494 397 1959 397 
Q 2419 397 2687 759 
Q 2956 1122 2956 1747 
Q 2956 2369 2687 2733 
Q 2419 3097 1959 3097 
z
M 1959 3584 
Q 2709 3584 3137 3096 
Q 3566 2609 3566 1747 
Q 3566 888 3137 398 
Q 2709 -91 1959 -91 
Q 1206 -91 779 398 
Q 353 888 353 1747 
Q 353 2609 779 3096 
Q 1206 3584 1959 3584 
z
" transform="scale(0.015625)"/>
       <path id="DejaVuSans-66" d="M 2375 4863 
L 2375 4384 
L 1825 4384 
Q 1516 4384 1395 4259 
Q 1275 4134 1275 3809 
L 1275 3500 
L 2222 3500 
L 2222 3053 
L 1275 3053 
L 1275 0 
L 697 0 
L 697 3053 
L 147 3053 
L 147 3500 
L 697 3500 
L 697 3744 
Q 697 4328 969 4595 
Q 1241 4863 1831 4863 
L 2375 4863 
z
" transform="scale(0.015625)"/>
       <path id="DejaVuSans-72" d="M 2631 2963 
Q 2534 3019 2420 3045 
Q 2306 3072 2169 3072 
Q 1681 3072 1420 2755 
Q 1159 2438 1159 1844 
L 1159 0 
L 581 0 
L 581 3500 
L 1159 3500 
L 1159 2956 
Q 1341 3275 1631 3429 
Q 1922 3584 2338 3584 
Q 2397 3584 2469 3576 
Q 2541 3569 2628 3553 
L 2631 2963 
z
" transform="scale(0.015625)"/>
       <path id="DejaVuSans-63" d="M 3122 3366 
L 3122 2828 
Q 2878 2963 2633 3030 
Q 2388 3097 2138 3097 
Q 1578 3097 1268 2742 
Q 959 2388 959 1747 
Q 959 1106 1268 751 
Q 1578 397 2138 397 
Q 2388 397 2633 464 
Q 2878 531 3122 666 
L 3122 134 
Q 2881 22 2623 -34 
Q 2366 -91 2075 -91 
Q 1284 -91 818 406 
Q 353 903 353 1747 
Q 353 2603 823 3093 
Q 1294 3584 2113 3584 
Q 2378 3584 2631 3529 
Q 2884 3475 3122 3366 
z
" transform="scale(0.015625)"/>
       <path id="DejaVuSans-29" d="M 513 4856 
L 1013 4856 
Q 1481 4119 1714 3412 
Q 1947 2706 1947 2009 
Q 1947 1309 1714 600 
Q 1481 -109 1013 -844 
L 513 -844 
Q 928 -128 1133 580 
Q 1338 1288 1338 2009 
Q 1338 2731 1133 3434 
Q 928 4138 513 4856 
z
" transform="scale(0.015625)"/>
      </defs>
      <use xlink:href="#DejaVuSans-64"/>
      <use xlink:href="#DejaVuSans-20" transform="translate(63.476562 0)"/>
      <use xlink:href="#DejaVuSans-3d" transform="translate(95.263672 0)"/>
      <use xlink:href="#DejaVuSans-20" transform="translate(179.052734 0)"/>
      <use xlink:href="#DejaVuSans-4c" transform="translate(210.839844 0)"/>
      <use xlink:href="#DejaVuSans-6d" transform="translate(266.552734 0)"/>
      <use xlink:href="#DejaVuSans-69" transform="translate(363.964844 0)"/>
      <use xlink:href="#DejaVuSans-6e" transform="translate(391.748047 0)"/>
      <use xlink:href="#DejaVuSans-20" transform="translate(455.126953 0)"/>
      <use xlink:href="#DejaVuSans-2d" transform="translate(486.914062 0)"/>
      <use xlink:href="#DejaVuSans-20" transform="translate(522.998047 0)"/>
      <use xlink:href="#DejaVuSans-4c" transform="translate(554.785156 0)"/>
      <use xlink:href="#DejaVuSans-6d" transform="translate(610.498047 0)"/>
      <use xlink:href="#DejaVuSans-61" transform="translate(707.910156 0)"/>
      <use xlink:href="#DejaVuSans-78" transform="translate(769.189453 0)"/>
      <use xlink:href="#DejaVuSans-20" transform="translate(828.369141 0)"/>
      <use xlink:href="#DejaVuSans-20" transform="translate(860.15625 0)"/>
      <use xlink:href="#DejaVuSans-28" transform="translate(891.943359 0)"/>
      <use xlink:href="#DejaVuSans-6d" transform="translate(930.957031 0)"/>
      <use xlink:href="#DejaVuSans-69" transform="translate(1028.369141 0)"/>
      <use xlink:href="#DejaVuSans-78" transform="translate(1056.152344 0)"/>
      <use xlink:href="#DejaVuSans-65" transform="translate(1112.207031 0)"/>
      <use xlink:href="#DejaVuSans-64" transform="translate(1173.730469 0)"/>
      <use xlink:href="#DejaVuSans-2d" transform="translate(1237.207031 0)"/>
      <use xlink:href="#DejaVuSans-73" transform="translate(1273.291016 0)"/>
      <use xlink:href="#DejaVuSans-69" transform="translate(1325.390625 0)"/>
      <use xlink:href="#DejaVuSans-67" transform="translate(1353.173828 0)"/>
      <use xlink:href="#DejaVuSans-6e" transform="translate(1416.650391 0)"/>
      <use xlink:href="#DejaVuSans-20" transform="translate(1480.029297 0)"/>
      <use xlink:href="#DejaVuSans-6c" transform="translate(1511.816406 0)"/>
      <use xlink:href="#DejaVuSans-6f" transform="translate(1539.599609 0)"/>
      <use xlink:href="#DejaVuSans-67" transform="translate(1600.78125 0)"/>
      <use xlink:href="#DejaVuSans-2d" transform="translate(1664.257812 0)"/>
      <use xlink:href="#DejaVuSans-64" transform="translate(1700.341797 0)"/>
      <use xlink:href="#DejaVuSans-6f" transform="translate(1763.818359 0)"/>
      <use xlink:href="#DejaVuSans-6d" transform="translate(1825 0)"/>
      <use xlink:href="#DejaVuSans-61" transform="translate(1922.412109 0)"/>
      <use xlink:href="#DejaVuSans-69" transform="translate(1983.691406 0)"/>
      <use xlink:href="#DejaVuSans-6e" transform="translate(2011.474609 0)"/>
      <use xlink:href="#DejaVuSans-20" transform="translate(2074.853516 0)"/>
      <use xlink:href="#DejaVuSans-64" transform="translate(2106.640625 0)"/>
      <use xlink:href="#DejaVuSans-69" transform="translate(2170.117188 0)"/>
      <use xlink:href="#DejaVuSans-66" transform="translate(2197.900391 0)"/>
      <use xlink:href="#DejaVuSans-66" transform="translate(2233.105469 0)"/>
      <use xlink:href="#DejaVuSans-65" transform="translate(2268.310547 0)"/>
      <use xlink:href="#DejaVuSans-72" transform="translate(2329.833984 0)"/>
      <use xlink:href="#DejaVuSans-65" transform="translate(2368.697266 0)"/>
      <use xlink:href="#DejaVuSans-6e" transform="translate(2430.220703 0)"/>
      <use xlink:href="#DejaVuSans-63" transform="translate(2493.599609 0)"/>
      <use xlink:href="#DejaVuSans-65" transform="translate(2548.580078 0)"/>
      <use xlink:href="#DejaVuSans-29" transform="translate(2610.103516 0)"/>
     </g>
    </g>
   </g>
   <g id="matplotlib.axis_2">
    <g id="ytick_1">
     <g id="line2d_13">
      <path d="M 49.260938 244.078125 
L 439.860938 244.078125 
" clip-path="url(#p01b1590052)" style="fill: none; stroke: #b0b0b0; stroke-opacity: 0.3; stroke-width: 0.8; stroke-linecap: square"/>
     </g>
     <g id="line2d_14">
      <defs>
       <path id="mf535d8a244" d="M 0 0 
L -3.5 0 
" style="stroke: #000000; stroke-width: 0.8"/>
      </defs>
      <g>
       <use xlink:href="#mf535d8a244" x="49.260938" y="244.078125" style="stroke: #000000; stroke-width: 0.8"/>
      </g>
     </g>
     <g id="text_8">
      <!-- −12 -->
      <g transform="translate(21.15625 247.877344) scale(0.1 -0.1)">
       <use xlink:href="#DejaVuSans-2212"/>
       <use xlink:href="#DejaVuSans-31" transform="translate(83.789062 0)"/>
       <use xlink:href="#DejaVuSans-32" transform="translate(147.412109 0)"/>
      </g>
     </g>
    </g>
    <g id="ytick_2">
     <g id="line2d_15">
      <path d="M 49.260938 208.596525 
L 439.860938 208.596525 
" clip-path="url(#p01b1590052)" style="fill: none; stroke: #b0b0b0; stroke-opacity: 0.3; stroke-width: 0.8; stroke-linecap: square"/>
     </g>
     <g id="line2d_16">
      <g>
       <use xlink:href="#mf535d8a244" x="49.260938" y="208.596525" style="stroke: #000000; stroke-width: 0.8"/>
      </g>
     </g>
     <g id="text_9">
      <!-- −10 -->
      <g transform="translate(21.15625 212.395744) scale(0.1 -0.1)">
       <use xlink:href="#DejaVuSans-2212"/>
       <use xlink:href="#DejaVuSans-31" transform="translate(83.789062 0)"/>
       <use xlink:href="#DejaVuSans-30" transform="translate(147.412109 0)"/>
      </g>
     </g>
    </g>
    <g id="ytick_3">
     <g id="line2d_17">
      <path d="M 49.260938 173.114925 
L 439.860938 173.114925 
" clip-path="url(#p01b1590052)" style="fill: none; stroke: #b0b0b0; stroke-opacity: 0.3; stroke-width: 0.8; stroke-linecap: square"/>
     </g>
     <g id="line2d_18">
      <g>
       <use xlink:href="#mf535d8a244" x="49.260938" y="173.114925" style="stroke: #000000; stroke-width: 0.8"/>
      </g>
     </g>
     <g id="text_10">
      <!-- −8 -->
      <g transform="translate(27.51875 176.914144) scale(0.1 -0.1)">
       <use xlink:href="#DejaVuSans-2212"/>
       <use xlink:href="#DejaVuSans-38" transform="translate(83.789062 0)"/>
      </g>
     </g>
    </g>
    <g id="ytick_4">
     <g id="line2d_19">
      <path d="M 49.260938 137.633325 
L 439.860938 137.633325 
" clip-path="url(#p01b1590052)" style="fill: none; stroke: #b0b0b0; stroke-opacity: 0.3; stroke-width: 0.8; stroke-linecap: square"/>
     </g>
     <g id="line2d_20">
      <g>
       <use xlink:href="#mf535d8a244" x="49.260938" y="137.633325" style="stroke: #000000; stroke-width: 0.8"/>
      </g>
     </g>
     <g id="text_11">
      <!-- −6 -->
      <g transform="translate(27.51875 141.432544) scale(0.1 -0.1)">
       <use xlink:href="#DejaVuSans-2212"/>
       <use xlink:href="#DejaVuSans-36" transform="translate(83.789062 0)"/>
      </g>
     </g>
    </g>
    <g id="ytick_5">
     <g id="line2d_21">
      <path d="M 49.260938 102.151725 
L 439.860938 102.151725 
" clip-path="url(#p01b1590052)" style="fill: none; stroke: #b0b0b0; stroke-opacity: 0.3; stroke-width: 0.8; stroke-linecap: square"/>
     </g>
     <g id="line2d_22">
      <g>
       <use xlink:href="#mf535d8a244" x="49.260938" y="102.151725" style="stroke: #000000; stroke-width: 0.8"/>
      </g>
     </g>
     <g id="text_12">
      <!-- −4 -->
      <g transform="translate(27.51875 105.950944) scale(0.1 -0.1)">
       <use xlink:href="#DejaVuSans-2212"/>
       <use xlink:href="#DejaVuSans-34" transform="translate(83.789062 0)"/>
      </g>
     </g>
    </g>
    <g id="ytick_6">
     <g id="line2d_23">
      <path d="M 49.260938 66.670125 
L 439.860938 66.670125 
" clip-path="url(#p01b1590052)" style="fill: none; stroke: #b0b0b0; stroke-opacity: 0.3; stroke-width: 0.8; stroke-linecap: square"/>
     </g>
     <g id="line2d_24">
      <g>
       <use xlink:href="#mf535d8a244" x="49.260938" y="66.670125" style="stroke: #000000; stroke-width: 0.8"/>
      </g>
     </g>
     <g id="text_13">
      <!-- −2 -->
      <g transform="translate(27.51875 70.469344) scale(0.1 -0.1)">
       <use xlink:href="#DejaVuSans-2212"/>
       <use xlink:href="#DejaVuSans-32" transform="translate(83.789062 0)"/>
      </g>
     </g>
    </g>
    <g id="ytick_7">
     <g id="line2d_25">
      <path d="M 49.260938 31.188525 
L 439.860938 31.188525 
" clip-path="url(#p01b1590052)" style="fill: none; stroke: #b0b0b0; stroke-opacity: 0.3; stroke-width: 0.8; stroke-linecap: square"/>
     </g>
     <g id="line2d_26">
      <g>
       <use xlink:href="#mf535d8a244" x="49.260938" y="31.188525" style="stroke: #000000; stroke-width: 0.8"/>
      </g>
     </g>
     <g id="text_14">
      <!-- 0 -->
      <g transform="translate(35.898438 34.987744) scale(0.1 -0.1)">
       <use xlink:href="#DejaVuSans-30"/>
      </g>
     </g>
    </g>
    <g id="text_15">
     <!-- sb_sub(d) = log2(1 - 2^d) -->
     <g transform="translate(14.798438 198.2825) rotate(-90) scale(0.1 -0.1)">
      <defs>
       <path id="DejaVuSans-62" d="M 3116 1747 
Q 3116 2381 2855 2742 
Q 2594 3103 2138 3103 
Q 1681 3103 1420 2742 
Q 1159 2381 1159 1747 
Q 1159 1113 1420 752 
Q 1681 391 2138 391 
Q 2594 391 2855 752 
Q 3116 1113 3116 1747 
z
M 1159 2969 
Q 1341 3281 1617 3432 
Q 1894 3584 2278 3584 
Q 2916 3584 3314 3078 
Q 3713 2572 3713 1747 
Q 3713 922 3314 415 
Q 2916 -91 2278 -91 
Q 1894 -91 1617 61 
Q 1341 213 1159 525 
L 1159 0 
L 581 0 
L 581 4863 
L 1159 4863 
L 1159 2969 
z
" transform="scale(0.015625)"/>
       <path id="DejaVuSans-5f" d="M 3263 -1063 
L 3263 -1509 
L -63 -1509 
L -63 -1063 
L 3263 -1063 
z
" transform="scale(0.015625)"/>
       <path id="DejaVuSans-75" d="M 544 1381 
L 544 3500 
L 1119 3500 
L 1119 1403 
Q 1119 906 1312 657 
Q 1506 409 1894 409 
Q 2359 409 2629 706 
Q 2900 1003 2900 1516 
L 2900 3500 
L 3475 3500 
L 3475 0 
L 2900 0 
L 2900 538 
Q 2691 219 2414 64 
Q 2138 -91 1772 -91 
Q 1169 -91 856 284 
Q 544 659 544 1381 
z
M 1991 3584 
L 1991 3584 
z
" transform="scale(0.015625)"/>
       <path id="DejaVuSans-5e" d="M 2988 4666 
L 4684 2925 
L 4056 2925 
L 2681 4159 
L 1306 2925 
L 678 2925 
L 2375 4666 
L 2988 4666 
z
" transform="scale(0.015625)"/>
      </defs>
      <use xlink:href="#DejaVuSans-73"/>
      <use xlink:href="#DejaVuSans-62" transform="translate(52.099609 0)"/>
      <use xlink:href="#DejaVuSans-5f" transform="translate(115.576172 0)"/>
      <use xlink:href="#DejaVuSans-73" transform="translate(165.576172 0)"/>
      <use xlink:href="#DejaVuSans-75" transform="translate(217.675781 0)"/>
      <use xlink:href="#DejaVuSans-62" transform="translate(281.054688 0)"/>
      <use xlink:href="#DejaVuSans-28" transform="translate(344.53125 0)"/>
      <use xlink:href="#DejaVuSans-64" transform="translate(383.544922 0)"/>
      <use xlink:href="#DejaVuSans-29" transform="translate(447.021484 0)"/>
      <use xlink:href="#DejaVuSans-20" transform="translate(486.035156 0)"/>
      <use xlink:href="#DejaVuSans-3d" transform="translate(517.822266 0)"/>
      <use xlink:href="#DejaVuSans-20" transform="translate(601.611328 0)"/>
      <use xlink:href="#DejaVuSans-6c" transform="translate(633.398438 0)"/>
      <use xlink:href="#DejaVuSans-6f" transform="translate(661.181641 0)"/>
      <use xlink:href="#DejaVuSans-67" transform="translate(722.363281 0)"/>
      <use xlink:href="#DejaVuSans-32" transform="translate(785.839844 0)"/>
      <use xlink:href="#DejaVuSans-28" transform="translate(849.462891 0)"/>
      <use xlink:href="#DejaVuSans-31" transform="translate(888.476562 0)"/>
      <use xlink:href="#DejaVuSans-20" transform="translate(952.099609 0)"/>
      <use xlink:href="#DejaVuSans-2d" transform="translate(983.886719 0)"/>
      <use xlink:href="#DejaVuSans-20" transform="translate(1019.970703 0)"/>
      <use xlink:href="#DejaVuSans-32" transform="translate(1051.757812 0)"/>
      <use xlink:href="#DejaVuSans-5e" transform="translate(1115.380859 0)"/>
      <use xlink:href="#DejaVuSans-64" transform="translate(1199.169922 0)"/>
      <use xlink:href="#DejaVuSans-29" transform="translate(1262.646484 0)"/>
     </g>
    </g>
   </g>
   <g id="line2d_27">
    <path d="M 49.260938 31.213532 
L 162.222778 31.374737 
L 213.93335 31.657258 
L 248.089042 32.054519 
L 273.658107 32.565336 
L 293.884383 33.183523 
L 310.676008 33.914088 
L 324.796238 34.746446 
L 336.817515 35.670588 
L 347.31228 36.693511 
L 356.471349 37.801097 
L 364.676347 39.01193 
L 371.927276 40.300396 
L 378.414949 41.671944 
L 384.330181 43.147634 
L 389.672971 44.710452 
L 394.443319 46.334737 
L 398.832039 48.065257 
L 402.839131 49.889803 
L 406.464596 51.78945 
L 409.708432 53.73686 
L 412.761455 55.834283 
L 415.43285 57.929915 
L 417.913431 60.145775 
L 420.203198 62.477768 
L 422.302151 64.917341 
L 424.21029 67.449714 
L 426.118429 70.362962 
L 427.835755 73.40445 
L 429.362266 76.543895 
L 430.888777 80.228682 
L 432.224475 84.058435 
L 433.369358 87.961157 
L 434.514242 92.671748 
L 435.468311 97.488851 
L 436.422381 103.542176 
L 437.185637 109.794388 
L 437.948892 118.219148 
L 438.521334 127.196314 
L 438.902962 135.691969 
L 439.28459 148.610381 
L 439.475404 158.858229 
L 439.666218 176.297729 
L 439.857032 276.304798 
L 439.857032 276.304798 
" clip-path="url(#p01b1590052)" style="fill: none; stroke: #d62728; stroke-width: 2; stroke-linecap: square"/>
   </g>
   <g id="line2d_28">
    <path d="M 49.260938 31.188525 
L 439.860938 31.188525 
" clip-path="url(#p01b1590052)" style="fill: none; stroke: #b2b2b2; stroke-width: 0.6; stroke-linecap: square"/>
   </g>
   <g id="line2d_29">
    <path d="M 439.860938 244.078125 
L 439.860938 22.318125 
" clip-path="url(#p01b1590052)" style="fill: none; stroke: #b2b2b2; stroke-width: 0.6; stroke-linecap: square"/>
   </g>
   <g id="patch_3">
    <path d="M 49.260938 244.078125 
L 49.260938 22.318125 
" style="fill: none; stroke: #000000; stroke-width: 0.8; stroke-linejoin: miter; stroke-linecap: square"/>
   </g>
   <g id="patch_4">
    <path d="M 439.860938 244.078125 
L 439.860938 22.318125 
" style="fill: none; stroke: #000000; stroke-width: 0.8; stroke-linejoin: miter; stroke-linecap: square"/>
   </g>
   <g id="patch_5">
    <path d="M 49.260938 244.078125 
L 439.860938 244.078125 
" style="fill: none; stroke: #000000; stroke-width: 0.8; stroke-linejoin: miter; stroke-linecap: square"/>
   </g>
   <g id="patch_6">
    <path d="M 49.260938 22.318125 
L 439.860938 22.318125 
" style="fill: none; stroke: #000000; stroke-width: 0.8; stroke-linejoin: miter; stroke-linecap: square"/>
   </g>
   <g id="patch_7">
    <path d="M 371.12881 169.112677 
Q 404.609553 188.356956 437.120976 207.044083 
" style="fill: none; stroke: #808080; stroke-linecap: round"/>
    <path d="M 434.896823 203.689512 
L 437.120976 207.044083 
L 433.102827 206.810663 
" style="fill: none; stroke: #808080; stroke-linecap: round"/>
   </g>
   <g id="text_16">
    <!-- singularity: -->
    <g style="fill: #4c4c4c" transform="translate(303.150938 143.83815) scale(0.09 -0.09)">
     <defs>
      <path id="DejaVuSans-74" d="M 1172 4494 
L 1172 3500 
L 2356 3500 
L 2356 3053 
L 1172 3053 
L 1172 1153 
Q 1172 725 1289 603 
Q 1406 481 1766 481 
L 2356 481 
L 2356 0 
L 1766 0 
Q 1100 0 847 248 
Q 594 497 594 1153 
L 594 3053 
L 172 3053 
L 172 3500 
L 594 3500 
L 594 4494 
L 1172 4494 
z
" transform="scale(0.015625)"/>
      <path id="DejaVuSans-79" d="M 2059 -325 
Q 1816 -950 1584 -1140 
Q 1353 -1331 966 -1331 
L 506 -1331 
L 506 -850 
L 844 -850 
Q 1081 -850 1212 -737 
Q 1344 -625 1503 -206 
L 1606 56 
L 191 3500 
L 800 3500 
L 1894 763 
L 2988 3500 
L 3597 3500 
L 2059 -325 
z
" transform="scale(0.015625)"/>
      <path id="DejaVuSans-3a" d="M 750 794 
L 1409 794 
L 1409 0 
L 750 0 
L 750 794 
z
M 750 3309 
L 1409 3309 
L 1409 2516 
L 750 2516 
L 750 3309 
z
" transform="scale(0.015625)"/>
     </defs>
     <use xlink:href="#DejaVuSans-73"/>
     <use xlink:href="#DejaVuSans-69" transform="translate(52.099609 0)"/>
     <use xlink:href="#DejaVuSans-6e" transform="translate(79.882812 0)"/>
     <use xlink:href="#DejaVuSans-67" transform="translate(143.261719 0)"/>
     <use xlink:href="#DejaVuSans-75" transform="translate(206.738281 0)"/>
     <use xlink:href="#DejaVuSans-6c" transform="translate(270.117188 0)"/>
     <use xlink:href="#DejaVuSans-61" transform="translate(297.900391 0)"/>
     <use xlink:href="#DejaVuSans-72" transform="translate(359.179688 0)"/>
     <use xlink:href="#DejaVuSans-69" transform="translate(400.292969 0)"/>
     <use xlink:href="#DejaVuSans-74" transform="translate(428.076172 0)"/>
     <use xlink:href="#DejaVuSans-79" transform="translate(467.285156 0)"/>
     <use xlink:href="#DejaVuSans-3a" transform="translate(519.214844 0)"/>
    </g>
    <!-- sb_sub(d) -&gt; -inf -->
    <g style="fill: #4c4c4c" transform="translate(303.150938 153.916181) scale(0.09 -0.09)">
     <defs>
      <path id="DejaVuSans-3e" d="M 678 3150 
L 678 3719 
L 4684 2266 
L 4684 1747 
L 678 294 
L 678 863 
L 3897 2003 
L 678 3150 
z
" transform="scale(0.015625)"/>
     </defs>
     <use xlink:href="#DejaVuSans-73"/>
     <use xlink:href="#DejaVuSans-62" transform="translate(52.099609 0)"/>
     <use xlink:href="#DejaVuSans-5f" transform="translate(115.576172 0)"/>
     <use xlink:href="#DejaVuSans-73" transform="translate(165.576172 0)"/>
     <use xlink:href="#DejaVuSans-75" transform="translate(217.675781 0)"/>
     <use xlink:href="#DejaVuSans-62" transform="translate(281.054688 0)"/>
     <use xlink:href="#DejaVuSans-28" transform="translate(344.53125 0)"/>
     <use xlink:href="#DejaVuSans-64" transform="translate(383.544922 0)"/>
     <use xlink:href="#DejaVuSans-29" transform="translate(447.021484 0)"/>
     <use xlink:href="#DejaVuSans-20" transform="translate(486.035156 0)"/>
     <use xlink:href="#DejaVuSans-2d" transform="translate(517.822266 0)"/>
     <use xlink:href="#DejaVuSans-3e" transform="translate(553.90625 0)"/>
     <use xlink:href="#DejaVuSans-20" transform="translate(637.695312 0)"/>
     <use xlink:href="#DejaVuSans-2d" transform="translate(669.482422 0)"/>
     <use xlink:href="#DejaVuSans-69" transform="translate(705.566406 0)"/>
     <use xlink:href="#DejaVuSans-6e" transform="translate(733.349609 0)"/>
     <use xlink:href="#DejaVuSans-66" transform="translate(796.728516 0)"/>
    </g>
    <!-- as d -&gt; 0- -->
    <g style="fill: #4c4c4c" transform="translate(303.150938 164.244525) scale(0.09 -0.09)">
     <use xlink:href="#DejaVuSans-61"/>
     <use xlink:href="#DejaVuSans-73" transform="translate(61.279297 0)"/>
     <use xlink:href="#DejaVuSans-20" transform="translate(113.378906 0)"/>
     <use xlink:href="#DejaVuSans-64" transform="translate(145.166016 0)"/>
     <use xlink:href="#DejaVuSans-20" transform="translate(208.642578 0)"/>
     <use xlink:href="#DejaVuSans-2d" transform="translate(240.429688 0)"/>
     <use xlink:href="#DejaVuSans-3e" transform="translate(276.513672 0)"/>
     <use xlink:href="#DejaVuSans-20" transform="translate(360.302734 0)"/>
     <use xlink:href="#DejaVuSans-30" transform="translate(392.089844 0)"/>
     <use xlink:href="#DejaVuSans-2d" transform="translate(455.712891 0)"/>
    </g>
   </g>
   <g id="patch_8">
    <path d="M 176.874268 64.653461 
Q 123.787501 48.260219 71.768995 32.196856 
" style="fill: none; stroke: #808080; stroke-linecap: round"/>
    <path d="M 74.67763 34.978913 
L 71.768995 32.196856 
L 75.739822 31.539183 
" style="fill: none; stroke: #808080; stroke-linecap: round"/>
   </g>
   <g id="text_17">
    <!-- as d -&gt; -inf, sb_sub -&gt; 0 -->
    <g style="fill: #4c4c4c" transform="translate(146.910937 74.082581) scale(0.09 -0.09)">
     <defs>
      <path id="DejaVuSans-2c" d="M 750 794 
L 1409 794 
L 1409 256 
L 897 -744 
L 494 -744 
L 750 256 
L 750 794 
z
" transform="scale(0.015625)"/>
     </defs>
     <use xlink:href="#DejaVuSans-61"/>
     <use xlink:href="#DejaVuSans-73" transform="translate(61.279297 0)"/>
     <use xlink:href="#DejaVuSans-20" transform="translate(113.378906 0)"/>
     <use xlink:href="#DejaVuSans-64" transform="translate(145.166016 0)"/>
     <use xlink:href="#DejaVuSans-20" transform="translate(208.642578 0)"/>
     <use xlink:href="#DejaVuSans-2d" transform="translate(240.429688 0)"/>
     <use xlink:href="#DejaVuSans-3e" transform="translate(276.513672 0)"/>
     <use xlink:href="#DejaVuSans-20" transform="translate(360.302734 0)"/>
     <use xlink:href="#DejaVuSans-2d" transform="translate(392.089844 0)"/>
     <use xlink:href="#DejaVuSans-69" transform="translate(428.173828 0)"/>
     <use xlink:href="#DejaVuSans-6e" transform="translate(455.957031 0)"/>
     <use xlink:href="#DejaVuSans-66" transform="translate(519.335938 0)"/>
     <use xlink:href="#DejaVuSans-2c" transform="translate(554.541016 0)"/>
     <use xlink:href="#DejaVuSans-20" transform="translate(586.328125 0)"/>
     <use xlink:href="#DejaVuSans-73" transform="translate(618.115234 0)"/>
     <use xlink:href="#DejaVuSans-62" transform="translate(670.214844 0)"/>
     <use xlink:href="#DejaVuSans-5f" transform="translate(733.691406 0)"/>
     <use xlink:href="#DejaVuSans-73" transform="translate(783.691406 0)"/>
     <use xlink:href="#DejaVuSans-75" transform="translate(835.791016 0)"/>
     <use xlink:href="#DejaVuSans-62" transform="translate(899.169922 0)"/>
     <use xlink:href="#DejaVuSans-20" transform="translate(962.646484 0)"/>
     <use xlink:href="#DejaVuSans-2d" transform="translate(994.433594 0)"/>
     <use xlink:href="#DejaVuSans-3e" transform="translate(1030.517578 0)"/>
     <use xlink:href="#DejaVuSans-20" transform="translate(1114.306641 0)"/>
     <use xlink:href="#DejaVuSans-30" transform="translate(1146.09375 0)"/>
    </g>
    <!-- (operands differ in magnitude) -->
    <g style="fill: #4c4c4c" transform="translate(146.910937 84.410925) scale(0.09 -0.09)">
     <defs>
      <path id="DejaVuSans-70" d="M 1159 525 
L 1159 -1331 
L 581 -1331 
L 581 3500 
L 1159 3500 
L 1159 2969 
Q 1341 3281 1617 3432 
Q 1894 3584 2278 3584 
Q 2916 3584 3314 3078 
Q 3713 2572 3713 1747 
Q 3713 922 3314 415 
Q 2916 -91 2278 -91 
Q 1894 -91 1617 61 
Q 1341 213 1159 525 
z
M 3116 1747 
Q 3116 2381 2855 2742 
Q 2594 3103 2138 3103 
Q 1681 3103 1420 2742 
Q 1159 2381 1159 1747 
Q 1159 1113 1420 752 
Q 1681 391 2138 391 
Q 2594 391 2855 752 
Q 3116 1113 3116 1747 
z
" transform="scale(0.015625)"/>
     </defs>
     <use xlink:href="#DejaVuSans-28"/>
     <use xlink:href="#DejaVuSans-6f" transform="translate(39.013672 0)"/>
     <use xlink:href="#DejaVuSans-70" transform="translate(100.195312 0)"/>
     <use xlink:href="#DejaVuSans-65" transform="translate(163.671875 0)"/>
     <use xlink:href="#DejaVuSans-72" transform="translate(225.195312 0)"/>
     <use xlink:href="#DejaVuSans-61" transform="translate(266.308594 0)"/>
     <use xlink:href="#DejaVuSans-6e" transform="translate(327.587891 0)"/>
     <use xlink:href="#DejaVuSans-64" transform="translate(390.966797 0)"/>
     <use xlink:href="#DejaVuSans-73" transform="translate(454.443359 0)"/>
     <use xlink:href="#DejaVuSans-20" transform="translate(506.542969 0)"/>
     <use xlink:href="#DejaVuSans-64" transform="translate(538.330078 0)"/>
     <use xlink:href="#DejaVuSans-69" transform="translate(601.806641 0)"/>
     <use xlink:href="#DejaVuSans-66" transform="translate(629.589844 0)"/>
     <use xlink:href="#DejaVuSans-66" transform="translate(664.794922 0)"/>
     <use xlink:href="#DejaVuSans-65" transform="translate(700 0)"/>
     <use xlink:href="#DejaVuSans-72" transform="translate(761.523438 0)"/>
     <use xlink:href="#DejaVuSans-20" transform="translate(802.636719 0)"/>
     <use xlink:href="#DejaVuSans-69" transform="translate(834.423828 0)"/>
     <use xlink:href="#DejaVuSans-6e" transform="translate(862.207031 0)"/>
     <use xlink:href="#DejaVuSans-20" transform="translate(925.585938 0)"/>
     <use xlink:href="#DejaVuSans-6d" transform="translate(957.373047 0)"/>
     <use xlink:href="#DejaVuSans-61" transform="translate(1054.785156 0)"/>
     <use xlink:href="#DejaVuSans-67" transform="translate(1116.064453 0)"/>
     <use xlink:href="#DejaVuSans-6e" transform="translate(1179.541016 0)"/>
     <use xlink:href="#DejaVuSans-69" transform="translate(1242.919922 0)"/>
     <use xlink:href="#DejaVuSans-74" transform="translate(1270.703125 0)"/>
     <use xlink:href="#DejaVuSans-75" transform="translate(1309.912109 0)"/>
     <use xlink:href="#DejaVuSans-64" transform="translate(1373.291016 0)"/>
     <use xlink:href="#DejaVuSans-65" transform="translate(1436.767578 0)"/>
     <use xlink:href="#DejaVuSans-29" transform="translate(1498.291016 0)"/>
    </g>
   </g>
   <g id="text_18">
    <!-- Log-sub correction: sb_sub(d) over d in [-10, 0) -->
    <g transform="translate(103.395938 16.318125) scale(0.12 -0.12)">
     <defs>
      <path id="DejaVuSans-76" d="M 191 3500 
L 800 3500 
L 1894 563 
L 2988 3500 
L 3597 3500 
L 2284 0 
L 1503 0 
L 191 3500 
z
" transform="scale(0.015625)"/>
      <path id="DejaVuSans-5b" d="M 550 4863 
L 1875 4863 
L 1875 4416 
L 1125 4416 
L 1125 -397 
L 1875 -397 
L 1875 -844 
L 550 -844 
L 550 4863 
z
" transform="scale(0.015625)"/>
     </defs>
     <use xlink:href="#DejaVuSans-4c"/>
     <use xlink:href="#DejaVuSans-6f" transform="translate(53.962891 0)"/>
     <use xlink:href="#DejaVuSans-67" transform="translate(115.144531 0)"/>
     <use xlink:href="#DejaVuSans-2d" transform="translate(178.621094 0)"/>
     <use xlink:href="#DejaVuSans-73" transform="translate(214.705078 0)"/>
     <use xlink:href="#DejaVuSans-75" transform="translate(266.804688 0)"/>
     <use xlink:href="#DejaVuSans-62" transform="translate(330.183594 0)"/>
     <use xlink:href="#DejaVuSans-20" transform="translate(393.660156 0)"/>
     <use xlink:href="#DejaVuSans-63" transform="translate(425.447266 0)"/>
     <use xlink:href="#DejaVuSans-6f" transform="translate(480.427734 0)"/>
     <use xlink:href="#DejaVuSans-72" transform="translate(541.609375 0)"/>
     <use xlink:href="#DejaVuSans-72" transform="translate(580.972656 0)"/>
     <use xlink:href="#DejaVuSans-65" transform="translate(619.835938 0)"/>
     <use xlink:href="#DejaVuSans-63" transform="translate(681.359375 0)"/>
     <use xlink:href="#DejaVuSans-74" transform="translate(736.339844 0)"/>
     <use xlink:href="#DejaVuSans-69" transform="translate(775.548828 0)"/>
     <use xlink:href="#DejaVuSans-6f" transform="translate(803.332031 0)"/>
     <use xlink:href="#DejaVuSans-6e" transform="translate(864.513672 0)"/>
     <use xlink:href="#DejaVuSans-3a" transform="translate(927.892578 0)"/>
     <use xlink:href="#DejaVuSans-20" transform="translate(961.583984 0)"/>
     <use xlink:href="#DejaVuSans-73" transform="translate(993.371094 0)"/>
     <use xlink:href="#DejaVuSans-62" transform="translate(1045.470703 0)"/>
     <use xlink:href="#DejaVuSans-5f" transform="translate(1108.947266 0)"/>
     <use xlink:href="#DejaVuSans-73" transform="translate(1158.947266 0)"/>
     <use xlink:href="#DejaVuSans-75" transform="translate(1211.046875 0)"/>
     <use xlink:href="#DejaVuSans-62" transform="translate(1274.425781 0)"/>
     <use xlink:href="#DejaVuSans-28" transform="translate(1337.902344 0)"/>
     <use xlink:href="#DejaVuSans-64" transform="translate(1376.916016 0)"/>
     <use xlink:href="#DejaVuSans-29" transform="translate(1440.392578 0)"/>
     <use xlink:href="#DejaVuSans-20" transform="translate(1479.40625 0)"/>
     <use xlink:href="#DejaVuSans-6f" transform="translate(1511.193359 0)"/>
     <use xlink:href="#DejaVuSans-76" transform="translate(1572.375 0)"/>
     <use xlink:href="#DejaVuSans-65" transform="translate(1631.554688 0)"/>
     <use xlink:href="#DejaVuSans-72" transform="translate(1693.078125 0)"/>
     <use xlink:href="#DejaVuSans-20" transform="translate(1734.191406 0)"/>
     <use xlink:href="#DejaVuSans-64" transform="translate(1765.978516 0)"/>
     <use xlink:href="#DejaVuSans-20" transform="translate(1829.455078 0)"/>
     <use xlink:href="#DejaVuSans-69" transform="translate(1861.242188 0)"/>
     <use xlink:href="#DejaVuSans-6e" transform="translate(1889.025391 0)"/>
     <use xlink:href="#DejaVuSans-20" transform="translate(1952.404297 0)"/>
     <use xlink:href="#DejaVuSans-5b" transform="translate(1984.191406 0)"/>
     <use xlink:href="#DejaVuSans-2d" transform="translate(2023.205078 0)"/>
     <use xlink:href="#DejaVuSans-31" transform="translate(2059.289062 0)"/>
     <use xlink:href="#DejaVuSans-30" transform="translate(2122.912109 0)"/>
     <use xlink:href="#DejaVuSans-2c" transform="translate(2186.535156 0)"/>
     <use xlink:href="#DejaVuSans-20" transform="translate(2218.322266 0)"/>
     <use xlink:href="#DejaVuSans-30" transform="translate(2250.109375 0)"/>
     <use xlink:href="#DejaVuSans-29" transform="translate(2313.732422 0)"/>
    </g>
   </g>
  </g>
 </g>
 <defs>
  <clipPath id="p01b1590052">
   <rect x="49.260938" y="22.318125" width="390.6" height="221.76"/>
  </clipPath>
 </defs>
</svg>
